<?xml version="1.0" encoding="UTF-8" standalone="no"?>
<svg
   xmlns:dc="http://purl.org/dc/elements/1.1/"
   xmlns:cc="http://creativecommons.org/ns#"
   xmlns:rdf="http://www.w3.org/1999/02/22-rdf-syntax-ns#"
   xmlns:svg="http://www.w3.org/2000/svg"
   xmlns="http://www.w3.org/2000/svg"
   xmlns:sodipodi="http://sodipodi.sourceforge.net/DTD/sodipodi-0.dtd"
   xmlns:inkscape="http://www.inkscape.org/namespaces/inkscape"
   version="1.1"
   width="76"
   height="76"
   viewBox="0 0 76.00 76.00"
   enable-background="new 0 0 76.00 76.00"
   xml:space="preserve"
   id="svg2"
   inkscape:version="0.48.4 r9939"
   sodipodi:docname="appbar.debug.step.into.svg"><metadata
   id="metadata10"><rdf:RDF><cc:Work
       rdf:about=""><dc:format>image/svg+xml</dc:format><dc:type
         rdf:resource="http://purl.org/dc/dcmitype/StillImage" /></cc:Work></rdf:RDF></metadata><defs
   id="defs8" /><sodipodi:namedview
   pagecolor="#ffffff"
   bordercolor="#666666"
   borderopacity="1"
   objecttolerance="10"
   gridtolerance="10"
   guidetolerance="10"
   inkscape:pageopacity="0"
   inkscape:pageshadow="2"
   inkscape:window-width="640"
   inkscape:window-height="480"
   id="namedview6"
   showgrid="false"
   inkscape:zoom="3.1052632"
   inkscape:cx="38"
   inkscape:cy="38"
   inkscape:window-x="0"
   inkscape:window-y="0"
   inkscape:window-maximized="0"
   inkscape:current-layer="svg2" />
	<path
   d="m 30.13914,14.140718 46.250691,0 0,8.894363 -46.250691,0 0,-8.894363 z m 5.336618,14.230981 40.914073,0 0,8.894364 -40.914073,0 0,-8.894364 z m 0,14.230982 40.914073,0 0,8.894363 -40.914073,0 0,-8.894363 z m -5.336618,14.230981 46.250691,0 0,8.894363 -46.250691,0 0,-8.894363 z M 8.7926681,35.48719 c 0,3.929885 3.1857839,7.115491 7.1154909,7.115491 l 3.557745,0 0,-7.115314 12.007391,11.562495 -12.007391,11.562673 0,-7.115491 -3.557745,0 c -8.8420649,0 -16.00985392,-7.167968 -16.00985392,-16.009854 l 0,-5.336618 c 0,-8.841887 7.16778902,-16.009854 16.00985392,-16.009854 l 3.557745,0 0,8.894363 -3.557745,0 c -3.929707,0 -7.1154909,3.185784 -7.1154909,7.115491 l 0,5.336618 z"
   id="path4"
   inkscape:connector-curvature="0"
   style="fill:#000000;fill-opacity:1;stroke-width:0.2;stroke-linejoin:round" />
</svg>