<?xml version="1.0" encoding="UTF-8" standalone="no"?>
<svg
   xmlns:dc="http://purl.org/dc/elements/1.1/"
   xmlns:cc="http://creativecommons.org/ns#"
   xmlns:rdf="http://www.w3.org/1999/02/22-rdf-syntax-ns#"
   xmlns:svg="http://www.w3.org/2000/svg"
   xmlns="http://www.w3.org/2000/svg"
   xmlns:sodipodi="http://sodipodi.sourceforge.net/DTD/sodipodi-0.dtd"
   xmlns:inkscape="http://www.inkscape.org/namespaces/inkscape"
   version="1.1"
   width="76.0106"
   height="76.0106"
   viewBox="0 0 76.01 76.01"
   enable-background="new 0 0 76.01 76.01"
   xml:space="preserve"
   id="svg2"
   inkscape:version="0.48.4 r9939"
   sodipodi:docname="appbar.table.copy.row.svg"><metadata
   id="metadata10"><rdf:RDF><cc:Work
       rdf:about=""><dc:format>image/svg+xml</dc:format><dc:type
         rdf:resource="http://purl.org/dc/dcmitype/StillImage" /><dc:title /></cc:Work></rdf:RDF></metadata><defs
   id="defs8" /><sodipodi:namedview
   pagecolor="#ffffff"
   bordercolor="#666666"
   borderopacity="1"
   objecttolerance="10"
   gridtolerance="10"
   guidetolerance="10"
   inkscape:pageopacity="0"
   inkscape:pageshadow="2"
   inkscape:window-width="1920"
   inkscape:window-height="1017"
   id="namedview6"
   showgrid="true"
   inkscape:snap-grids="true"
   inkscape:zoom="0.5"
   inkscape:cx="-1101.3156"
   inkscape:cy="-201.08769"
   inkscape:window-x="-8"
   inkscape:window-y="-8"
   inkscape:window-maximized="1"
   inkscape:current-layer="svg2"><inkscape:grid
     type="xygrid"
     id="grid3051" /></sodipodi:namedview>
	
<g
   id="g2992"
   transform="matrix(1.2866672,0,0,1.2866672,-19.770446,-18.714341)"><g
     transform="matrix(1.4286201,0,0,1.4286201,-9.1304357,-21.072284)"
     id="g3092"><path
       d="m 18.0025,64.010518 0,-37.192634 40.0056,0 0,37.192634 z m 3.0004,-3.0004 34.0047,0 0,-30.005718 -34.0047,0 z m 2.0003,-14.003518 6.0008,0 0,5.0007 -6.0008,0 z m 8.0011,0 6.0008,0 0,5.0007 -6.0008,0 z m 8.0011,0 6.0008,0 0,5.0007 -6.0008,0 z m 8.0011,0 6.0009,0 0,5.0007 -6.0009,0 z m -16.0022,-7.001 6.0008,0 0,5.0007 -6.0008,0 z m 0,-7.0008 6.0008,0 0,5.0007 -6.0008,0 z m 8.0011,0 6.0008,0 0,5.0007 -6.0008,0 z m 8.0011,0 6.0009,0 0,5.0007 -6.0009,0 z m -15.002,8.0009 0,3.0004 4.0005,0 0,-3.0004 z"
       id="path4"
       inkscape:connector-curvature="0"
       style="fill:#000000;fill-opacity:1;stroke-width:0.2;stroke-linejoin:round"
       sodipodi:nodetypes="ccccccccccccccccccccccccccccccccccccccccccccccccccccccc" /><path
       d="m 22.987127,33.034483 6.000803,0 0,5.000701 -6.000803,0 z"
       id="path4-1"
       inkscape:connector-curvature="0"
       style="fill:#000000;fill-opacity:1;stroke-width:0.2;stroke-linejoin:round"
       sodipodi:nodetypes="ccccc" /><path
       d="m 23.005296,40.015279 6.000793,0 0,5.000701 -6.000793,0 z m 1.000192,1.000102 0,3.000397 4.000509,0 0,-3.000397 z"
       id="path4-7"
       inkscape:connector-curvature="0"
       style="fill:#000000;fill-opacity:1;stroke-width:0.2;stroke-linejoin:round"
       sodipodi:nodetypes="cccccccccc" /><path
       d="m 38.995841,40.014939 6.000793,0 0,5.0007 -6.000793,0 z m 1.000192,1.000102 0,3.000396 4.000509,0 0,-3.000396 z"
       id="path4-4"
       inkscape:connector-curvature="0"
       style="fill:#000000;fill-opacity:1;stroke-width:0.2;stroke-linejoin:round"
       sodipodi:nodetypes="cccccccccc" /><path
       d="m 47.007023,40.017726 6.000793,0 0,5.0007 -6.000793,0 z m 1.000192,1.000102 0,3.000396 4.000508,0 0,-3.000396 z"
       id="path4-0"
       inkscape:connector-curvature="0"
       style="fill:#000000;fill-opacity:1;stroke-width:0.2;stroke-linejoin:round"
       sodipodi:nodetypes="cccccccccc" /></g><path
     sodipodi:nodetypes="ccccc"
     style="fill:#000000;fill-opacity:1;stroke-width:0.2;stroke-linejoin:round"
     inkscape:connector-curvature="0"
     id="path4-1-8"
     d="m 23.722994,56.084273 8.572867,0 0,7.144102 -8.572867,0 z" /><path
     sodipodi:nodetypes="ccccc"
     style="fill:#000000;fill-opacity:1;stroke-width:0.2;stroke-linejoin:round"
     inkscape:connector-curvature="0"
     id="path4-1-8-8"
     d="m 35.166428,56.085475 8.572867,0 0,7.144102 -8.572867,0 z" /><path
     sodipodi:nodetypes="ccccc"
     style="fill:#000000;fill-opacity:1;stroke-width:0.2;stroke-linejoin:round"
     inkscape:connector-curvature="0"
     id="path4-1-8-2"
     d="m 46.584702,56.095435 8.572868,0 0,7.144102 -8.572868,0 z" /><path
     sodipodi:nodetypes="ccccc"
     style="fill:#000000;fill-opacity:1;stroke-width:0.2;stroke-linejoin:round"
     inkscape:connector-curvature="0"
     id="path4-1-8-4"
     d="m 58.009606,56.084273 8.572869,0 0,7.144102 -8.572869,0 z" /></g><g
   id="g2997"
   transform="matrix(1.6760263,0,0,1.6760263,13.060827,-12.809857)"><path
     d="m 5.4368933,17.017041 8.7542177,0 -0.745033,-0.771666 -10.244298,0 0,23.921644 2.2351133,0 0,-23.149978 z m 14.3420077,0 9.499257,9.838739 0,20.256235 -23.8412647,0 0,-3.858333 -5.21527945,0 0,-30.094971 14.34201815,0 3.725202,3.85833 1.490067,0 z m -11.3618482,3.086664 0,23.921644 17.8809482,0 0,-13.889986 -9.685512,0 0,-10.031658 -8.1954362,0 z m 11.1755932,0.964581 0,5.980412 5.774055,0 -5.774055,-5.980412 z"
     id="path4-9"
     inkscape:connector-curvature="0"
     style="fill:#000000;fill-opacity:1;stroke:#ffffff;stroke-width:0.99328834;stroke-linejoin:round;stroke-miterlimit:4;stroke-opacity:1;stroke-dasharray:none" /><path
     inkscape:connector-curvature="0"
     id="path6764"
     d="M 8.2836148,44.377553 C 8.1197165,44.310707 8.0754023,41.679831 8.0754023,32.016273 l 0,-12.276359 4.3962747,0 c 3.85517,0 4.40872,0.03278 4.497382,0.266311 0.05561,0.146472 0.101101,2.381471 0.101101,4.966665 l 0,4.700353 4.630637,0 c 3.379513,0 4.684641,0.05459 4.830521,0.202033 0.287334,0.290425 0.287334,14.121321 0,14.411746 -0.150823,0.152444 -2.38924,0.19877 -9.11969,0.188741 -4.905895,-0.0073 -9.0135032,-0.0515 -9.1280192,-0.09821 l 0,0 z"
     style="fill:#ffffff;fill-opacity:1;stroke:#ffffff;stroke-width:0.15071687;stroke-miterlimit:4;stroke-opacity:1;stroke-dasharray:none" /><path
     inkscape:connector-curvature="0"
     id="path6766"
     d="M 2.9450561,40.414707 C 2.7933591,40.261378 2.7451725,37.342364 2.7451725,28.306448 c 0,-6.548424 0.045494,-12.026066 0.1011012,-12.172538 0.089295,-0.235213 0.7275457,-0.266311 5.4656361,-0.266311 l 5.3645302,0 0.469225,0.495034 c 0.284093,0.299718 0.42989,0.598638 0.36953,0.757627 -0.08671,0.228395 -0.653536,0.262592 -4.352449,0.262592 l -4.2527535,0 0,11.291289 c 0,7.461408 -0.058486,11.401748 -0.1724303,11.616944 -0.1461856,0.276089 -0.3566164,0.325656 -1.3825284,0.325656 -0.7190946,0 -1.2912015,-0.08197 -1.4099817,-0.202034 z"
     style="fill:#ffffff;fill-opacity:1;stroke:#ffffff;stroke-width:0.15071687;stroke-miterlimit:4;stroke-opacity:1;stroke-dasharray:none" /><path
     inkscape:connector-curvature="0"
     id="path6768"
     d="m 19.443783,27.373041 c -0.156537,-0.06384 -0.208212,-0.896255 -0.208212,-3.35394 0,-3.113886 0.0152,-3.269018 0.320523,-3.269018 0.297426,0 6.003098,5.79441 6.154354,6.25007 0.03407,0.102634 -0.04088,0.25245 -0.16657,0.332921 -0.238201,0.152516 -5.735826,0.188533 -6.100095,0.03996 z"
     style="fill:#ffffff;fill-opacity:1;stroke:#ffffff;stroke-width:0.15071687;stroke-miterlimit:4;stroke-opacity:1;stroke-dasharray:none" /></g></svg>