<?xml version="1.0" encoding="UTF-8" standalone="no"?>
<svg
   xmlns:dc="http://purl.org/dc/elements/1.1/"
   xmlns:cc="http://creativecommons.org/ns#"
   xmlns:rdf="http://www.w3.org/1999/02/22-rdf-syntax-ns#"
   xmlns:svg="http://www.w3.org/2000/svg"
   xmlns="http://www.w3.org/2000/svg"
   xmlns:sodipodi="http://sodipodi.sourceforge.net/DTD/sodipodi-0.dtd"
   xmlns:inkscape="http://www.inkscape.org/namespaces/inkscape"
   version="1.1"
   width="76"
   height="76"
   viewBox="0 0 76.00 76.00"
   enable-background="new 0 0 76.00 76.00"
   xml:space="preserve"
   id="svg2"
   inkscape:version="0.48.4 r9939"
   sodipodi:docname="appbar.form.edit.svg"><metadata
   id="metadata10"><rdf:RDF><cc:Work
       rdf:about=""><dc:format>image/svg+xml</dc:format><dc:type
         rdf:resource="http://purl.org/dc/dcmitype/StillImage" /><dc:title /></cc:Work></rdf:RDF></metadata><defs
   id="defs8" /><sodipodi:namedview
   pagecolor="#ffffff"
   bordercolor="#666666"
   borderopacity="1"
   objecttolerance="10"
   gridtolerance="10"
   guidetolerance="10"
   inkscape:pageopacity="0"
   inkscape:pageshadow="2"
   inkscape:window-width="1920"
   inkscape:window-height="1017"
   id="namedview6"
   showgrid="true"
   inkscape:zoom="4.3915053"
   inkscape:cx="146.87839"
   inkscape:cy="-9.2244527"
   inkscape:window-x="1912"
   inkscape:window-y="-8"
   inkscape:window-maximized="1"
   inkscape:current-layer="svg2"
   showguides="false"
   inkscape:snap-global="false"><inkscape:grid
     type="xygrid"
     id="grid3035" /></sodipodi:namedview>
	<path
   d="m 24.937531,7.8533488 47.614301,0 0,14.6505532 -47.614301,0 z"
   id="path4"
   inkscape:connector-curvature="0"
   style="fill:#000000;fill-opacity:1;stroke-width:0.2;stroke-linejoin:round"
   sodipodi:nodetypes="ccccc" />
<path
   d="m 35.186295,29.899935 37.441168,0 0,14.650555 -37.441168,0 z"
   id="path4-1"
   inkscape:connector-curvature="0"
   style="fill:#000000;fill-opacity:1;stroke-width:0.2;stroke-linejoin:round"
   sodipodi:nodetypes="ccccc" /><path
   d="m 13.24049,29.899935 14.650554,7.298117 C 27.861014,37.188852 13.24049,44.55049 13.24049,44.55049 z"
   id="path4-7"
   inkscape:connector-curvature="0"
   style="fill:#000000;fill-opacity:1;stroke-width:0.2;stroke-linejoin:round"
   sodipodi:nodetypes="cccc" /><path
   d="m 35.168716,51.911191 37.441168,0 0,14.650555 -37.441168,0 z"
   id="path4-1-0"
   inkscape:connector-curvature="0"
   style="fill:#000000;fill-opacity:1;stroke-width:0.2;stroke-linejoin:round"
   sodipodi:nodetypes="ccccc" /><path
   d="m 13.222911,51.911191 14.650554,7.261258 c 0,0 -14.573827,7.389297 -14.650554,7.389297 z"
   id="path4-7-9"
   inkscape:connector-curvature="0"
   style="fill:#000000;fill-opacity:1;stroke-width:0.2;stroke-linejoin:round"
   sodipodi:nodetypes="cccc" /><path
   style="fill:#ffffff;fill-opacity:0;stroke:none"
   d="m 82.700719,15.768859 0,-1.730328 -1.714005,0 -1.714006,0 0,-1.126348 0,-1.126345 1.714006,0 1.714005,0 0,-1.714007 0,-1.714005 1.126346,0 1.126347,0 0,1.714005 0,1.714007 1.730329,0 1.73033,0 0,1.126056 0,1.126058 -1.722168,0.0085 -1.722167,0.0085 -0.0085,1.722167 -0.0085,1.722167 -1.126058,0 -1.126058,0 0,-1.730329 z"
   id="path3077-4"
   inkscape:connector-curvature="0" /><g
   transform="matrix(1.1159983,0,0,1.1159983,3.7238507,-9.2086132)"
   id="g3807"><path
     sodipodi:nodetypes="ccccccccccsssccccccc"
     id="path4-1-8"
     d="m 44.729911,22.189737 9.459171,9.208014 -22.701797,22.099305 -3.89589,0.810083 -4.030628,-2.566861 -2.364792,-3.651127 0.832138,-3.80011 z m 9.459044,9.210616 -9.465047,-9.207932 2.536129,-2.658857 c 1.423334,-1.492211 3.873307,-1.43844 5.350963,0 l 4.0131,3.906597 c 1.477656,1.43844 1.477657,3.77051 0,5.208949 z m -33.332303,24.590176 -0.945953,-0.920731 1.28975,-6.98268 6.384974,6.21552 z"
     inkscape:connector-curvature="0"
     style="fill:#ffffff;fill-opacity:1;stroke-width:0.2;stroke-linejoin:round" /><path
     style="fill:#000000;fill-opacity:1;stroke-width:0.2;stroke-linejoin:round"
     inkscape:connector-curvature="0"
     id="path4-8"
     d="M 42.7499,25.3335 50.6666,33.2501 31.6667,52.25 23.75,44.3334 42.7499,25.3335 z m 9.4205,6.3329 -7.8371,-7.8371 3.3588,-3.3587 c 1.2367,-1.2367 3.2417,-1.2367 4.4784,0 l 3.3587,3.3587 c 1.2367,1.2367 1.2367,3.2417 0,4.4784 l -3.3588,3.3587 z m -30.3995,23.3543 -0.7917,-0.7916 2.0781,-6.6303 5.3438,5.3438 -6.6302,2.0781 z" /></g><path
   sodipodi:nodetypes="cccc"
   style="fill:#000000;fill-opacity:1;stroke-width:0.2;stroke-linejoin:round"
   inkscape:connector-curvature="0"
   id="path4-7-1"
   d="M 17.621953,7.8960268 10.323835,22.54658 C 10.332992,22.516547 2.9713979,7.8960268 2.9713979,7.8960268 z" /></svg>