<?xml version="1.0" encoding="UTF-8" standalone="no"?>
<svg
   xmlns:dc="http://purl.org/dc/elements/1.1/"
   xmlns:cc="http://creativecommons.org/ns#"
   xmlns:rdf="http://www.w3.org/1999/02/22-rdf-syntax-ns#"
   xmlns:svg="http://www.w3.org/2000/svg"
   xmlns="http://www.w3.org/2000/svg"
   xmlns:sodipodi="http://sodipodi.sourceforge.net/DTD/sodipodi-0.dtd"
   xmlns:inkscape="http://www.inkscape.org/namespaces/inkscape"
   version="1.1"
   width="76"
   height="76"
   viewBox="0 0 76.00 76.00"
   enable-background="new 0 0 76.00 76.00"
   xml:space="preserve"
   id="svg2"
   inkscape:version="0.48.4 r9939"
   sodipodi:docname="appbar.cell.function.svg"><metadata
   id="metadata10"><rdf:RDF><cc:Work
       rdf:about=""><dc:format>image/svg+xml</dc:format><dc:type
         rdf:resource="http://purl.org/dc/dcmitype/StillImage" /></cc:Work></rdf:RDF></metadata><defs
   id="defs8" /><sodipodi:namedview
   pagecolor="#ffffff"
   bordercolor="#666666"
   borderopacity="1"
   objecttolerance="10"
   gridtolerance="10"
   guidetolerance="10"
   inkscape:pageopacity="0"
   inkscape:pageshadow="2"
   inkscape:window-width="640"
   inkscape:window-height="480"
   id="namedview6"
   showgrid="false"
   inkscape:zoom="3.1052632"
   inkscape:cx="38"
   inkscape:cy="38"
   inkscape:window-x="0"
   inkscape:window-y="0"
   inkscape:window-maximized="0"
   inkscape:current-layer="svg2" />
	<path
   d="m 13.930651,32.641092 -0.04951,-6.705965 9.908562,0 0.611022,-4.433945 C 24.903058,16.510643 26.592497,11.898834 29.468689,7.6655762 32.345056,3.4324945 37.124546,1.1822488 43.807158,0.91483898 46.876489,1.0607468 49.14517,1.5467549 50.613027,2.3726878 L 49.011729,8.5847427 C 47.527017,7.9742476 45.792276,7.6529344 43.807158,7.6208031 c -3.369574,0.1123716 -5.888459,1.4538104 -7.556653,4.0243159 -1.66802,2.570506 -2.685688,5.695144 -3.052651,9.374093 l -0.611549,4.915915 11.422771,0 0,6.705965 -12.664655,0 -2.374557,20.906251 c -0.686522,6.753019 -2.306608,12.114735 -4.860608,16.0855 -2.553825,3.970763 -6.672429,6.001708 -12.355282,6.093186 -3.3641317,-0.06672 -5.9365686,-0.633847 -7.7174864,-1.701555 l 1.5830381,-6.231721 c 1.6490565,0.785725 3.4959927,1.161469 5.5408083,1.127231 3.009458,-0.01703 5.227397,-1.392006 6.653817,-4.124924 1.426419,-2.732919 2.407566,-6.72124 2.943439,-11.965141 l 2.275705,-20.188827 -9.102644,0 z m 37.083053,22.369894 -0.954985,-4.716281 -1.014155,-4.223776 -0.861402,-2.564886 -0.96429,-0.894059 -0.510941,0.1359 -1.142153,1.073151 -1.629567,2.397557 -3.388714,-1.319314 c 1.293155,-2.09398 2.535389,-3.65788 3.726706,-4.6917 1.191318,-1.033821 2.594385,-1.550731 5.599277,-1.550731 l 2.958716,0.886157 1.811644,3.111295 0.753067,3.052299 0.428945,2.57349 6.171144,-7.890257 c 0.698988,-0.636832 1.370233,-1.084739 2.013387,-1.344072 0.643328,-0.259333 1.499989,-0.388912 2.569803,-0.388912 0.235805,0 3.145884,0.118161 3.762876,0.354498 l -1.230647,5.316767 -1.390075,0 -0.766235,0 -1.390074,0 c -0.07392,-0.498649 -0.231241,-0.849285 -0.471612,-1.051905 l -0.555537,0.308495 -1.309483,1.250488 -6.247172,7.852157 1.053486,5.154355 0.876325,3.613457 0.674407,2.279392 0.63016,1.255229 0.855781,0.624892 c 0.296206,-0.112895 0.588021,-0.294976 0.875272,-0.546057 0.521826,-0.45616 1.275069,-1.4884 2.259726,-3.096546 l 3.388713,1.319315 c -1.430984,2.290806 -2.725719,3.903867 -3.884202,4.839363 -1.158482,0.93532 -2.538549,1.403068 -4.140199,1.403068 -0.232118,0 -3.026138,-0.160833 -3.639793,-0.482497 -0.613831,-0.321665 -1.147072,-0.835238 -1.60007,-1.540899 -0.452824,-0.70566 -0.853324,-1.803392 -1.201149,-3.293547 -0.467573,-1.947194 -0.80065,-3.56008 -0.999232,-4.83831 l -6.54601,8.40752 c -0.685819,0.646489 -1.352149,1.099488 -1.998637,1.35882 -0.646666,0.259158 -1.504906,0.388913 -2.574721,0.388913 -0.234926,0 -3.136051,-0.118161 -3.753043,-0.354498 l 1.230647,-5.316768 3.546384,0 c 0.07023,0.499529 0.225271,0.85069 0.464939,1.053135 l 0.128877,-0.03424 1.368653,-1.151811 7.015163,-8.718649 z"
   id="path4"
   inkscape:connector-curvature="0"
   style="fill:#000000;fill-opacity:1;stroke-width:0.2;stroke-linejoin:round" />
</svg>