<?xml version="1.0" encoding="UTF-8" standalone="no"?>
<svg
   xmlns:dc="http://purl.org/dc/elements/1.1/"
   xmlns:cc="http://creativecommons.org/ns#"
   xmlns:rdf="http://www.w3.org/1999/02/22-rdf-syntax-ns#"
   xmlns:svg="http://www.w3.org/2000/svg"
   xmlns="http://www.w3.org/2000/svg"
   xmlns:sodipodi="http://sodipodi.sourceforge.net/DTD/sodipodi-0.dtd"
   xmlns:inkscape="http://www.inkscape.org/namespaces/inkscape"
   version="1.1"
   width="76"
   height="76"
   viewBox="0 0 76.00 76.00"
   enable-background="new 0 0 76.00 76.00"
   xml:space="preserve"
   id="svg2"
   inkscape:version="0.48.4 r9939"
   sodipodi:docname="appbar.page.file.pdf.tag.svg"><metadata
   id="metadata10"><rdf:RDF><cc:Work
       rdf:about=""><dc:format>image/svg+xml</dc:format><dc:type
         rdf:resource="http://purl.org/dc/dcmitype/StillImage" /></cc:Work></rdf:RDF></metadata><defs
   id="defs8" /><sodipodi:namedview
   pagecolor="#ffffff"
   bordercolor="#666666"
   borderopacity="1"
   objecttolerance="10"
   gridtolerance="10"
   guidetolerance="10"
   inkscape:pageopacity="0"
   inkscape:pageshadow="2"
   inkscape:window-width="640"
   inkscape:window-height="480"
   id="namedview6"
   showgrid="false"
   inkscape:zoom="3.1052632"
   inkscape:cx="38"
   inkscape:cy="38"
   inkscape:window-x="0"
   inkscape:window-y="0"
   inkscape:window-maximized="0"
   inkscape:current-layer="svg2" />
	<path
   d="m 32.656158,52.107721 25.090395,0 0,-23.417702 -20.072317,0 0,-21.7450094 -25.090395,0 0,56.8715634 15.054238,0 0,-6.690773 c 0,-2.771317 2.246593,-5.018079 5.018079,-5.018079 z m -5.018246,18.399624 -21.7448427,0 0,-70.25310771 37.2174197,0 21.326836,21.32683571 -1.67e-4,30.526648 c 2.771485,0 5.018079,2.246762 5.018079,5.018079 l 0,13.381545 c 0,2.771485 -2.246594,5.018079 -5.018079,5.018079 l -31.781168,0 c -2.771318,0 -5.018078,-2.246594 -5.018078,-5.018079 z m 15.054403,-61.4714694 0,12.9633714 12.963372,0 L 42.692315,9.0358756 z m -10.036157,61.4714694 3.345385,0 0,-5.018079 1.672693,0 c 2.771486,0 5.018079,-1.410247 5.018079,-4.181734 0,-2.771485 -2.246593,-4.181732 -5.018079,-4.181732 l -5.018078,0 0,13.381545 z m 5.018078,-8.363466 -1.672693,0 0,-1.672693 1.672693,0 c 0.923828,0 1.672693,-0.08748 1.672693,0.836346 0,0.92383 -0.748865,0.836347 -1.672693,0.836347 z m 18.399624,8.363466 3.345386,0 0,-5.018079 3.345386,0 0,-3.345387 -3.345386,0 0,-1.672693 5.018079,0 0,-3.345386 -8.363465,0 0,13.381545 z M 44.365008,57.1258 l 0,13.381545 5.018079,0 c 2.771485,0 5.01808,-2.246762 5.01808,-5.018079 l 0,-3.345387 c 0,-2.771484 -2.246595,-5.018079 -5.01808,-5.018079 l -5.018079,0 z m 6.690772,8.363466 c 0,0.923828 -0.748864,1.672693 -1.672693,1.672693 l -1.672693,0 0,-6.690773 1.672693,0 c 0.923829,0 1.672693,0.748865 1.672693,1.672693 l 0,3.345387 z"
   id="path4"
   inkscape:connector-curvature="0"
   style="fill:#000000;fill-opacity:1;stroke-width:0.2;stroke-linejoin:round" />
</svg>