<?xml version="1.0" encoding="UTF-8" standalone="no"?>
<svg
   xmlns:dc="http://purl.org/dc/elements/1.1/"
   xmlns:cc="http://creativecommons.org/ns#"
   xmlns:rdf="http://www.w3.org/1999/02/22-rdf-syntax-ns#"
   xmlns:svg="http://www.w3.org/2000/svg"
   xmlns="http://www.w3.org/2000/svg"
   xmlns:sodipodi="http://sodipodi.sourceforge.net/DTD/sodipodi-0.dtd"
   xmlns:inkscape="http://www.inkscape.org/namespaces/inkscape"
   version="1.1"
   width="76"
   height="76"
   viewBox="0 0 76.00 76.00"
   enable-background="new 0 0 76.00 76.00"
   xml:space="preserve"
   id="svg2"
   inkscape:version="0.48.4 r9939"
   sodipodi:docname="appbar.rule.remove.svg"><metadata
   id="metadata10"><rdf:RDF><cc:Work
       rdf:about=""><dc:format>image/svg+xml</dc:format><dc:type
         rdf:resource="http://purl.org/dc/dcmitype/StillImage" /></cc:Work></rdf:RDF></metadata><defs
   id="defs8" /><sodipodi:namedview
   pagecolor="#ffffff"
   bordercolor="#666666"
   borderopacity="1"
   objecttolerance="10"
   gridtolerance="10"
   guidetolerance="10"
   inkscape:pageopacity="0"
   inkscape:pageshadow="2"
   inkscape:window-width="944"
   inkscape:window-height="1001"
   id="namedview6"
   showgrid="false"
   inkscape:zoom="3.1052632"
   inkscape:cx="38.000002"
   inkscape:cy="38.000002"
   inkscape:window-x="1920"
   inkscape:window-y="0"
   inkscape:window-maximized="0"
   inkscape:current-layer="svg2" />
	<path
   d="M 2.3050849,34.033898 C 6.9587104,33.752106 10.237288,29.953772 10.237288,24.118644 L 10.17284,13.515072 c 0,-8.7799567 7.203432,-13.0839703 15.928856,-13.1930381 l 0,7.9322034 C 21.44807,8.3724272 18.169492,10.642227 18.169492,16.18644 l 0,9.915254 c 0,5.949154 -2.974576,10.90678 -6.940678,11.898306 3.966101,0.991526 6.940678,5.949152 6.940678,11.898304 l 0,9.915256 c 0,5.544212 3.279173,7.814012 7.932203,7.932202 l 0,7.932204 C 17.376271,75.568898 10.172839,71.264884 10.172839,62.484928 l 0.06445,-10.603572 c 0,-5.835128 -3.2785783,-9.633462 -7.9322038,-9.915254 l 0,-7.932204 z m 71.3898301,0 0,7.932204 c -4.653625,0.281792 -7.932203,4.080126 -7.932203,9.915254 l 0.06444,10.603572 c 0,8.779956 -7.203432,13.08397 -15.928856,13.193038 l 0,-7.932204 c 4.653626,-0.118196 7.932204,-2.38799 7.932204,-7.932202 l 0,-9.915256 c 0,-5.949152 2.974576,-10.906778 6.940678,-11.898304 -3.966102,-0.991526 -6.940678,-5.949152 -6.940678,-11.898306 l 0,-9.915254 c 0,-5.544213 -3.278578,-7.8140129 -7.932204,-7.9322027 l 0,-7.9322034 c 8.725424,0.1090678 15.928856,4.4130814 15.928856,13.1930381 l -0.06444,10.603572 c 0,5.835128 3.278578,9.633462 7.932203,9.915254 z"
   id="path4"
   inkscape:connector-curvature="0"
   style="fill:#000000;fill-opacity:1;stroke-width:0.2;stroke-linejoin:round" />
<g
   id="g3773"
   transform="matrix(1.293504,0,0,1.293504,111.4054,-11.888914)"><path
     sodipodi:nodetypes="ccccccccccccc"
     style="fill:#ffffff;fill-opacity:1;stroke-width:0.2;stroke-linejoin:round"
     inkscape:connector-curvature="0"
     id="path4-7-4"
     d="m -52.786311,29.721016 6.66552,-6.836835 -6.66552,-6.893763 5.439807,-5.325728 6.779907,7.064548 6.637588,-7.064548 5.581902,5.468048 -7.207261,6.658082 7.207261,6.617092 -5.581902,5.695758 -6.575347,-6.773841 -6.870612,6.773841 z" /><path
     sodipodi:nodetypes="ccccccccccccc"
     style="fill:#000000;fill-opacity:1;stroke-width:0.2;stroke-linejoin:round"
     inkscape:connector-curvature="0"
     id="path4-7"
     d="m -51.851316,29.686568 6.659912,-6.846435 -6.597671,-6.628593 4.567145,-5.064872 6.628593,6.628594 6.628594,-6.348511 4.784787,4.784789 -7.250956,6.628593 7.219836,6.472991 -5.03375,4.598066 -6.348511,-6.410752 -6.784195,6.597474 z" /><path
     sodipodi:nodetypes="ccccccccccccc"
     style="fill:#ffffff;fill-opacity:1;stroke-width:0.2;stroke-linejoin:round"
     inkscape:connector-curvature="0"
     id="path4-7-1"
     d="m -50.297584,29.270822 6.428158,-6.399517 -6.399694,-6.342588 3.343443,-3.172483 6.314124,6.114878 6.541838,-6.285662 3.144016,3.115555 -6.72999,6.5703 6.72999,6.427981 -3.400192,3.257872 -6.285662,-6.257197 -6.42798,6.257197 z" /></g></svg>