<?xml version="1.0" encoding="UTF-8" standalone="no"?>
<svg
   xmlns:dc="http://purl.org/dc/elements/1.1/"
   xmlns:cc="http://creativecommons.org/ns#"
   xmlns:rdf="http://www.w3.org/1999/02/22-rdf-syntax-ns#"
   xmlns:svg="http://www.w3.org/2000/svg"
   xmlns="http://www.w3.org/2000/svg"
   xmlns:sodipodi="http://sodipodi.sourceforge.net/DTD/sodipodi-0.dtd"
   xmlns:inkscape="http://www.inkscape.org/namespaces/inkscape"
   version="1.1"
   width="76.0106"
   height="76.0106"
   viewBox="0 0 76.01 76.01"
   enable-background="new 0 0 76.01 76.01"
   xml:space="preserve"
   id="svg2"
   inkscape:version="0.48.4 r9939"
   sodipodi:docname="appbar.table.add.row.svg"><metadata
   id="metadata10"><rdf:RDF><cc:Work
       rdf:about=""><dc:format>image/svg+xml</dc:format><dc:type
         rdf:resource="http://purl.org/dc/dcmitype/StillImage" /><dc:title></dc:title></cc:Work></rdf:RDF></metadata><defs
   id="defs8" /><sodipodi:namedview
   pagecolor="#ffffff"
   bordercolor="#666666"
   borderopacity="1"
   objecttolerance="10"
   gridtolerance="10"
   guidetolerance="10"
   inkscape:pageopacity="0"
   inkscape:pageshadow="2"
   inkscape:window-width="1920"
   inkscape:window-height="1017"
   id="namedview6"
   showgrid="true"
   inkscape:snap-grids="true"
   inkscape:zoom="8"
   inkscape:cx="72.866143"
   inkscape:cy="25.003679"
   inkscape:window-x="-8"
   inkscape:window-y="-8"
   inkscape:window-maximized="1"
   inkscape:current-layer="svg2"><inkscape:grid
     type="xygrid"
     id="grid3051" /></sodipodi:namedview>
	
<g
   id="g2992"
   transform="matrix(1.2866672,0,0,1.2866672,-19.770446,-18.714341)"><g
     transform="matrix(1.4286201,0,0,1.4286201,-9.1304357,-21.072284)"
     id="g3092"><path
       d="m 18.0025,64.010518 0,-37.192634 40.0056,0 0,37.192634 z m 3.0004,-3.0004 34.0047,0 0,-30.005718 -34.0047,0 z m 2.0003,-14.003518 6.0008,0 0,5.0007 -6.0008,0 z m 8.0011,0 6.0008,0 0,5.0007 -6.0008,0 z m 8.0011,0 6.0008,0 0,5.0007 -6.0008,0 z m 8.0011,0 6.0009,0 0,5.0007 -6.0009,0 z m -16.0022,-7.001 6.0008,0 0,5.0007 -6.0008,0 z m 0,-7.0008 6.0008,0 0,5.0007 -6.0008,0 z m 8.0011,0 6.0008,0 0,5.0007 -6.0008,0 z m 8.0011,0 6.0009,0 0,5.0007 -6.0009,0 z m -15.002,8.0009 0,3.0004 4.0005,0 0,-3.0004 z"
       id="path4"
       inkscape:connector-curvature="0"
       style="fill:#000000;fill-opacity:1;stroke-width:0.2;stroke-linejoin:round"
       sodipodi:nodetypes="ccccccccccccccccccccccccccccccccccccccccccccccccccccccc" /><path
       d="m 22.987127,33.034483 6.000803,0 0,5.000701 -6.000803,0 z"
       id="path4-1"
       inkscape:connector-curvature="0"
       style="fill:#000000;fill-opacity:1;stroke-width:0.2;stroke-linejoin:round"
       sodipodi:nodetypes="ccccc" /><path
       d="m 23.005296,40.015279 6.000793,0 0,5.000701 -6.000793,0 z m 1.000192,1.000102 0,3.000397 4.000509,0 0,-3.000397 z"
       id="path4-7"
       inkscape:connector-curvature="0"
       style="fill:#000000;fill-opacity:1;stroke-width:0.2;stroke-linejoin:round"
       sodipodi:nodetypes="cccccccccc" /><path
       d="m 38.995841,40.014939 6.000793,0 0,5.0007 -6.000793,0 z m 1.000192,1.000102 0,3.000396 4.000509,0 0,-3.000396 z"
       id="path4-4"
       inkscape:connector-curvature="0"
       style="fill:#000000;fill-opacity:1;stroke-width:0.2;stroke-linejoin:round"
       sodipodi:nodetypes="cccccccccc" /><path
       d="m 47.007023,40.017726 6.000793,0 0,5.0007 -6.000793,0 z m 1.000192,1.000102 0,3.000396 4.000508,0 0,-3.000396 z"
       id="path4-0"
       inkscape:connector-curvature="0"
       style="fill:#000000;fill-opacity:1;stroke-width:0.2;stroke-linejoin:round"
       sodipodi:nodetypes="cccccccccc" /></g><path
     sodipodi:nodetypes="ccccc"
     style="fill:#000000;fill-opacity:1;stroke-width:0.2;stroke-linejoin:round"
     inkscape:connector-curvature="0"
     id="path4-1-8"
     d="m 23.722994,56.084273 8.572867,0 0,7.144102 -8.572867,0 z" /><path
     sodipodi:nodetypes="ccccc"
     style="fill:#000000;fill-opacity:1;stroke-width:0.2;stroke-linejoin:round"
     inkscape:connector-curvature="0"
     id="path4-1-8-8"
     d="m 35.166428,56.085475 8.572867,0 0,7.144102 -8.572867,0 z" /><path
     sodipodi:nodetypes="ccccc"
     style="fill:#000000;fill-opacity:1;stroke-width:0.2;stroke-linejoin:round"
     inkscape:connector-curvature="0"
     id="path4-1-8-2"
     d="m 46.584702,56.095435 8.572868,0 0,7.144102 -8.572868,0 z" /><path
     sodipodi:nodetypes="ccccc"
     style="fill:#000000;fill-opacity:1;stroke-width:0.2;stroke-linejoin:round"
     inkscape:connector-curvature="0"
     id="path4-1-8-4"
     d="m 58.009606,56.084273 8.572869,0 0,7.144102 -8.572869,0 z" /></g><g
   id="g3773"
   transform="matrix(1.2934938,0,0,1.2934938,68.62097,2.7953905)"><path
     sodipodi:nodetypes="ccccccccccccc"
     style="fill:#ffffff;fill-opacity:1;stroke-width:0.2;stroke-linejoin:round"
     inkscape:connector-curvature="0"
     id="path4-7-4"
     d="m -52.786311,29.721016 6.66552,-6.836835 -6.66552,-6.893763 5.439807,-5.325728 6.779907,7.064548 6.637588,-7.064548 5.581902,5.468048 -7.207261,6.658082 7.207261,6.617092 -5.581902,5.695758 -6.575347,-6.773841 -6.870612,6.773841 z" /><path
     sodipodi:nodetypes="ccccccccccccc"
     style="fill:#000000;fill-opacity:1;stroke-width:0.2;stroke-linejoin:round"
     inkscape:connector-curvature="0"
     id="path4-7-40"
     d="m -51.851316,29.686568 6.659912,-6.846435 -6.597671,-6.628593 4.567145,-5.064872 6.628593,6.628594 6.628594,-6.348511 4.784787,4.784789 -7.250956,6.628593 7.219836,6.472991 -5.03375,4.598066 -6.348511,-6.410752 -6.784195,6.597474 z" /><path
     sodipodi:nodetypes="ccccccccccccc"
     style="fill:#ffffff;fill-opacity:1;stroke-width:0.2;stroke-linejoin:round"
     inkscape:connector-curvature="0"
     id="path4-7-1"
     d="m -50.297584,29.270822 6.428158,-6.399517 -6.399694,-6.342588 3.343443,-3.172483 6.314124,6.114878 6.541838,-6.285662 3.144016,3.115555 -6.72999,6.5703 6.72999,6.427981 -3.400192,3.257872 -6.285662,-6.257197 -6.42798,6.257197 z" /></g></svg>