<?xml version="1.0" encoding="UTF-8" standalone="no"?>
<svg
   xmlns:dc="http://purl.org/dc/elements/1.1/"
   xmlns:cc="http://creativecommons.org/ns#"
   xmlns:rdf="http://www.w3.org/1999/02/22-rdf-syntax-ns#"
   xmlns:svg="http://www.w3.org/2000/svg"
   xmlns="http://www.w3.org/2000/svg"
   xmlns:sodipodi="http://sodipodi.sourceforge.net/DTD/sodipodi-0.dtd"
   xmlns:inkscape="http://www.inkscape.org/namespaces/inkscape"
   version="1.1"
   width="76"
   height="76"
   viewBox="0 0 76.00 76.00"
   enable-background="new 0 0 76.00 76.00"
   xml:space="preserve"
   id="svg2"
   inkscape:version="0.48.4 r9939"
   sodipodi:docname="appbar.form.basic.svg"><metadata
   id="metadata10"><rdf:RDF><cc:Work
       rdf:about=""><dc:format>image/svg+xml</dc:format><dc:type
         rdf:resource="http://purl.org/dc/dcmitype/StillImage" /><dc:title></dc:title></cc:Work></rdf:RDF></metadata><defs
   id="defs8" /><sodipodi:namedview
   pagecolor="#ffffff"
   bordercolor="#666666"
   borderopacity="1"
   objecttolerance="10"
   gridtolerance="10"
   guidetolerance="10"
   inkscape:pageopacity="0"
   inkscape:pageshadow="2"
   inkscape:window-width="1920"
   inkscape:window-height="1017"
   id="namedview6"
   showgrid="false"
   inkscape:zoom="6.2105263"
   inkscape:cx="14.302683"
   inkscape:cy="25.045313"
   inkscape:window-x="-8"
   inkscape:window-y="-8"
   inkscape:window-maximized="1"
   inkscape:current-layer="svg2" />
	<path
   d="m 0.65765066,7.4819674 27.55315834,0 0,5.9042486 -27.55315834,0 z M 32.146974,1.5779147 l 43.297626,0 0,17.7127463 -43.297626,0 z m 3.936166,3.9361658 0,9.8404145 35.425295,0 0,-9.8404145 z m 1.968083,5.9040525 1.968082,0 0,1.968083 -1.968082,0 z m 3.936166,0 1.968084,0 0,1.968083 -1.968084,0 z m 3.936166,0 1.968084,0 0,1.968083 -1.968084,0 z"
   id="path4"
   inkscape:connector-curvature="0"
   style="fill:#000000;fill-opacity:1;stroke-width:0.2;stroke-linejoin:round"
   sodipodi:nodetypes="cccccccccccccccccccccccccccccc" />
<path
   d="m 0.65765066,34.892503 27.55315834,0 0,5.904249 -27.55315834,0 z m 31.48932334,-5.904052 43.297626,0 0,17.712746 -43.297626,0 z m 3.936166,3.936167 0,9.840413 35.425295,0 0,-9.840413 z m 1.968083,5.904051 1.968082,0 0,1.968083 -1.968082,0 z m 3.936166,0 1.968084,0 0,1.968083 -1.968084,0 z m 3.936166,0 1.968084,0 0,1.968083 -1.968084,0 z"
   id="path4-1"
   inkscape:connector-curvature="0"
   style="fill:#000000;fill-opacity:1;stroke-width:0.2;stroke-linejoin:round"
   sodipodi:nodetypes="cccccccccccccccccccccccccccccc" /><path
   d="m 0.65765066,62.303042 27.55315834,0 0,5.904247 -27.55315834,0 z M 32.146974,56.39899 l 43.297626,0 0,17.712745 -43.297626,0 z m 3.936166,3.936165 0,9.840415 35.425295,0 0,-9.840415 z m 1.968083,5.904053 1.968082,0 0,1.968081 -1.968082,0 z m 3.936166,0 1.968084,0 0,1.968081 -1.968084,0 z m 3.936166,0 1.968084,0 0,1.968081 -1.968084,0 z"
   id="path4-7"
   inkscape:connector-curvature="0"
   style="fill:#000000;fill-opacity:1;stroke-width:0.2;stroke-linejoin:round"
   sodipodi:nodetypes="cccccccccccccccccccccccccccccc" /></svg>