<?xml version="1.0" encoding="UTF-8" standalone="no"?>
<svg
   xmlns:dc="http://purl.org/dc/elements/1.1/"
   xmlns:cc="http://creativecommons.org/ns#"
   xmlns:rdf="http://www.w3.org/1999/02/22-rdf-syntax-ns#"
   xmlns:svg="http://www.w3.org/2000/svg"
   xmlns="http://www.w3.org/2000/svg"
   xmlns:sodipodi="http://sodipodi.sourceforge.net/DTD/sodipodi-0.dtd"
   xmlns:inkscape="http://www.inkscape.org/namespaces/inkscape"
   version="1.1"
   width="76"
   height="76"
   viewBox="0 0 76.00 76.00"
   enable-background="new 0 0 76.00 76.00"
   xml:space="preserve"
   id="svg2"
   inkscape:version="0.48.4 r9939"
   sodipodi:docname="appbar.user.svg"><metadata
   id="metadata10"><rdf:RDF><cc:Work
       rdf:about=""><dc:format>image/svg+xml</dc:format><dc:type
         rdf:resource="http://purl.org/dc/dcmitype/StillImage" /></cc:Work></rdf:RDF></metadata><defs
   id="defs8" /><sodipodi:namedview
   pagecolor="#ffffff"
   bordercolor="#666666"
   borderopacity="1"
   objecttolerance="10"
   gridtolerance="10"
   guidetolerance="10"
   inkscape:pageopacity="0"
   inkscape:pageshadow="2"
   inkscape:window-width="831"
   inkscape:window-height="837"
   id="namedview6"
   showgrid="false"
   inkscape:zoom="3.1052632"
   inkscape:cx="38"
   inkscape:cy="38"
   inkscape:window-x="0"
   inkscape:window-y="0"
   inkscape:window-maximized="0"
   inkscape:current-layer="svg2" />
	<path
   d="m 38.161017,0.3220339 c 11.130364,0 15.900491,6.3602364 14.295117,19.7099651 1.434252,0.82247 2.400328,2.368794 2.400328,4.140671 0,2.168148 -1.446504,3.998471 -3.427261,4.578518 -0.827492,2.949244 -2.112514,5.560061 -3.72793,7.648673 l 0,10.033335 c 5.300164,1.060073 9.540254,1.590109 15.900491,4.770127 6.360035,3.180219 8.480181,6.095319 12.720272,10.335409 l 0,15.105336 -76.322034,0 0,-15.105336 c 4.2400907,-4.24009 6.3602364,-7.15519 12.720272,-10.335409 6.360236,-3.180018 10.600327,-3.710054 15.900491,-4.770127 l 0,-10.033335 c -1.615416,-2.088612 -2.900438,-4.699429 -3.72793,-7.648673 -1.980758,-0.580047 -3.427261,-2.41037 -3.427261,-4.578518 0,-1.771877 0.966076,-3.318201 2.400328,-4.140671 C 22.260526,6.6822703 27.030653,0.3220339 38.161017,0.3220339 z"
   id="path4"
   inkscape:connector-curvature="0"
   style="fill:#000000;fill-opacity:1;stroke-width:0.2;stroke-linejoin:round" />
</svg>