<?xml version="1.0" encoding="UTF-8" standalone="no"?>
<svg
   xmlns:dc="http://purl.org/dc/elements/1.1/"
   xmlns:cc="http://creativecommons.org/ns#"
   xmlns:rdf="http://www.w3.org/1999/02/22-rdf-syntax-ns#"
   xmlns:svg="http://www.w3.org/2000/svg"
   xmlns="http://www.w3.org/2000/svg"
   xmlns:sodipodi="http://sodipodi.sourceforge.net/DTD/sodipodi-0.dtd"
   xmlns:inkscape="http://www.inkscape.org/namespaces/inkscape"
   version="1.1"
   width="76"
   height="76"
   viewBox="0 0 76.00 76.00"
   enable-background="new 0 0 76.00 76.00"
   xml:space="preserve"
   id="svg2"
   inkscape:version="0.48.4 r9939"
   sodipodi:docname="appbar.magnify.svg"><metadata
   id="metadata10"><rdf:RDF><cc:Work
       rdf:about=""><dc:format>image/svg+xml</dc:format><dc:type
         rdf:resource="http://purl.org/dc/dcmitype/StillImage" /></cc:Work></rdf:RDF></metadata><defs
   id="defs8" /><sodipodi:namedview
   pagecolor="#ffffff"
   bordercolor="#666666"
   borderopacity="1"
   objecttolerance="10"
   gridtolerance="10"
   guidetolerance="10"
   inkscape:pageopacity="0"
   inkscape:pageshadow="2"
   inkscape:window-width="640"
   inkscape:window-height="480"
   id="namedview6"
   showgrid="false"
   inkscape:zoom="3.1052632"
   inkscape:cx="38"
   inkscape:cy="38"
   inkscape:window-x="0"
   inkscape:window-y="0"
   inkscape:window-maximized="0"
   inkscape:current-layer="svg2" />
	<path
   d="m 47.280194,0.10169492 c 15.824161,0 28.652009,12.82784808 28.652009,28.65200908 0,15.82416 -12.827848,28.652009 -28.652009,28.652009 -5.419584,0 -10.487782,-1.504803 -14.899044,-4.028244 L 11.69417,74.064678 c -2.6854955,2.685267 -7.0394549,2.685267 -9.7249504,0 -2.68526626,-2.685495 -2.68526626,-7.039454 0,-9.72495 L 22.747428,43.563355 c -2.614439,-4.321869 -4.119243,-9.390067 -4.119243,-14.809651 0,-15.824161 12.827849,-28.65200908 28.652009,-28.65200908 z m 0,9.16864288 c -10.760319,0 -19.483366,8.7230472 -19.483366,19.4833662 0,10.760319 8.723047,19.483367 19.483366,19.483367 10.760319,0 19.483367,-8.723048 19.483367,-19.483367 0,-10.760319 -8.723048,-19.4833662 -19.483367,-19.4833662 z"
   id="path4"
   inkscape:connector-curvature="0"
   style="fill:#000000;fill-opacity:1;stroke-width:0.2;stroke-linejoin:round" />
</svg>