<?xml version="1.0" encoding="UTF-8" standalone="no"?>
<svg
   xmlns:dc="http://purl.org/dc/elements/1.1/"
   xmlns:cc="http://creativecommons.org/ns#"
   xmlns:rdf="http://www.w3.org/1999/02/22-rdf-syntax-ns#"
   xmlns:svg="http://www.w3.org/2000/svg"
   xmlns="http://www.w3.org/2000/svg"
   xmlns:sodipodi="http://sodipodi.sourceforge.net/DTD/sodipodi-0.dtd"
   xmlns:inkscape="http://www.inkscape.org/namespaces/inkscape"
   version="1.1"
   width="76"
   height="76"
   viewBox="0 0 76.00 76.00"
   enable-background="new 0 0 76.00 76.00"
   xml:space="preserve"
   id="svg2"
   inkscape:version="0.48.4 r9939"
   sodipodi:docname="appbar.page.code.svg"><metadata
   id="metadata10"><rdf:RDF><cc:Work
       rdf:about=""><dc:format>image/svg+xml</dc:format><dc:type
         rdf:resource="http://purl.org/dc/dcmitype/StillImage" /></cc:Work></rdf:RDF></metadata><defs
   id="defs8" /><sodipodi:namedview
   pagecolor="#ffffff"
   bordercolor="#666666"
   borderopacity="1"
   objecttolerance="10"
   gridtolerance="10"
   guidetolerance="10"
   inkscape:pageopacity="0"
   inkscape:pageshadow="2"
   inkscape:window-width="640"
   inkscape:window-height="480"
   id="namedview6"
   showgrid="false"
   inkscape:zoom="3.1052632"
   inkscape:cx="38"
   inkscape:cy="38"
   inkscape:window-x="0"
   inkscape:window-y="0"
   inkscape:window-maximized="0"
   inkscape:current-layer="svg2" />
	<path
   d="m 27.623757,51.600853 1.429877,0 1.962275,-0.23823 0.365406,-0.300091 c 0.362117,-0.35274 0.623052,-0.803042 0.782804,-1.351234 l 0.239548,-1.973299 0,-3.867789 c 0,-1.510986 0.173901,-2.839516 0.521869,-3.985753 0.347967,-1.146402 0.891225,-2.100803 1.630101,-2.863371 0.73756,-0.761416 1.677978,-1.336263 2.821747,-1.724703 l 1.174207,-0.500317 c 1.146402,-0.388604 2.524946,-0.582743 4.135962,-0.582743 l 1.866029,0 0,4.11803 -1.168448,0 0,0.498507 -1.365547,0 -1.721247,0.232308 -0.434837,0.34879 c -0.405058,0.381366 -0.716008,0.884151 -0.933015,1.508519 -0.216841,0.624367 -0.325263,1.398945 -0.325263,2.323569 l 0,3.846401 -0.278868,2.820596 c -0.185747,0.779184 -0.471854,1.428559 -0.857827,1.948125 -0.386137,0.519566 -0.877076,0.92232 -1.472816,1.208263 l -0.854537,0.331351 -0.313911,0.167156 -0.428256,0.184266 c 1.339389,0.247773 2.354171,0.849601 3.044513,1.805319 0.774413,1.072366 1.161702,2.719084 1.161702,4.94032 l 0,5.719504 c 0,0.972336 0.108427,1.781463 0.325263,2.427219 0.217007,0.645921 0.527957,1.164171 0.933015,1.555078 0.405222,0.390744 0.886619,0.66846 1.444189,0.832821 l 1.880342,0.24662 1.365548,0 0,4.118194 -1.168448,0 0,0.498343 -1.865864,0 c -3.059977,0 -5.34439,-0.744634 -6.852908,-2.234232 -1.508519,-1.489434 -2.262695,-3.852324 -2.262695,-7.088672 l 0,-5.70519 c 0,-1.539614 -0.347969,-2.699012 -1.043904,-3.478197 -0.695771,-0.779349 -1.854019,-1.168941 -3.474577,-1.168941 l -1.429877,0 0,-4.118194 1.168448,0 0,-0.498343 z m 28.855165,-17.38753 c 3.06952,0 5.357387,0.730486 6.863439,2.191292 1.506215,1.460971 2.25924,3.783224 2.25924,6.967253 l 0,3.69619 c 0,1.510987 0.344347,2.644063 1.033044,3.399555 0.688862,0.755494 1.843489,1.13324 3.464048,1.13324 l 1.451264,0 0,4.118029 -1.168448,0 0,0.498508 -1.451264,0 -1.941545,0.238888 -0.375443,0.317201 c -0.355043,0.359814 -0.612522,0.820974 -0.77211,1.383481 l -0.239546,2.009 0,5.905416 c 0,1.54422 -0.173902,2.896769 -0.52187,4.057321 -0.347968,1.16055 -0.890073,2.129266 -1.626482,2.906312 -0.736408,0.77688 -1.680116,1.364231 -2.875053,1.777185 l -1.124519,0.483535 c -1.151173,0.397984 -2.532186,0.596893 -4.143202,0.596893 l -1.858789,0 0,-4.11803 1.168282,0 0,-0.498343 1.3871,0 1.697391,-0.224081 0.44076,-0.367875 c 0.402755,-0.397983 0.712552,-0.916397 0.929395,-1.555078 0.217007,-0.638682 0.325428,-1.429877 0.325428,-2.373584 l 0,-5.855402 0.278703,-2.891998 c 0.185911,-0.803041 0.468399,-1.470349 0.847297,-2.001761 0.378899,-0.531411 0.866218,-0.940253 1.462124,-1.226196 l 0.857332,-0.332173 0.31095,-0.166169 0.432204,-0.185912 C 62.243835,53.843476 61.230039,53.249381 60.54743,52.313734 59.782559,51.26506 59.400042,49.654208 59.400042,47.480684 l 0,-3.674803 c 0,-0.953251 -0.108427,-1.749216 -0.325428,-2.387897 -0.216843,-0.638681 -0.52664,-1.148705 -0.929395,-1.530071 -0.402754,-0.381202 -0.881683,-0.652995 -1.436951,-0.815051 l -1.869647,-0.243002 -1.386935,0 0,-4.11803 1.168282,0 0,-0.498507 1.858954,0 z M 3.6618583,0.34890339 l 37.7718597,0 19.537196,19.53719661 0,11.722318 -5.209973,0 1.64e-4,-5.209973 -20.839732,0 0,-20.8397323 -26.04954,1.654e-4 0,57.3090559 18.885846,0 1.302536,5.209809 -25.3983567,0 0,-67.72883961 z m 36.4694897,6.51250871 0,14.3270579 14.327058,0 L 40.131348,6.8614121 z m 2.491876,56.0065219 13.789066,0 -1.953884,5.209973 -10.876172,0 -0.95901,-5.209973 z"
   id="path4"
   inkscape:connector-curvature="0"
   style="fill:#000000;fill-opacity:1;stroke-width:0.2;stroke-linejoin:round" />
</svg>