<?xml version="1.0" encoding="UTF-8" standalone="no"?>
<svg
   xmlns:dc="http://purl.org/dc/elements/1.1/"
   xmlns:cc="http://creativecommons.org/ns#"
   xmlns:rdf="http://www.w3.org/1999/02/22-rdf-syntax-ns#"
   xmlns:svg="http://www.w3.org/2000/svg"
   xmlns="http://www.w3.org/2000/svg"
   xmlns:sodipodi="http://sodipodi.sourceforge.net/DTD/sodipodi-0.dtd"
   xmlns:inkscape="http://www.inkscape.org/namespaces/inkscape"
   version="1.1"
   width="76.0106"
   height="76.0106"
   viewBox="0 0 76.01 76.01"
   enable-background="new 0 0 76.01 76.01"
   xml:space="preserve"
   id="svg2"
   inkscape:version="0.48.4 r9939"
   sodipodi:docname="appbar.form.diagram.svg"><metadata
   id="metadata10"><rdf:RDF><cc:Work
       rdf:about=""><dc:format>image/svg+xml</dc:format><dc:type
         rdf:resource="http://purl.org/dc/dcmitype/StillImage" /><dc:title /></cc:Work></rdf:RDF></metadata><defs
   id="defs8" /><sodipodi:namedview
   pagecolor="#ffffff"
   bordercolor="#666666"
   borderopacity="1"
   objecttolerance="10"
   gridtolerance="10"
   guidetolerance="10"
   inkscape:pageopacity="0"
   inkscape:pageshadow="2"
   inkscape:window-width="1920"
   inkscape:window-height="1017"
   id="namedview6"
   showgrid="false"
   inkscape:zoom="3.1048302"
   inkscape:cx="199.97249"
   inkscape:cy="-7.7824219"
   inkscape:window-x="-8"
   inkscape:window-y="-8"
   inkscape:window-maximized="1"
   inkscape:current-layer="svg2" />
	
<path
   style="fill:#000000;fill-opacity:1;stroke-width:0.2;stroke-linejoin:round"
   d="M 7.21875 -0.03125 L 7.21875 63.6875 L 52.0625 63.6875 L 48.3125 58.78125 L 12.09375 58.78125 L 12.09375 4.875 L 36.59375 4.875 L 36.59375 24.46875 L 56.1875 24.46875 L 56.1875 26.03125 L 61.09375 26.09375 L 61.09375 18.34375 L 42.71875 -0.03125 L 7.21875 -0.03125 z M 41.5 6.09375 L 54.96875 19.59375 L 41.5 19.59375 L 41.5 6.09375 z M 63.21875 24.34375 L 63.21875 28.375 C 60.978872 28.935034 58.758328 29.491807 56.40625 31.84375 C 54.051121 34.199007 51.555578 38.34597 49.3125 41.09375 C 47.069422 43.84153 43.050076 45.185406 41.03125 46.53125 L 39 46.53125 L 39 42.5 L 26.90625 42.5 L 26.90625 54.625 L 39 54.625 L 39 50.59375 L 41.03125 50.59375 C 43.050076 51.939595 47.069422 53.28347 49.3125 56.03125 C 51.555578 58.779031 54.051121 62.925993 56.40625 65.28125 C 58.761509 67.636509 61.006932 68.189201 63.25 68.75 L 63.25 72.78125 L 75.34375 72.78125 L 75.34375 60.6875 L 63.25 60.6875 L 63.25 64.71875 C 61.053843 64.158078 58.841108 63.605259 56.5 61.25 C 54.158772 58.894742 51.672778 54.716403 49.40625 51.96875 C 48.982997 51.455502 48.565603 51.01827 48.15625 50.59375 L 63.25 50.59375 L 63.25 54.625 L 75.34375 54.625 L 75.34375 42.5 L 63.25 42.5 L 63.25 46.53125 L 48.15625 46.53125 L 49.40625 45.15625 C 51.672778 42.408469 54.158772 38.230258 56.5 35.875 C 58.837788 33.523057 61.025663 32.966284 63.21875 32.40625 L 63.21875 36.4375 L 75.34375 36.4375 L 75.34375 24.34375 L 63.21875 24.34375 z "
   transform="scale(0.99999214,0.99999214)"
   id="path4" /></svg>