<?xml version="1.0" encoding="UTF-8" standalone="no"?>
<svg
   xmlns:dc="http://purl.org/dc/elements/1.1/"
   xmlns:cc="http://creativecommons.org/ns#"
   xmlns:rdf="http://www.w3.org/1999/02/22-rdf-syntax-ns#"
   xmlns:svg="http://www.w3.org/2000/svg"
   xmlns="http://www.w3.org/2000/svg"
   xmlns:sodipodi="http://sodipodi.sourceforge.net/DTD/sodipodi-0.dtd"
   xmlns:inkscape="http://www.inkscape.org/namespaces/inkscape"
   version="1.1"
   width="76.0106"
   height="76.0106"
   viewBox="0 0 76.01 76.01"
   enable-background="new 0 0 76.01 76.01"
   xml:space="preserve"
   id="svg2"
   inkscape:version="0.48.4 r9939"
   sodipodi:docname="appbar.diagram.svg"><metadata
   id="metadata10"><rdf:RDF><cc:Work
       rdf:about=""><dc:format>image/svg+xml</dc:format><dc:type
         rdf:resource="http://purl.org/dc/dcmitype/StillImage" /></cc:Work></rdf:RDF></metadata><defs
   id="defs8" /><sodipodi:namedview
   pagecolor="#ffffff"
   bordercolor="#666666"
   borderopacity="1"
   objecttolerance="10"
   gridtolerance="10"
   guidetolerance="10"
   inkscape:pageopacity="0"
   inkscape:pageshadow="2"
   inkscape:window-width="640"
   inkscape:window-height="480"
   id="namedview6"
   showgrid="false"
   inkscape:zoom="3.1048302"
   inkscape:cx="38.005299"
   inkscape:cy="38.005299"
   inkscape:window-x="0"
   inkscape:window-y="0"
   inkscape:window-maximized="0"
   inkscape:current-layer="svg2" />
	<path
   d="m 0.00189989,28.50595 19.00170011,0 0,6.3341 3.16725,0 c 3.16705,-2.1113 9.50055,-4.2226 13.019384,-8.533196 3.518832,-4.310596 7.38965,-10.820488 11.084274,-14.515312 3.689826,-3.689626 7.20406,-4.571984 10.717892,-5.4505422 l 0,-6.3440998 19.001902,0 0,19.0017 -19.001902,0 0,-6.3237 c -3.440436,0.878558 -6.881074,1.760916 -10.5485,5.450542 -3.672826,3.694824 -7.57304,10.204716 -11.128672,14.515312 l -1.958308,2.199296 23.65008,0 0,-6.3339 19.0017,0 0,19.0017 -19.0017,0 0,-6.3339 -23.64988,0 c 0.64217,0.665968 1.29414,1.394134 1.958108,2.199296 3.555632,4.310396 7.455846,10.820288 11.128672,14.515112 3.672626,3.694826 7.117864,4.574584 10.5631,5.454142 l 0,-6.3339 19.0017,0 0,19.0019 -19.0017,0 0,-6.3339 C 53.488166,68.796842 49.969334,67.917084 46.274508,64.222258 42.579884,60.527434 38.709066,54.017742 35.190234,49.707146 31.6714,45.39655 25.3379,43.28525 22.17085,41.17395 l -3.16725,0 0,6.3339 -19.00170011,0 0,-19.0019 z"
   id="path4"
   inkscape:connector-curvature="0"
   style="fill:#000000;fill-opacity:1;stroke-width:0.2;stroke-linejoin:round" />
</svg>