<?xml version="1.0" encoding="UTF-8" standalone="no"?>
<svg
   xmlns:dc="http://purl.org/dc/elements/1.1/"
   xmlns:cc="http://creativecommons.org/ns#"
   xmlns:rdf="http://www.w3.org/1999/02/22-rdf-syntax-ns#"
   xmlns:svg="http://www.w3.org/2000/svg"
   xmlns="http://www.w3.org/2000/svg"
   xmlns:sodipodi="http://sodipodi.sourceforge.net/DTD/sodipodi-0.dtd"
   xmlns:inkscape="http://www.inkscape.org/namespaces/inkscape"
   version="1.1"
   width="76"
   height="76"
   viewBox="0 0 76.00 76.00"
   enable-background="new 0 0 76.00 76.00"
   xml:space="preserve"
   id="svg2"
   inkscape:version="0.48.4 r9939"
   sodipodi:docname="appbar.form.variables.svg"><metadata
   id="metadata10"><rdf:RDF><cc:Work
       rdf:about=""><dc:format>image/svg+xml</dc:format><dc:type
         rdf:resource="http://purl.org/dc/dcmitype/StillImage" /><dc:title></dc:title></cc:Work></rdf:RDF></metadata><defs
   id="defs8" /><sodipodi:namedview
   pagecolor="#ffffff"
   bordercolor="#666666"
   borderopacity="1"
   objecttolerance="10"
   gridtolerance="10"
   guidetolerance="10"
   inkscape:pageopacity="0"
   inkscape:pageshadow="2"
   inkscape:window-width="1920"
   inkscape:window-height="1017"
   id="namedview6"
   showgrid="false"
   inkscape:zoom="1.0978763"
   inkscape:cx="456.77057"
   inkscape:cy="3.312769"
   inkscape:window-x="1912"
   inkscape:window-y="-8"
   inkscape:window-maximized="1"
   inkscape:current-layer="svg2" />
	<path
   d="m 5.6464891,0.25423729 43.5060529,0 21.753027,21.75302671 0,54.382567 -65.2590799,0 0,-76.13559371 z m 7.2510089,7.25100881 0,61.6335749 50.757062,0 0,-38.067796 -23.565779,0 0,-23.5657789 -27.191283,0 z m 34.442293,0 0,16.3147709 16.314769,0 L 47.339791,7.5052461 z"
   id="path4"
   inkscape:connector-curvature="0"
   style="fill:#000000;fill-opacity:1;stroke-width:0.2;stroke-linejoin:round" />
<rect
   style="fill:#ffffff;fill-opacity:1;fill-rule:evenodd;stroke:none"
   id="rect2989"
   width="15.135593"
   height="32.847458"
   x="59.576271"
   y="33.81356" /><path
   style="fill:#000000;fill-opacity:1;stroke-width:0.2;stroke-linejoin:round"
   inkscape:connector-curvature="0"
   d="m 35.874036,36.370679 35.999901,0 c 1.6569,0 3,1.3431 3,3 l 0,22 c 0,1.6568 -1.3432,3 -3,3 l -35.999901,0 c -1.656904,0 -3.000004,-1.3432 -3.000004,-3 l 0,-22 c 0,-1.6568 1.3431,-3 3.000004,-3 z m 2,6.9999 0,2 29.000001,0 0,-2 -29.000001,0 z m 0,6 0,2 22,0 0,-2 -22,0 z m 0,6 0,2 29.000001,0 0,-2 -29.000001,0 z"
   id="path4-1" /></svg>