<?xml version="1.0" encoding="UTF-8" standalone="no"?>
<svg
   xmlns:dc="http://purl.org/dc/elements/1.1/"
   xmlns:cc="http://creativecommons.org/ns#"
   xmlns:rdf="http://www.w3.org/1999/02/22-rdf-syntax-ns#"
   xmlns:svg="http://www.w3.org/2000/svg"
   xmlns="http://www.w3.org/2000/svg"
   xmlns:sodipodi="http://sodipodi.sourceforge.net/DTD/sodipodi-0.dtd"
   xmlns:inkscape="http://www.inkscape.org/namespaces/inkscape"
   version="1.1"
   width="76"
   height="76"
   viewBox="0 0 76.00 76.00"
   enable-background="new 0 0 76.00 76.00"
   xml:space="preserve"
   id="svg2"
   inkscape:version="0.48.4 r9939"
   sodipodi:docname="appbar.interface.textbox.remove.watch.svg"><metadata
   id="metadata10"><rdf:RDF><cc:Work
       rdf:about=""><dc:format>image/svg+xml</dc:format><dc:type
         rdf:resource="http://purl.org/dc/dcmitype/StillImage" /></cc:Work></rdf:RDF></metadata><defs
   id="defs8" /><sodipodi:namedview
   pagecolor="#ffffff"
   bordercolor="#666666"
   borderopacity="1"
   objecttolerance="10"
   gridtolerance="10"
   guidetolerance="10"
   inkscape:pageopacity="0"
   inkscape:pageshadow="2"
   inkscape:window-width="709"
   inkscape:window-height="653"
   id="namedview6"
   showgrid="false"
   inkscape:zoom="3.1052633"
   inkscape:cx="23.84333"
   inkscape:cy="19.415596"
   inkscape:window-x="2673"
   inkscape:window-y="195"
   inkscape:window-maximized="0"
   inkscape:current-layer="svg2" />
	
<path
   d="m 0.18624067,26.246137 76.08215433,0 0,46.192725 -76.08215433,0 0,-46.192725 z m 5.43448853,5.43449 0,35.323747 65.2131768,0 0,-35.323747 -65.2131768,0 z m 17.8612028,27.172099 -3.80416,0 0,-1.890153 -0.05149,0 c -0.858583,1.429199 -2.12921,2.143799 -3.812054,2.143799 -1.241624,0 -2.218449,-0.34666 -2.930301,-1.040151 -0.712026,-0.69349 -1.067952,-1.618659 -1.067952,-2.77585 0,-2.443606 1.470041,-3.85427 4.410298,-4.231993 l 3.475348,-0.455805 c 0,-1.262733 -0.756989,-1.8941 -2.270621,-1.8941 -1.524271,0 -2.973376,0.422685 -4.346972,1.268054 l 0,-2.9799 2.26856,-0.752868 2.621227,-0.324865 c 3.672016,0 5.508111,1.796279 5.508111,5.389182 l 0,7.54465 z m -3.780305,-5.139485 0,-0.828207 -2.36964,0.289341 c -1.310443,0.158571 -1.965491,0.714599 -1.965491,1.668255 0,0.43058 0.159085,0.783932 0.477428,1.060058 0.318344,0.275955 0.749608,0.414104 1.293795,0.414104 0.75819,0 1.375141,-0.245751 1.850511,-0.737081 0.475541,-0.491329 0.713397,-1.1136 0.713397,-1.86647 z m 10.679172,3.562356 -0.05149,0 0,1.577129 -3.80416,0 0,-18.766808 3.80416,0 0,8.09553 0.05149,0 c 0.97734,-1.508313 2.366896,-2.262554 4.168667,-2.262554 1.65367,0 2.927729,0.556715 3.821835,1.670143 0.894278,1.113602 1.341332,2.635815 1.341332,4.566982 0,2.094889 -0.521704,3.777044 -1.565115,5.046299 -1.043584,1.269426 -2.438287,1.904054 -4.184628,1.904054 -1.579703,0 -2.77379,-0.610258 -3.582091,-1.830775 z m -0.111033,-5.230612 0,1.260159 c 0,0.795086 0.237856,1.453567 0.713397,1.975273 0.47537,0.521878 1.085628,0.78273 1.830603,0.78273 0.900799,0 1.599611,-0.334818 2.09626,-1.004626 0.49665,-0.669637 0.744974,-1.618659 0.744974,-2.84707 0,-1.019728 -0.227216,-1.816187 -0.681478,-2.389376 -0.454432,-0.573362 -1.104332,-0.859956 -1.949701,-0.859956 -0.792512,0 -1.44962,0.284706 -1.971326,0.853949 -0.521705,0.569242 -0.782729,1.312329 -0.782729,2.228917 z m 21.362463,6.264927 c -0.863903,0.530973 -2.112048,0.79646 -3.744609,0.79646 -1.907314,0 -3.450807,-0.585203 -4.630307,-1.755437 -1.1795,-1.170232 -1.769337,-2.68129 -1.769337,-4.533173 0,-2.13453 0.632054,-3.81806 1.896159,-5.050418 1.263935,-1.232357 2.955358,-1.84845 5.074101,-1.84845 1.460774,0 2.518944,0.205936 3.173993,0.618152 l 0,3.439481 c -0.779297,-0.676329 -1.648349,-1.014408 -2.607326,-1.014408 -1.070011,0 -1.917267,0.319028 -2.542112,0.956917 -0.624673,0.63806 -0.937182,1.518438 -0.937182,2.641134 0,1.090948 0.298607,1.947643 0.895651,2.569743 0.597043,0.622099 1.418558,0.933234 2.464715,0.933234 0.929975,0 1.839012,-0.338251 2.726254,-1.014408 l 0,3.261173 z m 2.219136,5.977303 0,-29.889431 3.396405,0 0,29.889431 -3.396405,0 z"
   id="path4"
   inkscape:connector-curvature="0"
   style="fill:#000000;fill-opacity:1;stroke-width:0.2;stroke-linejoin:round" /><g
   id="g2993"
   transform="translate(1.2881353,-29.627119)"><path
     d="m 69.881357,54.745762 c 0,8.537012 -6.488077,15.457627 -14.491525,15.457627 -8.003449,0 -14.491526,-6.920615 -14.491526,-15.457627 0,-8.537012 6.488077,-15.457627 14.491526,-15.457627 8.003448,0 14.491525,6.920615 14.491525,15.457627 z"
     sodipodi:ry="15.457627"
     sodipodi:rx="14.491526"
     sodipodi:cy="54.745762"
     sodipodi:cx="55.389832"
     id="path2991"
     style="fill:#ffffff;fill-opacity:1;stroke:none"
     sodipodi:type="arc" /><path
     id="path4-1-1"
     d="m 71.24995,55.014158 c 0,8.744504 -7.0888,15.833304 -15.8333,15.833304 -8.7445,0 -15.833303,-7.0888 -15.833303,-15.833304 0,-8.2102 6.248903,-14.9608 14.250003,-15.7552 l 0,-1.6615 -4.75,0 0,-4.75 12.6666,0 0,4.75 -4.75,0 0,1.6615 c 3.1845,0.3162 6.0914,1.5759 8.4372,3.4955 l 1.1424,-1.1424 -2.2392,-2.2392 3.3588,-3.3587 6.7175,6.7175 -3.3588,3.3587 -2.2391,-2.2391 -1.1424,1.1424 c 2.2336,2.7294 3.5736,6.2185 3.5736,10.0205 z m -27.6037,-1.5833 3.8537,0 0,3.166604 -3.8537,0 c 0.7051,5.2919 4.8952,9.482 10.187,10.1871 l 0,-3.8538 3.1667,0 0,3.8537 c 5.2919,-0.705 9.482,-4.8951 10.187,-10.187 l -3.8537,0 0,-3.166604 3.8537,0 c -0.7051,-5.2919 -4.8952,-9.482 -10.187,-10.187 l 0,3.8536 -3.1667,0 0,-3.8537 c -5.2918,0.7051 -9.4819,4.8952 -10.187,10.1871 z m 11.7704,-1.5834 c 1.7489,0 3.1666,1.4178 3.1666,3.1667 0,1.748904 -1.4177,3.166704 -3.1666,3.166704 l -6.3334,4.75 3.1667,-7.916704 c 0,-1.7489 1.4178,-3.1667 3.1667,-3.1667 z"
     inkscape:connector-curvature="0"
     style="fill:#000000;fill-opacity:1;stroke-width:0.2;stroke-linejoin:round" /></g><g
   id="g3773"
   transform="matrix(1.293504,0,0,1.293504,73.727437,-5.4482348)"><path
     sodipodi:nodetypes="ccccccccccccc"
     style="fill:#ffffff;fill-opacity:1;stroke-width:0.2;stroke-linejoin:round"
     inkscape:connector-curvature="0"
     id="path4-7-4"
     d="m -52.786311,29.721016 6.66552,-6.836835 -6.66552,-6.893763 5.439807,-5.325728 6.779907,7.064548 6.637588,-7.064548 5.581902,5.468048 -7.207261,6.658082 7.207261,6.617092 -5.581902,5.695758 -6.575347,-6.773841 -6.870612,6.773841 z" /><path
     sodipodi:nodetypes="ccccccccccccc"
     style="fill:#000000;fill-opacity:1;stroke-width:0.2;stroke-linejoin:round"
     inkscape:connector-curvature="0"
     id="path4-7"
     d="m -51.851316,29.686568 6.659912,-6.846435 -6.597671,-6.628593 4.567145,-5.064872 6.628593,6.628594 6.628594,-6.348511 4.784787,4.784789 -7.250956,6.628593 7.219836,6.472991 -5.03375,4.598066 -6.348511,-6.410752 -6.784195,6.597474 z" /><path
     sodipodi:nodetypes="ccccccccccccc"
     style="fill:#ffffff;fill-opacity:1;stroke-width:0.2;stroke-linejoin:round"
     inkscape:connector-curvature="0"
     id="path4-7-1"
     d="m -50.297584,29.270822 6.428158,-6.399517 -6.399694,-6.342588 3.343443,-3.172483 6.314124,6.114878 6.541838,-6.285662 3.144016,3.115555 -6.72999,6.5703 6.72999,6.427981 -3.400192,3.257872 -6.285662,-6.257197 -6.42798,6.257197 z" /></g></svg>