<?xml version="1.0" encoding="UTF-8" standalone="no"?>
<svg
   xmlns:dc="http://purl.org/dc/elements/1.1/"
   xmlns:cc="http://creativecommons.org/ns#"
   xmlns:rdf="http://www.w3.org/1999/02/22-rdf-syntax-ns#"
   xmlns:svg="http://www.w3.org/2000/svg"
   xmlns="http://www.w3.org/2000/svg"
   xmlns:sodipodi="http://sodipodi.sourceforge.net/DTD/sodipodi-0.dtd"
   xmlns:inkscape="http://www.inkscape.org/namespaces/inkscape"
   version="1.1"
   width="76"
   height="76"
   viewBox="0 0 76.00 76.00"
   enable-background="new 0 0 76.00 76.00"
   xml:space="preserve"
   id="svg2"
   inkscape:version="0.48.4 r9939"
   sodipodi:docname="appbar.list.delete.svg"><metadata
   id="metadata10"><rdf:RDF><cc:Work
       rdf:about=""><dc:format>image/svg+xml</dc:format><dc:type
         rdf:resource="http://purl.org/dc/dcmitype/StillImage" /></cc:Work></rdf:RDF></metadata><defs
   id="defs8" /><sodipodi:namedview
   pagecolor="#ffffff"
   bordercolor="#666666"
   borderopacity="1"
   objecttolerance="10"
   gridtolerance="10"
   guidetolerance="10"
   inkscape:pageopacity="0"
   inkscape:pageshadow="2"
   inkscape:window-width="640"
   inkscape:window-height="480"
   id="namedview6"
   showgrid="false"
   inkscape:zoom="3.1052632"
   inkscape:cx="38"
   inkscape:cy="38"
   inkscape:window-x="884"
   inkscape:window-y="56"
   inkscape:window-maximized="0"
   inkscape:current-layer="svg2" />
	<path
   d="m 25.984831,70.441322 7.041237,-7.041038 -7.041237,-7.041237 5.135148,-5.13495 7.041038,7.041039 7.041038,-7.041039 5.134949,5.13495 -7.041038,7.041038 7.041237,7.041237 -5.135148,5.134949 -7.041038,-7.041038 -7.041038,7.041038 -5.135148,-5.134949 z M 0.3220339,5.375 l 15.9322031,0 0,15.932203 -15.9322031,0 0,-15.932203 z m 23.8981061,5.975e-4 51.779263,0 0,15.9322035 -51.779263,0 0,-15.9322035 z M 0.3220339,27.28178 l 15.9322031,0 0,15.932203 -15.9322031,0 0,-15.932203 z m 1.9915254,1.991525 0,11.949153 11.9491527,0 0,-11.949153 -11.9491527,0 z m 1.9915254,1.991526 7.9661013,0 0,7.966101 -7.9661013,0 0,-7.966101 z m 19.9152543,-3.983051 51.779661,0 0,15.932203 -51.779661,0 0,-15.932203 z"
   id="path4"
   inkscape:connector-curvature="0"
   style="fill:#000000;fill-opacity:1;stroke-width:0.2;stroke-linejoin:round" />
</svg>