<?xml version="1.0" encoding="UTF-8" standalone="no"?>
<svg
   xmlns:dc="http://purl.org/dc/elements/1.1/"
   xmlns:cc="http://creativecommons.org/ns#"
   xmlns:rdf="http://www.w3.org/1999/02/22-rdf-syntax-ns#"
   xmlns:svg="http://www.w3.org/2000/svg"
   xmlns="http://www.w3.org/2000/svg"
   xmlns:sodipodi="http://sodipodi.sourceforge.net/DTD/sodipodi-0.dtd"
   xmlns:inkscape="http://www.inkscape.org/namespaces/inkscape"
   version="1.1"
   width="76"
   height="76"
   viewBox="0 0 76.00 76.00"
   enable-background="new 0 0 76.00 76.00"
   xml:space="preserve"
   id="svg2"
   inkscape:version="0.48.4 r9939"
   sodipodi:docname="appbar.list.check.svg"><metadata
   id="metadata10"><rdf:RDF><cc:Work
       rdf:about=""><dc:format>image/svg+xml</dc:format><dc:type
         rdf:resource="http://purl.org/dc/dcmitype/StillImage" /></cc:Work></rdf:RDF></metadata><defs
   id="defs8" /><sodipodi:namedview
   pagecolor="#ffffff"
   bordercolor="#666666"
   borderopacity="1"
   objecttolerance="10"
   gridtolerance="10"
   guidetolerance="10"
   inkscape:pageopacity="0"
   inkscape:pageshadow="2"
   inkscape:window-width="640"
   inkscape:window-height="480"
   id="namedview6"
   showgrid="false"
   inkscape:zoom="3.1052632"
   inkscape:cx="38"
   inkscape:cy="38"
   inkscape:window-x="0"
   inkscape:window-y="0"
   inkscape:window-maximized="0"
   inkscape:current-layer="svg2" />
	<path
   d="m 24.518017,20.625998 40.852067,0 c 2.051133,0 3.713839,1.043784 3.713839,3.094917 0,2.050978 -1.662706,3.094762 -3.713839,3.094762 l -40.852067,0 c -2.051134,0 -3.713838,-1.043784 -3.713838,-3.094918 0,-2.051134 1.662704,-3.094761 3.713838,-3.094761 z m -1.57e-4,14.855197 47.660824,1.57e-4 c 2.051133,0 3.713838,1.043784 3.713838,3.094917 0,2.051134 -2.268179,2.966224 -4.319311,2.966224 l -47.660667,-1.57e-4 c -2.051134,0 -3.108522,-0.915089 -3.108522,-2.966223 0,-2.051134 1.662861,-3.094918 3.713838,-3.094918 z m 1.57e-4,14.855354 35.281152,1.57e-4 c 2.051134,0 3.71384,1.043784 3.71384,3.094761 0,2.051134 -1.662706,3.094918 -3.71384,3.094918 l -35.281152,0 c -2.051134,0 -3.713838,-1.043784 -3.713838,-3.094918 0,-2.051134 1.662704,-3.094918 3.713838,-3.094918 z m -21.6841264,0.0599 4.2329945,3.733854 7.5474579,-9.364502 3.374354,3.733854 -9.4242364,11.1215 -2.615636,0 -5.99014824,-5.88491 0,-3.339796 2.87521424,0 z m 0.3394839,-14.855354 4.2329945,3.733854 7.547458,-9.364502 3.374354,3.733854 -9.4242365,11.1215 -2.6156361,0 -5.99014815,-5.88491 0,-3.339796 2.87521425,0 z m 0,-14.855354 4.2329945,3.733698 7.547458,-9.364346 3.374354,3.733854 -9.4242365,11.1215 -2.6156361,0 -5.99014815,-5.88491 0,-3.339796 2.87521425,0 z"
   id="path4"
   inkscape:connector-curvature="0"
   style="fill:#000000;fill-opacity:1;stroke-width:0.2;stroke-linejoin:round" />
</svg>