<?xml version="1.0" encoding="UTF-8" standalone="no"?>
<svg
   xmlns:dc="http://purl.org/dc/elements/1.1/"
   xmlns:cc="http://creativecommons.org/ns#"
   xmlns:rdf="http://www.w3.org/1999/02/22-rdf-syntax-ns#"
   xmlns:svg="http://www.w3.org/2000/svg"
   xmlns="http://www.w3.org/2000/svg"
   xmlns:sodipodi="http://sodipodi.sourceforge.net/DTD/sodipodi-0.dtd"
   xmlns:inkscape="http://www.inkscape.org/namespaces/inkscape"
   version="1.1"
   width="76"
   height="76"
   viewBox="0 0 76.00 76.00"
   enable-background="new 0 0 76.00 76.00"
   xml:space="preserve"
   id="svg2"
   inkscape:version="0.48.4 r9939"
   sodipodi:docname="appbar.interface.textbox.svg"><metadata
   id="metadata10"><rdf:RDF><cc:Work
       rdf:about=""><dc:format>image/svg+xml</dc:format><dc:type
         rdf:resource="http://purl.org/dc/dcmitype/StillImage" /></cc:Work></rdf:RDF></metadata><defs
   id="defs8" /><sodipodi:namedview
   pagecolor="#ffffff"
   bordercolor="#666666"
   borderopacity="1"
   objecttolerance="10"
   gridtolerance="10"
   guidetolerance="10"
   inkscape:pageopacity="0"
   inkscape:pageshadow="2"
   inkscape:window-width="1920"
   inkscape:window-height="1017"
   id="namedview6"
   showgrid="false"
   inkscape:zoom="3.1052632"
   inkscape:cx="38"
   inkscape:cy="38"
   inkscape:window-x="-8"
   inkscape:window-y="-8"
   inkscape:window-maximized="1"
   inkscape:current-layer="svg2" />
	<path
   d="m 0.18624067,14.246137 76.08215433,0 0,46.192725 -76.08215433,0 0,-46.192725 z m 5.43448853,5.43449 0,35.323747 65.2131768,0 0,-35.323747 -65.2131768,0 z m 17.8612028,27.172099 -3.80416,0 0,-1.890153 -0.05149,0 c -0.858583,1.429199 -2.12921,2.143799 -3.812054,2.143799 -1.241624,0 -2.218449,-0.34666 -2.930301,-1.040151 -0.712026,-0.69349 -1.067952,-1.618659 -1.067952,-2.77585 0,-2.443606 1.470041,-3.85427 4.410298,-4.231993 l 3.475348,-0.455805 c 0,-1.262733 -0.756989,-1.8941 -2.270621,-1.8941 -1.524271,0 -2.973376,0.422685 -4.346972,1.268054 l 0,-2.9799 2.26856,-0.752868 2.621227,-0.324865 c 3.672016,0 5.508111,1.796279 5.508111,5.389182 l 0,7.54465 z m -3.780305,-5.139485 0,-0.828207 -2.36964,0.289341 c -1.310443,0.158571 -1.965491,0.714599 -1.965491,1.668255 0,0.43058 0.159085,0.783932 0.477428,1.060058 0.318344,0.275955 0.749608,0.414104 1.293795,0.414104 0.75819,0 1.375141,-0.245751 1.850511,-0.737081 0.475541,-0.491329 0.713397,-1.1136 0.713397,-1.86647 z m 10.679172,3.562356 -0.05149,0 0,1.577129 -3.80416,0 0,-18.766808 3.80416,0 0,8.09553 0.05149,0 c 0.97734,-1.508313 2.366896,-2.262554 4.168667,-2.262554 1.65367,0 2.927729,0.556715 3.821835,1.670143 0.894278,1.113602 1.341332,2.635815 1.341332,4.566982 0,2.094889 -0.521704,3.777044 -1.565115,5.046299 -1.043584,1.269426 -2.438287,1.904054 -4.184628,1.904054 -1.579703,0 -2.77379,-0.610258 -3.582091,-1.830775 z m -0.111033,-5.230612 0,1.260159 c 0,0.795086 0.237856,1.453567 0.713397,1.975273 0.47537,0.521878 1.085628,0.78273 1.830603,0.78273 0.900799,0 1.599611,-0.334818 2.09626,-1.004626 0.49665,-0.669637 0.744974,-1.618659 0.744974,-2.84707 0,-1.019728 -0.227216,-1.816187 -0.681478,-2.389376 -0.454432,-0.573362 -1.104332,-0.859956 -1.949701,-0.859956 -0.792512,0 -1.44962,0.284706 -1.971326,0.853949 -0.521705,0.569242 -0.782729,1.312329 -0.782729,2.228917 z m 21.362463,6.264927 c -0.863903,0.530973 -2.112048,0.79646 -3.744609,0.79646 -1.907314,0 -3.450807,-0.585203 -4.630307,-1.755437 -1.1795,-1.170232 -1.769337,-2.68129 -1.769337,-4.533173 0,-2.13453 0.632054,-3.81806 1.896159,-5.050418 1.263935,-1.232357 2.955358,-1.84845 5.074101,-1.84845 1.460774,0 2.518944,0.205936 3.173993,0.618152 l 0,3.439481 c -0.779297,-0.676329 -1.648349,-1.014408 -2.607326,-1.014408 -1.070011,0 -1.917267,0.319028 -2.542112,0.956917 -0.624673,0.63806 -0.937182,1.518438 -0.937182,2.641134 0,1.090948 0.298607,1.947643 0.895651,2.569743 0.597043,0.622099 1.418558,0.933234 2.464715,0.933234 0.929975,0 1.839012,-0.338251 2.726254,-1.014408 l 0,3.261173 z m 2.219136,5.977303 0,-29.889431 3.396405,0 0,29.889431 -3.396405,0 z"
   id="path4"
   inkscape:connector-curvature="0"
   style="fill:#000000;fill-opacity:1;stroke-width:0.2;stroke-linejoin:round" />
</svg>