<?xml version="1.0" encoding="UTF-8" standalone="no"?>
<svg
   xmlns:dc="http://purl.org/dc/elements/1.1/"
   xmlns:cc="http://creativecommons.org/ns#"
   xmlns:rdf="http://www.w3.org/1999/02/22-rdf-syntax-ns#"
   xmlns:svg="http://www.w3.org/2000/svg"
   xmlns="http://www.w3.org/2000/svg"
   xmlns:xlink="http://www.w3.org/1999/xlink"
   xmlns:sodipodi="http://sodipodi.sourceforge.net/DTD/sodipodi-0.dtd"
   xmlns:inkscape="http://www.inkscape.org/namespaces/inkscape"
   version="1.1"
   width="76"
   height="76"
   viewBox="0 0 76.00 76.00"
   enable-background="new 0 0 76.00 76.00"
   xml:space="preserve"
   id="svg2"
   inkscape:version="0.48.4 r9939"
   sodipodi:docname="appbar.toBack.svg"><metadata
   id="metadata10"><rdf:RDF><cc:Work
       rdf:about=""><dc:format>image/svg+xml</dc:format><dc:type
         rdf:resource="http://purl.org/dc/dcmitype/StillImage" /><dc:title /></cc:Work></rdf:RDF></metadata><defs
   id="defs8"><pattern
     inkscape:collect="always"
     xlink:href="#Strips1_1"
     id="pattern5187"
     patternTransform="matrix(3.5415971,2.1370427,-6.6369967,10.99911,0,0)" /><pattern
     inkscape:stockid="Stripes 1:1"
     id="Strips1_1"
     patternTransform="translate(0,0) scale(10,10)"
     height="1"
     width="2"
     patternUnits="userSpaceOnUse"
     inkscape:collect="always"><rect
       id="rect4472"
       height="2"
       width="1"
       y="-0.5"
       x="0"
       style="fill:black;stroke:none" /></pattern></defs><sodipodi:namedview
   pagecolor="#ffffff"
   bordercolor="#666666"
   borderopacity="1"
   objecttolerance="10"
   gridtolerance="10"
   guidetolerance="10"
   inkscape:pageopacity="0"
   inkscape:pageshadow="2"
   inkscape:window-width="1037"
   inkscape:window-height="752"
   id="namedview6"
   showgrid="false"
   inkscape:zoom="4.3915053"
   inkscape:cx="19.763513"
   inkscape:cy="43.692965"
   inkscape:window-x="525"
   inkscape:window-y="84"
   inkscape:window-maximized="0"
   inkscape:current-layer="svg2" />
	<path
   d="m 3.2143462,0.25423729 53.1524218,0 c 1.502496,0 2.720399,1.05073981 2.720399,2.34661011 l 0,11.5525436 c 0,1.29605 -1.217903,2.346609 -2.720399,2.346609 l -32.226272,0 c -2.658039,0 -4.813014,1.858876 -4.813014,4.151695 l 0,38.628813 c 0,1.296051 -1.217903,2.346611 -2.720399,2.346611 l -13.3927368,0 c -1.5024975,0 -2.72039947,-1.05056 -2.72039947,-2.346611 l 0,-56.6796606 c 0,-1.2960508 1.21790197,-2.34661011 2.72039947,-2.34661011 z"
   id="path4"
   inkscape:connector-curvature="0"
   style="fill:#000000;fill-opacity:1;stroke-linejoin:round"
   sodipodi:nodetypes="sssssssssssss" />
<path
   d="m 28.742636,21.872882 43.633368,0 c 1.463964,0 2.650626,1.038063 2.650626,2.318699 l 0,48.871075 c 0,1.280635 -1.186662,2.3187 -2.650626,2.3187 l -43.633368,0 c -1.463962,0 -2.650625,-1.038065 -2.650625,-2.3187 l 0,-48.871075 c 0,-1.280636 1.186663,-2.318699 2.650625,-2.318699 z"
   id="path4-1"
   inkscape:connector-curvature="0"
   style="fill:url(#pattern5187);fill-opacity:1;stroke-linejoin:round"
   sodipodi:nodetypes="sssssssss"
   inkscape:transform-center-x="-16.281433"
   inkscape:transform-center-y="0.91084941" /></svg>