<?xml version="1.0" encoding="UTF-8" standalone="no"?>
<svg
   xmlns:dc="http://purl.org/dc/elements/1.1/"
   xmlns:cc="http://creativecommons.org/ns#"
   xmlns:rdf="http://www.w3.org/1999/02/22-rdf-syntax-ns#"
   xmlns:svg="http://www.w3.org/2000/svg"
   xmlns="http://www.w3.org/2000/svg"
   xmlns:sodipodi="http://sodipodi.sourceforge.net/DTD/sodipodi-0.dtd"
   xmlns:inkscape="http://www.inkscape.org/namespaces/inkscape"
   version="1.1"
   width="76"
   height="76"
   viewBox="0 0 76.00 76.00"
   enable-background="new 0 0 76.00 76.00"
   xml:space="preserve"
   id="svg2"
   inkscape:version="0.48.4 r9939"
   sodipodi:docname="appbar.interface.textbox.watch.svg"><metadata
   id="metadata10"><rdf:RDF><cc:Work
       rdf:about=""><dc:format>image/svg+xml</dc:format><dc:type
         rdf:resource="http://purl.org/dc/dcmitype/StillImage" /></cc:Work></rdf:RDF></metadata><defs
   id="defs8" /><sodipodi:namedview
   pagecolor="#ffffff"
   bordercolor="#666666"
   borderopacity="1"
   objecttolerance="10"
   gridtolerance="10"
   guidetolerance="10"
   inkscape:pageopacity="0"
   inkscape:pageshadow="2"
   inkscape:window-width="504"
   inkscape:window-height="423"
   id="namedview6"
   showgrid="false"
   inkscape:zoom="3.1052632"
   inkscape:cx="37.803227"
   inkscape:cy="42.654387"
   inkscape:window-x="2036"
   inkscape:window-y="238"
   inkscape:window-maximized="0"
   inkscape:current-layer="svg2" />
	<path
   d="m 0.96369927,27.104606 75.31252873,0 0,45.725452 -75.31252873,0 0,-45.725452 z m 5.37951473,5.379517 0,34.966421 64.553498,0 0,-34.966421 -64.553498,0 z m 17.680523,26.897233 -3.765678,0 0,-1.871033 -0.05097,0 c -0.849897,1.414742 -2.107671,2.122113 -3.773492,2.122113 -1.229064,0 -2.196007,-0.343153 -2.900659,-1.029629 -0.704823,-0.686475 -1.057148,-1.602285 -1.057148,-2.74777 0,-2.418888 1.45517,-3.815282 4.365683,-4.189184 l 3.440193,-0.451194 c 0,-1.249959 -0.749332,-1.87494 -2.247652,-1.87494 -1.508852,0 -2.943298,0.41841 -4.302999,1.255227 l 0,-2.949756 2.245611,-0.745253 2.594712,-0.321579 c 3.634871,0 5.452393,1.778109 5.452393,5.334667 l 0,7.468331 z m -3.742064,-5.087496 0,-0.819829 -2.34567,0.286415 c -1.297186,0.156966 -1.945608,0.707369 -1.945608,1.651379 0,0.426224 0.157475,0.776002 0.472598,1.049335 0.315124,0.273164 0.742026,0.409914 1.280707,0.409914 0.750521,0 1.361231,-0.243265 1.831792,-0.729625 0.47073,-0.486358 0.706181,-1.102334 0.706181,-1.847589 z m 10.571144,3.52632 -0.05097,0 0,1.561176 -3.765679,0 0,-18.576969 3.765679,0 0,8.013639 0.05097,0 c 0.967454,-1.493056 2.342953,-2.239668 4.126498,-2.239668 1.636942,0 2.898114,0.551084 3.783174,1.653249 0.885233,1.102338 1.327764,2.609153 1.327764,4.520784 0,2.073698 -0.516426,3.738836 -1.549282,4.995252 -1.033029,1.256585 -2.413622,1.884793 -4.142298,1.884793 -1.563724,0 -2.745731,-0.604085 -3.545856,-1.812256 z m -0.109905,-5.1777 0,1.247412 c 0,0.787043 0.23545,1.438862 0.706181,1.955291 0.470561,0.5166 1.074645,0.774813 1.812085,0.774813 0.891686,0 1.58343,-0.331432 2.075055,-0.994464 0.491626,-0.662863 0.737438,-1.602285 0.737438,-2.81827 0,-1.009412 -0.224917,-1.797815 -0.674585,-2.365205 -0.449835,-0.567562 -1.093161,-0.851258 -1.929978,-0.851258 -0.784495,0 -1.434957,0.281826 -1.951384,0.845311 -0.516429,0.563484 -0.774812,1.299054 -0.774812,2.20637 z m 21.146366,6.201553 c -0.855163,0.525602 -2.090683,0.788403 -3.706729,0.788403 -1.88802,0 -3.4159,-0.579283 -4.583469,-1.73768 -1.167568,-1.158394 -1.751438,-2.654166 -1.751438,-4.487316 0,-2.112938 0.62566,-3.779438 1.876977,-4.999329 1.25115,-1.219892 2.925463,-1.829753 5.022774,-1.829753 1.445997,0 2.493463,0.203854 3.141885,0.611899 l 0,3.404689 c -0.771413,-0.669488 -1.631674,-1.004147 -2.580951,-1.004147 -1.059186,0 -1.897872,0.315802 -2.516396,0.947238 -0.618355,0.631605 -0.927702,1.503078 -0.927702,2.614417 0,1.079912 0.295587,1.927941 0.886591,2.543748 0.591003,0.615806 1.404209,0.923794 2.439783,0.923794 0.920568,0 1.820408,-0.33483 2.698675,-1.004147 l 0,3.228184 z m 2.196688,5.916839 0,-29.587078 3.362048,0 0,29.587078 -3.362048,0 z"
   id="path4"
   inkscape:connector-curvature="0"
   style="fill:#000000;fill-opacity:1;stroke-width:0.2;stroke-linejoin:round" />
<g
   id="g2993"
   transform="translate(2.0884808,-28.423825)"><path
     d="m 69.881357,54.745762 c 0,8.537012 -6.488077,15.457627 -14.491525,15.457627 -8.003449,0 -14.491526,-6.920615 -14.491526,-15.457627 0,-8.537012 6.488077,-15.457627 14.491526,-15.457627 8.003448,0 14.491525,6.920615 14.491525,15.457627 z"
     sodipodi:ry="15.457627"
     sodipodi:rx="14.491526"
     sodipodi:cy="54.745762"
     sodipodi:cx="55.389832"
     id="path2991"
     style="fill:#ffffff;fill-opacity:1;stroke:none"
     sodipodi:type="arc" /><path
     id="path4-1"
     d="m 71.24995,55.014158 c 0,8.744504 -7.0888,15.833304 -15.8333,15.833304 -8.7445,0 -15.833303,-7.0888 -15.833303,-15.833304 0,-8.2102 6.248903,-14.9608 14.250003,-15.7552 l 0,-1.6615 -4.75,0 0,-4.75 12.6666,0 0,4.75 -4.75,0 0,1.6615 c 3.1845,0.3162 6.0914,1.5759 8.4372,3.4955 l 1.1424,-1.1424 -2.2392,-2.2392 3.3588,-3.3587 6.7175,6.7175 -3.3588,3.3587 -2.2391,-2.2391 -1.1424,1.1424 c 2.2336,2.7294 3.5736,6.2185 3.5736,10.0205 z m -27.6037,-1.5833 3.8537,0 0,3.166604 -3.8537,0 c 0.7051,5.2919 4.8952,9.482 10.187,10.1871 l 0,-3.8538 3.1667,0 0,3.8537 c 5.2919,-0.705 9.482,-4.8951 10.187,-10.187 l -3.8537,0 0,-3.166604 3.8537,0 c -0.7051,-5.2919 -4.8952,-9.482 -10.187,-10.187 l 0,3.8536 -3.1667,0 0,-3.8537 c -5.2918,0.7051 -9.4819,4.8952 -10.187,10.1871 z m 11.7704,-1.5834 c 1.7489,0 3.1666,1.4178 3.1666,3.1667 0,1.748904 -1.4177,3.166704 -3.1666,3.166704 l -6.3334,4.75 3.1667,-7.916704 c 0,-1.7489 1.4178,-3.1667 3.1667,-3.1667 z"
     inkscape:connector-curvature="0"
     style="fill:#000000;fill-opacity:1;stroke-width:0.2;stroke-linejoin:round" /></g><g
   id="g3884"
   transform="matrix(2.4792008,0,0,2.4792008,-158.85258,-43.256268)"><path
     sodipodi:nodetypes="cccccccccccccccccccccccccc"
     style="fill:#ffffff;fill-opacity:1;stroke-width:0.2;stroke-linejoin:round"
     inkscape:connector-curvature="0"
     id="path4-8-2"
     d="m 69.514182,31.573481 5.026309,0.0071 -0.0071,-3.06126 2.99053,0 0,-5.039969 -3.033227,0.02135 0.0071,-3.039911 -4.996205,0.04025 -0.02013,3.032203 -3.010064,0.02013 0.01667,5.001528 3.054574,-0.0427 z m 1.359758,-0.989583 0,-3.374364 -3.332097,0 0,-2.249578 3.332097,0 0,-3.374363 2.2214,0 0,3.374363 3.332096,0 0,2.249578 -3.332096,0 0,3.374364 z" /><g
     transform="translate(9.2798462,-1.9384157)"
     id="g3849"><path
       d="m 60.734754,32.952694 4,0 0,-3 3,0 0,-4 -3,0 0,-3 -4,0 0,3 -3,0 0,4 3,0 z m 1,-1 0,-3 -3,0 0,-2 3,0 0,-3 2,0 0,3 3,0 0,2 -3,0 0,3 z"
       id="path4-8"
       inkscape:connector-curvature="0"
       style="fill:#000000;fill-opacity:1;stroke-width:0.2;stroke-linejoin:round"
       sodipodi:nodetypes="cccccccccccccccccccccccccc" /><path
       style="fill:#ffffff;fill-opacity:0;stroke:none"
       d="m 61.747066,30.434092 0,-1.508594 -1.494362,0 -1.494363,0 0,-0.98201 0,-0.982009 1.494363,0 1.494362,0 0,-1.494363 0,-1.494362 0.982009,0 0.98201,0 0,1.494362 0,1.494363 1.508594,0 1.508595,0 0,0.981757 0,0.981758 -1.501479,0.0074 -1.501478,0.0074 -0.0074,1.501478 -0.0074,1.501478 -0.981758,0 -0.981758,0 0,-1.508594 z"
       id="path3077"
       inkscape:connector-curvature="0" /><path
       style="fill:#ffffff;fill-opacity:1;stroke:none"
       d="m 61.752759,30.434092 0,-1.508594 -1.508595,0 -1.508594,0 0,-0.98201 0,-0.982009 1.508594,0 1.508595,0 0,-1.494363 0,-1.494362 0.982009,0 0.98201,0 0,1.494362 0,1.494363 1.508594,0 1.508594,0 0,0.982009 0,0.98201 -1.508594,0 -1.508594,0 0,1.508594 0,1.508594 -0.98201,0 -0.982009,0 0,-1.508594 z"
       id="path3847"
       inkscape:connector-curvature="0" /></g></g></svg>