<?xml version="1.0" encoding="UTF-8" standalone="no"?>
<svg
   xmlns:dc="http://purl.org/dc/elements/1.1/"
   xmlns:cc="http://creativecommons.org/ns#"
   xmlns:rdf="http://www.w3.org/1999/02/22-rdf-syntax-ns#"
   xmlns:svg="http://www.w3.org/2000/svg"
   xmlns="http://www.w3.org/2000/svg"
   xmlns:sodipodi="http://sodipodi.sourceforge.net/DTD/sodipodi-0.dtd"
   xmlns:inkscape="http://www.inkscape.org/namespaces/inkscape"
   version="1.1"
   width="76"
   height="76"
   viewBox="0 0 76.00 76.00"
   enable-background="new 0 0 76.00 76.00"
   xml:space="preserve"
   id="svg2"
   inkscape:version="0.48.4 r9939"
   sodipodi:docname="appbar.list.delete.inline.svg"><metadata
   id="metadata10"><rdf:RDF><cc:Work
       rdf:about=""><dc:format>image/svg+xml</dc:format><dc:type
         rdf:resource="http://purl.org/dc/dcmitype/StillImage" /></cc:Work></rdf:RDF></metadata><defs
   id="defs8" /><sodipodi:namedview
   pagecolor="#ffffff"
   bordercolor="#666666"
   borderopacity="1"
   objecttolerance="10"
   gridtolerance="10"
   guidetolerance="10"
   inkscape:pageopacity="0"
   inkscape:pageshadow="2"
   inkscape:window-width="1920"
   inkscape:window-height="1017"
   id="namedview6"
   showgrid="false"
   inkscape:zoom="3.1052632"
   inkscape:cx="38"
   inkscape:cy="38"
   inkscape:window-x="-8"
   inkscape:window-y="-8"
   inkscape:window-maximized="1"
   inkscape:current-layer="svg2" />
	<path
   d="m 24.220339,23.190678 0,-13.9406776 0,-0.9957631 51.779661,0 0,15.9322037 -51.779661,0 0,-0.995763 z m 16.032178,21.565034 6.628792,-6.628593 -6.628792,-6.628593 4.224822,-4.224624 6.628593,6.628594 6.628594,-6.628594 4.224622,4.224624 -7.126475,6.628593 7.126475,6.628593 -4.224622,4.224622 -6.628594,-6.628594 -6.628593,6.628594 -4.224822,-4.224622 z M 0.32203391,8.2542373 l 15.93220409,0 0,15.9322037 -15.93220409,0 0,-15.9322037 z m 0,21.9067797 15.93220409,0 0,15.932203 -15.93220409,0 0,-15.932203 z m 0,21.90678 15.93220409,0 0,15.932203 -15.93220409,0 0,-15.932203 z m 23.89830509,-21.90678 13.243644,0 5.177967,7.966102 -5.177967,7.966101 -13.243644,0 0,-15.932203 z m 51.779661,0 0,15.932203 -11.252119,0 -5.177965,-7.966101 5.177965,-7.966102 11.252119,0 z M 24.220339,52.067797 76,52.067797 76,68 l -51.779661,0 0,-15.932203 z"
   id="path4"
   inkscape:connector-curvature="0"
   style="fill:#000000;fill-opacity:1;stroke-width:0.2;stroke-linejoin:round" />
</svg>