<?xml version="1.0" encoding="UTF-8" standalone="no"?>
<svg
   xmlns:dc="http://purl.org/dc/elements/1.1/"
   xmlns:cc="http://creativecommons.org/ns#"
   xmlns:rdf="http://www.w3.org/1999/02/22-rdf-syntax-ns#"
   xmlns:svg="http://www.w3.org/2000/svg"
   xmlns="http://www.w3.org/2000/svg"
   xmlns:sodipodi="http://sodipodi.sourceforge.net/DTD/sodipodi-0.dtd"
   xmlns:inkscape="http://www.inkscape.org/namespaces/inkscape"
   version="1.1"
   width="76"
   height="76"
   viewBox="0 0 76.00 76.00"
   enable-background="new 0 0 76.00 76.00"
   xml:space="preserve"
   id="svg2"
   inkscape:version="0.48.4 r9939"
   sodipodi:docname="appbar.cogs.svg"><metadata
   id="metadata10"><rdf:RDF><cc:Work
       rdf:about=""><dc:format>image/svg+xml</dc:format><dc:type
         rdf:resource="http://purl.org/dc/dcmitype/StillImage" /></cc:Work></rdf:RDF></metadata><defs
   id="defs8" /><sodipodi:namedview
   pagecolor="#ffffff"
   bordercolor="#666666"
   borderopacity="1"
   objecttolerance="10"
   gridtolerance="10"
   guidetolerance="10"
   inkscape:pageopacity="0"
   inkscape:pageshadow="2"
   inkscape:window-width="1920"
   inkscape:window-height="1017"
   id="namedview6"
   showgrid="false"
   inkscape:zoom="3.1052632"
   inkscape:cx="38"
   inkscape:cy="38"
   inkscape:window-x="-8"
   inkscape:window-y="-8"
   inkscape:window-maximized="1"
   inkscape:current-layer="svg2" />
	<path
   d="m 32.225949,71.459941 c 0.547734,1.429589 1.193118,2.809156 1.927683,4.130159 1.310012,0.138373 2.639596,0.209302 3.985455,0.209302 2.90824,0 5.740715,-0.331262 8.463444,-0.958941 -3.756178,-3.861508 -6.077426,-9.183066 -6.077426,-15.05879 0,-11.795284 9.354269,-21.357273 20.893319,-21.357273 5.536619,0 10.57026,2.201373 14.308845,5.794566 0.469989,-2.450579 0.716201,-4.983215 0.716201,-7.574527 0,-1.751296 -0.112495,-3.475615 -0.330445,-5.1661 -2.260437,-1.228829 -4.685601,-2.182937 -7.232827,-2.818934 l -0.366733,-9.171938 c -2.260327,-0.413094 -4.586414,-0.6324 -6.961104,-0.640269 l -1.980027,8.953307 c -3.526023,0.209301 -6.895455,1.014583 -10.013618,2.318613 l -5.571698,-7.200999 c -2.109676,1.044259 -4.116095,2.272302 -5.999462,3.66356 l 3.547576,8.435898 c -2.654661,2.229812 -4.944459,4.896886 -6.763937,7.893537 l -8.650934,-2.478906 c -1.09668,2.086156 -2.021594,4.280785 -2.75539,6.564103 l 7.721842,4.693766 c -0.65803,2.58468 -1.008268,5.296379 -1.008268,8.091596 l 0.08379,2.36099 -8.423966,3.192351 c 0.317688,2.394264 0.837932,4.72288 1.542477,6.966968 l 8.9452,-0.842039 z m -6.109427,-35.742297 8.650824,2.478793 c 1.096789,-2.086156 2.021703,-4.280784 2.755389,-6.56399 l -7.721731,-4.693879 c 0.65803,-2.584679 1.008268,-5.296267 1.008268,-8.091596 l -0.0839,-2.360991 8.423967,-3.19235 C 38.831756,10.899368 38.311512,8.5707502 37.606968,6.326663 l -8.9452,0.8420387 C 27.669005,4.5777047 26.355696,2.1510575 24.771652,-0.06022969 21.418164,1.216452 18.286806,2.959599 15.453122,5.092044 c 3.06351,3.7158849 4.90949,8.515089 4.90949,13.754928 0,11.617232 -9.074079,21.068051 -20.3723501,21.350754 0.32445128,3.68694 1.1488796,7.226514 2.4034465,10.547459 3.1351854,-0.29653 6.1364668,-1.065166 8.9352926,-2.235658 l 5.571588,7.200998 c 2.109675,-1.044258 4.116203,-2.272188 5.999572,-3.663558 l -3.547686,-8.4359 c 2.654661,-2.229699 4.944569,-4.896772 6.764047,-7.893423 z"
   id="path4"
   inkscape:connector-curvature="0"
   style="fill:#000000;fill-opacity:1;stroke-width:0.2;stroke-linejoin:round" />
</svg>