<?xml version="1.0" encoding="UTF-8" standalone="no"?>
<svg
   xmlns:dc="http://purl.org/dc/elements/1.1/"
   xmlns:cc="http://creativecommons.org/ns#"
   xmlns:rdf="http://www.w3.org/1999/02/22-rdf-syntax-ns#"
   xmlns:svg="http://www.w3.org/2000/svg"
   xmlns="http://www.w3.org/2000/svg"
   xmlns:sodipodi="http://sodipodi.sourceforge.net/DTD/sodipodi-0.dtd"
   xmlns:inkscape="http://www.inkscape.org/namespaces/inkscape"
   version="1.1"
   width="76"
   height="76"
   viewBox="0 0 76.00 76.00"
   enable-background="new 0 0 76.00 76.00"
   xml:space="preserve"
   id="svg2"
   inkscape:version="0.48.4 r9939"
   sodipodi:docname="appbar.page.png.svg"><metadata
   id="metadata10"><rdf:RDF><cc:Work
       rdf:about=""><dc:format>image/svg+xml</dc:format><dc:type
         rdf:resource="http://purl.org/dc/dcmitype/StillImage" /></cc:Work></rdf:RDF></metadata><defs
   id="defs8" /><sodipodi:namedview
   pagecolor="#ffffff"
   bordercolor="#666666"
   borderopacity="1"
   objecttolerance="10"
   gridtolerance="10"
   guidetolerance="10"
   inkscape:pageopacity="0"
   inkscape:pageshadow="2"
   inkscape:window-width="1170"
   inkscape:window-height="809"
   id="namedview6"
   showgrid="false"
   inkscape:zoom="3.1052632"
   inkscape:cx="38"
   inkscape:cy="38"
   inkscape:window-x="0"
   inkscape:window-y="0"
   inkscape:window-maximized="0"
   inkscape:current-layer="svg2" />
	<path
   d="m 0.3220339,0.34890339 45.7220381,0 23.649364,19.62048161 0,33.147296 C 73.367602,54.194114 76,57.10125 76,60.518271 l 0,7.848192 c 0,4.334516 -4.235377,7.848193 -9.459746,7.848193 l -47.298729,0 c -5.224567,0 -9.4597453,-3.513677 -9.4597453,-7.848193 l -9.4597458,0 z M 63.387072,26.509491 l -25.226055,0 0,-20.9285693 -31.5324195,1.652e-4 0,57.5533581 3.1531822,0 0,-2.616009 c 0,-4.334516 4.2351783,-7.848193 9.4597453,-7.848193 l 44.145547,-1.65e-4 z M 44.467381,6.8891741 l 0,14.3881329 17.342801,0 z"
   id="path4"
   inkscape:connector-curvature="0"
   style="fill:#000000;fill-opacity:1;stroke-width:0.2;stroke-linejoin:round"
   sodipodi:nodetypes="ccccsssscccccccccsscccccc" />
<text
   xml:space="preserve"
   style="font-size:20.47614288px;font-style:normal;font-weight:normal;line-height:125%;letter-spacing:0px;word-spacing:0px;fill:#ffffff;fill-opacity:1;stroke:none;font-family:Sans"
   x="20.1842"
   y="71.729858"
   id="text2987"
   sodipodi:linespacing="125%"><tspan
     sodipodi:role="line"
     id="tspan2989"
     x="20.1842"
     y="71.729858">PNG</tspan></text>
</svg>