<?xml version="1.0" encoding="UTF-8" standalone="no"?>
<svg
   xmlns:dc="http://purl.org/dc/elements/1.1/"
   xmlns:cc="http://creativecommons.org/ns#"
   xmlns:rdf="http://www.w3.org/1999/02/22-rdf-syntax-ns#"
   xmlns:svg="http://www.w3.org/2000/svg"
   xmlns="http://www.w3.org/2000/svg"
   xmlns:sodipodi="http://sodipodi.sourceforge.net/DTD/sodipodi-0.dtd"
   xmlns:inkscape="http://www.inkscape.org/namespaces/inkscape"
   version="1.1"
   width="76.0106"
   height="76.0106"
   viewBox="0 0 76.01 76.01"
   enable-background="new 0 0 76.01 76.01"
   xml:space="preserve"
   id="svg2"
   inkscape:version="0.48.4 r9939"
   sodipodi:docname="appbar.table.paste.row.svg"><metadata
   id="metadata10"><rdf:RDF><cc:Work
       rdf:about=""><dc:format>image/svg+xml</dc:format><dc:type
         rdf:resource="http://purl.org/dc/dcmitype/StillImage" /><dc:title /></cc:Work></rdf:RDF></metadata><defs
   id="defs8" /><sodipodi:namedview
   pagecolor="#ffffff"
   bordercolor="#666666"
   borderopacity="1"
   objecttolerance="10"
   gridtolerance="10"
   guidetolerance="10"
   inkscape:pageopacity="0"
   inkscape:pageshadow="2"
   inkscape:window-width="1920"
   inkscape:window-height="1017"
   id="namedview6"
   showgrid="true"
   inkscape:snap-grids="true"
   inkscape:zoom="0.5"
   inkscape:cx="-322.28015"
   inkscape:cy="-133.86151"
   inkscape:window-x="1912"
   inkscape:window-y="-8"
   inkscape:window-maximized="1"
   inkscape:current-layer="svg2"><inkscape:grid
     type="xygrid"
     id="grid3051" /></sodipodi:namedview>
	
<g
   id="g2992"
   transform="matrix(1.2866672,0,0,1.2866672,-19.770446,-18.714341)"><g
     transform="matrix(1.4286201,0,0,1.4286201,-9.1304357,-21.072284)"
     id="g3092"><path
       d="m 18.0025,64.010518 0,-37.192634 40.0056,0 0,37.192634 z m 3.0004,-3.0004 34.0047,0 0,-30.005718 -34.0047,0 z m 2.0003,-14.003518 6.0008,0 0,5.0007 -6.0008,0 z m 8.0011,0 6.0008,0 0,5.0007 -6.0008,0 z m 8.0011,0 6.0008,0 0,5.0007 -6.0008,0 z m 8.0011,0 6.0009,0 0,5.0007 -6.0009,0 z m -16.0022,-7.001 6.0008,0 0,5.0007 -6.0008,0 z m 0,-7.0008 6.0008,0 0,5.0007 -6.0008,0 z m 8.0011,0 6.0008,0 0,5.0007 -6.0008,0 z m 8.0011,0 6.0009,0 0,5.0007 -6.0009,0 z m -15.002,8.0009 0,3.0004 4.0005,0 0,-3.0004 z"
       id="path4"
       inkscape:connector-curvature="0"
       style="fill:#000000;fill-opacity:1;stroke-width:0.2;stroke-linejoin:round"
       sodipodi:nodetypes="ccccccccccccccccccccccccccccccccccccccccccccccccccccccc" /><path
       d="m 22.987127,33.034483 6.000803,0 0,5.000701 -6.000803,0 z"
       id="path4-1"
       inkscape:connector-curvature="0"
       style="fill:#000000;fill-opacity:1;stroke-width:0.2;stroke-linejoin:round"
       sodipodi:nodetypes="ccccc" /><path
       d="m 23.005296,40.015279 6.000793,0 0,5.000701 -6.000793,0 z m 1.000192,1.000102 0,3.000397 4.000509,0 0,-3.000397 z"
       id="path4-7"
       inkscape:connector-curvature="0"
       style="fill:#000000;fill-opacity:1;stroke-width:0.2;stroke-linejoin:round"
       sodipodi:nodetypes="cccccccccc" /><path
       d="m 38.995841,40.014939 6.000793,0 0,5.0007 -6.000793,0 z m 1.000192,1.000102 0,3.000396 4.000509,0 0,-3.000396 z"
       id="path4-4"
       inkscape:connector-curvature="0"
       style="fill:#000000;fill-opacity:1;stroke-width:0.2;stroke-linejoin:round"
       sodipodi:nodetypes="cccccccccc" /><path
       d="m 47.007023,40.017726 6.000793,0 0,5.0007 -6.000793,0 z m 1.000192,1.000102 0,3.000396 4.000508,0 0,-3.000396 z"
       id="path4-0"
       inkscape:connector-curvature="0"
       style="fill:#000000;fill-opacity:1;stroke-width:0.2;stroke-linejoin:round"
       sodipodi:nodetypes="cccccccccc" /></g><path
     sodipodi:nodetypes="ccccc"
     style="fill:#000000;fill-opacity:1;stroke-width:0.2;stroke-linejoin:round"
     inkscape:connector-curvature="0"
     id="path4-1-8"
     d="m 23.722994,56.084273 8.572867,0 0,7.144102 -8.572867,0 z" /><path
     sodipodi:nodetypes="ccccc"
     style="fill:#000000;fill-opacity:1;stroke-width:0.2;stroke-linejoin:round"
     inkscape:connector-curvature="0"
     id="path4-1-8-8"
     d="m 35.166428,56.085475 8.572867,0 0,7.144102 -8.572867,0 z" /><path
     sodipodi:nodetypes="ccccc"
     style="fill:#000000;fill-opacity:1;stroke-width:0.2;stroke-linejoin:round"
     inkscape:connector-curvature="0"
     id="path4-1-8-2"
     d="m 46.584702,56.095435 8.572868,0 0,7.144102 -8.572868,0 z" /><path
     sodipodi:nodetypes="ccccc"
     style="fill:#000000;fill-opacity:1;stroke-width:0.2;stroke-linejoin:round"
     inkscape:connector-curvature="0"
     id="path4-1-8-4"
     d="m 58.009606,56.084273 8.572869,0 0,7.144102 -8.572869,0 z" /></g><path
   style="fill:#ffffff;fill-opacity:1;stroke:#ffffff;stroke-width:0.03629996;stroke-miterlimit:4;stroke-opacity:1;stroke-dasharray:none"
   d="m 5.040342,42.100005 c 0.1760981,-0.0075 0.4533281,-0.0074 0.6160668,10e-5 0.1627386,0.0075 0.018659,0.01359 -0.3201784,0.01354 -0.3388367,-5.6e-5 -0.4719865,-0.0062 -0.2958884,-0.01364 z"
   id="path6614"
   inkscape:connector-curvature="0" /><g
   id="g3005"
   transform="matrix(1.6723173,0,0,1.6723173,12.078651,-18.097463)"><a
     style="stroke:#ffffff;stroke-width:1.99242902;stroke-linecap:butt;stroke-linejoin:miter;stroke-miterlimit:2.5;stroke-opacity:1;stroke-dasharray:none"
     transform="matrix(0.84889057,0,0,0.76631531,40.211954,20.412456)"
     id="a6711"><path
       id="path6696"
       d="m -32.374691,38.510295 c -1.65679,0 -2.99998,-1.34309 -2.99998,-2.999977 l 0,-2.999876 -8.00004,0 c -1.65689,0 -2.99997,-1.34319 -2.99997,-2.999977 l 0,-26.9997885 c 0,-1.65688699 1.34308,-2.99997599 2.99997,-2.99997599 l 3.50007,-2e-4 c 0,0 0.9998,-0.119199 0.9998,-1.49988801 0,-1.380689 1.61918,-2.499981 2.99997,-2.499981 l 7.99984,1e-4 c 1.37999,0 2.99898,1.617488 3.00018,2.997777 l -2e-4,-0.495496 c 10e-4,1.37858901 1.00019,1.49758801 1.00019,1.49758801 l 3.49997,10e-5 c 1.65689,0 2.99998,1.343089 2.99998,2.99997599 l 0,6.9998455 6.99994,6.999945 10e-5,18.999851 c 0,1.656887 -1.34309,2.999977 -2.99997,2.999977 l -18.99985,0 z m -2e-4,-28.999673 0,25.999796 19.00005,-1e-4 0,-13.99989 -10.99982,0 -10e-5,-11.999906 -8.00013,10e-5 z m 18.99995,8.99993 -7.99994,-7.999937 10e-5,7.999837 7.99984,10e-5 z m -24.49981,-14.999982 11.9999,0 c 0,0 -1.00019,-1.1190925 -1.00019,-2.4997815 0,-1.38078899 -1.11929,-2.49998 -2.49998,-2.49998 l -4.99996,0 c -1.38069,0 -2.49998,1.11919101 -2.49998,2.49998 0,1.380689 -0.99979,2.4997815 -0.99979,2.4997815 z"
       inkscape:connector-curvature="0"
       style="fill:#000000;fill-opacity:1;stroke:#ffffff;stroke-width:1.99242902;stroke-linecap:butt;stroke-linejoin:miter;stroke-miterlimit:2.5;stroke-opacity:1;stroke-dasharray:none" /></a><path
     inkscape:connector-curvature="0"
     id="path6705"
     d="m 12.798256,37.658556 0,-9.914204 3.342507,0 3.342506,0 0,4.597893 0,4.597891 4.668898,0 4.668899,0 0,5.316313 0,5.316312 -8.011405,0 -8.011405,0 0,-9.914205 z"
     style="fill:#ffffff;fill-opacity:1;stroke:#ffffff;stroke-width:0.09073652;stroke-miterlimit:4;stroke-opacity:1;stroke-dasharray:none" /><path
     inkscape:connector-curvature="0"
     id="path6707"
     d="m 22.136052,31.623824 c 0,-1.606868 0.01222,-2.921577 0.02718,-2.921577 0.01494,0 1.482971,1.314709 3.26227,2.921577 l 3.23509,2.921577 -3.26227,0 -3.262271,0 0,-2.921577 z"
     style="fill:#ffffff;fill-opacity:1;stroke:#ffffff;stroke-width:0.09073652;stroke-miterlimit:4;stroke-opacity:1;stroke-dasharray:none" /><path
     inkscape:connector-curvature="0"
     id="path6709"
     d="m 8.5621009,22.47604 c 0.1899977,-0.345692 0.3520688,-0.835195 0.406795,-1.228639 0.1379448,-0.991734 0.4938022,-1.477441 1.3072561,-1.784261 0.316671,-0.119447 0.874304,-0.148256 2.869252,-0.148256 2.453152,0 2.481333,0.0023 3.029119,0.248734 0.719379,0.32361 1.064624,0.835985 1.195033,1.773533 0.06177,0.444112 0.202733,0.861633 0.404343,1.197657 l 0.309511,0.515863 -4.918567,0 -4.9185676,0 0.3158255,-0.574631 z"
     style="fill:#ffffff;fill-opacity:1;stroke:#ffffff;stroke-width:0.09073652;stroke-miterlimit:4;stroke-opacity:1;stroke-dasharray:none" /></g></svg>