<?xml version="1.0" encoding="UTF-8" standalone="no"?>
<svg
   xmlns:dc="http://purl.org/dc/elements/1.1/"
   xmlns:cc="http://creativecommons.org/ns#"
   xmlns:rdf="http://www.w3.org/1999/02/22-rdf-syntax-ns#"
   xmlns:svg="http://www.w3.org/2000/svg"
   xmlns="http://www.w3.org/2000/svg"
   xmlns:sodipodi="http://sodipodi.sourceforge.net/DTD/sodipodi-0.dtd"
   xmlns:inkscape="http://www.inkscape.org/namespaces/inkscape"
   version="1.1"
   width="76"
   height="76"
   viewBox="0 0 76.00 76.00"
   enable-background="new 0 0 76.00 76.00"
   xml:space="preserve"
   id="svg2"
   inkscape:version="0.48.4 r9939"
   sodipodi:docname="appbar.link.svg"><metadata
   id="metadata10"><rdf:RDF><cc:Work
       rdf:about=""><dc:format>image/svg+xml</dc:format><dc:type
         rdf:resource="http://purl.org/dc/dcmitype/StillImage" /></cc:Work></rdf:RDF></metadata><defs
   id="defs8" /><sodipodi:namedview
   pagecolor="#ffffff"
   bordercolor="#666666"
   borderopacity="1"
   objecttolerance="10"
   gridtolerance="10"
   guidetolerance="10"
   inkscape:pageopacity="0"
   inkscape:pageshadow="2"
   inkscape:window-width="640"
   inkscape:window-height="480"
   id="namedview6"
   showgrid="false"
   inkscape:zoom="3.1052632"
   inkscape:cx="38"
   inkscape:cy="38"
   inkscape:window-x="0"
   inkscape:window-y="0"
   inkscape:window-maximized="0"
   inkscape:current-layer="svg2" />
	<path
   d="m 9.7795221,52.319116 3.0806959,5.336006 8.416702,2.255312 8.004204,-4.621142 2.668004,-1.540444 5.336006,-3.080696 1.54025,2.668004 -2.255116,8.416702 -13.34021,7.70203 L 6.3966536,64.944266 0.2350678,54.272252 4.7454957,37.438654 l 13.3402103,-7.70203 8.416702,2.255312 1.540446,2.668002 -5.336008,3.08089 -2.668002,1.54025 -8.004204,4.621142 -2.2551179,8.416896 z m 29.6502099,-34.905274 13.340016,-7.70203 16.8336,4.510622 6.161584,10.672014 -4.510622,16.833598 -13.340016,7.701836 -8.416702,-2.255312 -1.540444,-2.668002 5.336006,-3.080696 2.668002,-1.540446 8.00401,-4.62114 2.255312,-8.416702 -3.080696,-5.336006 -8.416896,-2.255312 -8.00401,4.621142 -2.668004,1.540444 -5.336006,3.080696 -1.540444,-2.668004 2.25531,-8.416702 z m -9.406112,33.000002 -4.208448,-1.127558 -2.31057,-4.002006 1.127752,-4.208448 21.344026,-12.322976 4.208448,1.127558 2.31057,4.002006 -1.127752,4.208448 -21.344026,12.322976 z"
   id="path4"
   inkscape:connector-curvature="0"
   style="fill:#000000;fill-opacity:1;stroke-width:0.2;stroke-linejoin:round" />
</svg>