<?xml version="1.0" encoding="UTF-8" standalone="no"?>
<svg
   xmlns:dc="http://purl.org/dc/elements/1.1/"
   xmlns:cc="http://creativecommons.org/ns#"
   xmlns:rdf="http://www.w3.org/1999/02/22-rdf-syntax-ns#"
   xmlns:svg="http://www.w3.org/2000/svg"
   xmlns="http://www.w3.org/2000/svg"
   xmlns:sodipodi="http://sodipodi.sourceforge.net/DTD/sodipodi-0.dtd"
   xmlns:inkscape="http://www.inkscape.org/namespaces/inkscape"
   version="1.1"
   width="76"
   height="76"
   viewBox="0 0 76.00 76.00"
   enable-background="new 0 0 76.00 76.00"
   xml:space="preserve"
   id="svg2"
   inkscape:version="0.48.4 r9939"
   sodipodi:docname="appbar.page.add.svg"><metadata
   id="metadata10"><rdf:RDF><cc:Work
       rdf:about=""><dc:format>image/svg+xml</dc:format><dc:type
         rdf:resource="http://purl.org/dc/dcmitype/StillImage" /></cc:Work></rdf:RDF></metadata><defs
   id="defs8" /><sodipodi:namedview
   pagecolor="#ffffff"
   bordercolor="#666666"
   borderopacity="1"
   objecttolerance="10"
   gridtolerance="10"
   guidetolerance="10"
   inkscape:pageopacity="0"
   inkscape:pageshadow="2"
   inkscape:window-width="1920"
   inkscape:window-height="1017"
   id="namedview6"
   showgrid="false"
   inkscape:zoom="3.1052632"
   inkscape:cx="38"
   inkscape:cy="38"
   inkscape:window-x="-8"
   inkscape:window-y="-8"
   inkscape:window-maximized="1"
   inkscape:current-layer="svg2" />
	<path
   d="m 47.408797,24.487086 13.870561,0 -13.870561,-13.87056 0,13.87056 z m 16.107748,7.158999 -23.266747,0 0,-23.2667472 -26.846247,0 0,42.9539952 -7.1589989,0 0,-50.112994 41.6116819,0 22.81931,22.81931 0,52.350181 -39.374496,0 0,-7.158999 32.215497,0 0,-37.584746 z m -42.953995,7.158999 8.948749,0 0,14.317999 14.317998,0 0,8.948749 -14.317998,0 0,14.317998 -8.948749,0 0,-14.317998 -14.3179979,0 0,-8.948749 14.3179979,0 0,-14.317999 z M 6.2445521,76.38983 l 0,-12.528248 7.1589989,0 0,5.369249 5.369249,0 0,7.158999 -12.5282479,0 z"
   id="path4"
   inkscape:connector-curvature="0"
   style="fill:#000000;fill-opacity:1;stroke-width:0.2;stroke-linejoin:round" />
</svg>