<?xml version="1.0" encoding="UTF-8" standalone="no"?>
<svg
   xmlns:dc="http://purl.org/dc/elements/1.1/"
   xmlns:cc="http://creativecommons.org/ns#"
   xmlns:rdf="http://www.w3.org/1999/02/22-rdf-syntax-ns#"
   xmlns:svg="http://www.w3.org/2000/svg"
   xmlns="http://www.w3.org/2000/svg"
   xmlns:sodipodi="http://sodipodi.sourceforge.net/DTD/sodipodi-0.dtd"
   xmlns:inkscape="http://www.inkscape.org/namespaces/inkscape"
   version="1.1"
   width="76"
   height="76"
   viewBox="0 0 76.00 76.00"
   enable-background="new 0 0 76.00 76.00"
   xml:space="preserve"
   id="svg2"
   inkscape:version="0.48.4 r9939"
   sodipodi:docname="appbar.interface.textbox.squared.svg"><metadata
   id="metadata10"><rdf:RDF><cc:Work
       rdf:about=""><dc:format>image/svg+xml</dc:format><dc:type
         rdf:resource="http://purl.org/dc/dcmitype/StillImage" /></cc:Work></rdf:RDF></metadata><defs
   id="defs8" /><sodipodi:namedview
   pagecolor="#ffffff"
   bordercolor="#666666"
   borderopacity="1"
   objecttolerance="10"
   gridtolerance="10"
   guidetolerance="10"
   inkscape:pageopacity="0"
   inkscape:pageshadow="2"
   inkscape:window-width="1920"
   inkscape:window-height="1017"
   id="namedview6"
   showgrid="false"
   inkscape:zoom="6.2105263"
   inkscape:cx="65.205696"
   inkscape:cy="22.20138"
   inkscape:window-x="1912"
   inkscape:window-y="-8"
   inkscape:window-maximized="1"
   inkscape:current-layer="svg2" />
	<path
   d="m 0.34725762,8.064982 75.66421338,-0.42054 0,60.322489 -75.66421338,0.42054 z m 7.09682908,7.096832 0,46.128828 61.4705533,-0.420539 0,-46.12883 z m 23.3247163,35.483695 -4.967804,0 0,-2.468327 -0.06724,0 c -1.121213,1.866373 -2.780509,2.79956 -4.978113,2.79956 -1.621421,0 -2.897044,-0.452698 -3.826643,-1.358319 -0.929826,-0.90562 -1.394624,-2.113787 -1.394624,-3.624947 0,-3.191074 1.919707,-5.033243 5.759351,-5.526506 l 4.538413,-0.59523 c 0,-1.648986 -0.988543,-2.47348 -2.965175,-2.47348 -1.990526,0 -3.882894,0.551978 -5.676655,1.655935 l 0,-3.891413 2.962483,-0.983161 3.423027,-0.424238 c 4.795239,0 7.192972,2.345739 7.192972,7.037664 z m -4.936652,-6.711587 0,-1.081545 -3.094483,0.377846 c -1.711291,0.207077 -2.56671,0.933186 -2.56671,2.178553 0,0.562289 0.207748,1.023728 0.623468,1.384316 0.415722,0.360367 0.978904,0.540774 1.689551,0.540774 0.99011,0 1.795778,-0.320923 2.416558,-0.962545 0.621003,-0.641621 0.931616,-1.454236 0.931616,-2.437399 z m 13.945794,4.652035 -0.06724,0 0,2.059552 -4.967805,0 0,-24.507334 4.967805,0 0,10.571849 0.06724,0 c 1.276295,-1.969686 3.090899,-2.954641 5.443809,-2.954641 2.159507,0 3.823284,0.727007 4.990886,2.18102 1.167826,1.454238 1.751628,3.442077 1.751628,5.963962 0,2.735689 -0.681287,4.932394 -2.043864,6.589898 -1.362803,1.657726 -3.184128,2.486479 -5.464652,2.486479 -2.062914,0 -3.622257,-0.796928 -4.677807,-2.390785 z m -0.144997,-6.83059 0,1.645626 c 0,1.038293 0.310613,1.898194 0.931616,2.579484 0.62078,0.681514 1.417708,1.022157 2.390561,1.022157 1.176343,0 2.088912,-0.437235 2.73748,-1.311929 0.648569,-0.874469 0.972852,-2.113785 0.972852,-3.717952 0,-1.331649 -0.296718,-2.371735 -0.889933,-3.120255 -0.593438,-0.748747 -1.442134,-1.123006 -2.54609,-1.123006 -1.034931,0 -1.893041,0.371794 -2.57433,1.115161 -0.681288,0.743366 -1.022156,1.713754 -1.022156,2.910714 z m 17.071923,15.986972 0,-39.032226 4.435322,0 0,39.032226 z"
   id="path4"
   inkscape:connector-curvature="0"
   style="fill:#000000;fill-opacity:1;stroke-width:0.2;stroke-linejoin:round"
   sodipodi:nodetypes="ccccccccccccccscsccsccccscsccscscsccccccccscscscsscscscsssccccc" />
</svg>