<?xml version="1.0" encoding="UTF-8" standalone="no"?>
<svg
   xmlns:dc="http://purl.org/dc/elements/1.1/"
   xmlns:cc="http://creativecommons.org/ns#"
   xmlns:rdf="http://www.w3.org/1999/02/22-rdf-syntax-ns#"
   xmlns:svg="http://www.w3.org/2000/svg"
   xmlns="http://www.w3.org/2000/svg"
   xmlns:sodipodi="http://sodipodi.sourceforge.net/DTD/sodipodi-0.dtd"
   xmlns:inkscape="http://www.inkscape.org/namespaces/inkscape"
   version="1.1"
   width="76.0106"
   height="76.0106"
   viewBox="0 0 76.01 76.01"
   enable-background="new 0 0 76.01 76.01"
   xml:space="preserve"
   id="svg2"
   inkscape:version="0.48.4 r9939"
   sodipodi:docname="appbar.table.delete.row.svg"><metadata
   id="metadata10"><rdf:RDF><cc:Work
       rdf:about=""><dc:format>image/svg+xml</dc:format><dc:type
         rdf:resource="http://purl.org/dc/dcmitype/StillImage" /><dc:title></dc:title></cc:Work></rdf:RDF></metadata><defs
   id="defs8" /><sodipodi:namedview
   pagecolor="#ffffff"
   bordercolor="#666666"
   borderopacity="1"
   objecttolerance="10"
   gridtolerance="10"
   guidetolerance="10"
   inkscape:pageopacity="0"
   inkscape:pageshadow="2"
   inkscape:window-width="1920"
   inkscape:window-height="1017"
   id="namedview6"
   showgrid="true"
   inkscape:snap-grids="true"
   inkscape:zoom="1.4142136"
   inkscape:cx="356.36535"
   inkscape:cy="128.54823"
   inkscape:window-x="1912"
   inkscape:window-y="-8"
   inkscape:window-maximized="1"
   inkscape:current-layer="svg2"
   showguides="true"
   inkscape:guide-bbox="true"><inkscape:grid
     type="xygrid"
     id="grid3051" /><sodipodi:guide
     orientation="0,1"
     position="144.28516,41.039063"
     id="guide3066" /><sodipodi:guide
     orientation="1,0"
     position="144.28516,41.039063"
     id="guide3068" /><sodipodi:guide
     orientation="0,1"
     position="140.64844,44.726563"
     id="guide3070" /><sodipodi:guide
     orientation="1,0"
     position="159,41.039063"
     id="guide3072" /><sodipodi:guide
     orientation="0,1"
     position="124,28.195313"
     id="guide3092" /></sodipodi:namedview>
	
<path
   d="m 1.1946724,72.08197 0,-68.3659611 73.5367896,0 0,68.3659611 z m 5.5152229,-5.515211 62.5061547,0 0,-55.155269 -62.5061547,0 z m 18.3841967,-38.609635 11.030444,0 0,9.192079 -11.030444,0 z m 1.838534,1.838342 0,5.515211 7.353566,0 0,-5.515211 z"
   id="path4"
   inkscape:connector-curvature="0"
   style="fill:#000000;fill-opacity:1;stroke-width:0.2;stroke-linejoin:round"
   sodipodi:nodetypes="cccccccccccccccccccc" /><path
   d="m 10.390624,27.974915 11.03043,0 0,9.192082 -11.03043,0 z m 1.838524,1.838346 0,5.515206 7.353586,0 0,-5.515206 z"
   id="path4-7"
   inkscape:connector-curvature="0"
   style="fill:#000000;fill-opacity:1;stroke-width:0.2;stroke-linejoin:round"
   sodipodi:nodetypes="cccccccccc" /><path
   d="m 39.783844,27.97429 11.03043,0 0,9.19208 -11.03043,0 z m 1.838514,1.838346 0,5.515204 7.353582,0 0,-5.515204 z"
   id="path4-4"
   inkscape:connector-curvature="0"
   style="fill:#000000;fill-opacity:1;stroke-width:0.2;stroke-linejoin:round"
   sodipodi:nodetypes="cccccccccc" /><path
   d="m 54.494072,27.979413 11.030434,0 0,9.19208 -11.030434,0 z m 1.838524,1.838346 0,5.515204 7.353576,0 0,-5.515204 z"
   id="path4-0"
   inkscape:connector-curvature="0"
   style="fill:#000000;fill-opacity:1;stroke-width:0.2;stroke-linejoin:round"
   sodipodi:nodetypes="cccccccccc" /><path
   d="m 10.328124,15.10002 11.03043,0 0,9.192082 -11.03043,0 z m 1.838524,1.838346 0,5.515206 7.353586,0 0,-5.515206 z"
   id="path4-7-17"
   inkscape:connector-curvature="0"
   style="fill:#000000;fill-opacity:1;stroke-width:0.2;stroke-linejoin:round"
   sodipodi:nodetypes="cccccccccc" /><path
   d="m 25.124022,15.100019 11.030434,0 0,9.192083 -11.030434,0 z m 1.838524,1.838347 0,5.515206 7.353586,0 0,-5.515206 z"
   id="path4-7-17-4"
   inkscape:connector-curvature="0"
   style="fill:#000000;fill-opacity:1;stroke-width:0.2;stroke-linejoin:round"
   sodipodi:nodetypes="cccccccccc" /><path
   d="m 39.789514,15.092205 11.03043,0 0,9.192084 -11.03043,0 z m 1.838524,1.838348 0,5.515206 7.353582,0 0,-5.515206 z"
   id="path4-7-17-4-0"
   inkscape:connector-curvature="0"
   style="fill:#000000;fill-opacity:1;stroke-width:0.2;stroke-linejoin:round"
   sodipodi:nodetypes="cccccccccc" /><path
   d="m 54.492542,15.100017 11.030434,0 0,9.192084 -11.030434,0 z m 1.838524,1.838348 0,5.515206 7.353596,0 0,-5.515206 z"
   id="path4-7-17-4-0-9"
   inkscape:connector-curvature="0"
   style="fill:#000000;fill-opacity:1;stroke-width:0.2;stroke-linejoin:round"
   sodipodi:nodetypes="cccccccccc" /><path
   d="m 10.326814,40.825909 11.03043,0 0,9.192082 -11.03043,0 z m 1.838524,1.838346 0,5.515206 7.353586,0 0,-5.515206 z"
   id="path4-7-17-45"
   inkscape:connector-curvature="0"
   style="fill:#000000;fill-opacity:1;stroke-width:0.2;stroke-linejoin:round"
   sodipodi:nodetypes="cccccccccc" /><path
   d="m 25.122712,40.825908 11.030434,0 0,9.192083 -11.030434,0 z m 1.838524,1.838347 0,5.515206 7.353586,0 0,-5.515206 z"
   id="path4-7-17-4-5"
   inkscape:connector-curvature="0"
   style="fill:#000000;fill-opacity:1;stroke-width:0.2;stroke-linejoin:round"
   sodipodi:nodetypes="cccccccccc" /><path
   d="m 39.788204,40.818094 11.03043,0 0,9.192084 -11.03043,0 z m 1.838524,1.838348 0,5.515206 7.353582,0 0,-5.515206 z"
   id="path4-7-17-4-0-1"
   inkscape:connector-curvature="0"
   style="fill:#000000;fill-opacity:1;stroke-width:0.2;stroke-linejoin:round"
   sodipodi:nodetypes="cccccccccc" /><path
   d="m 54.491232,40.825906 11.030434,0 0,9.192084 -11.030434,0 z m 1.838524,1.838348 0,5.515206 7.353596,0 0,-5.515206 z"
   id="path4-7-17-4-0-9-7"
   inkscape:connector-curvature="0"
   style="fill:#000000;fill-opacity:1;stroke-width:0.2;stroke-linejoin:round"
   sodipodi:nodetypes="cccccccccc" /><path
   d="m 10.328124,54.037214 11.03043,0 0,9.192082 -11.03043,0 z m 1.838524,1.838346 0,5.515206 7.353586,0 0,-5.515206 z"
   id="path4-7-17-1"
   inkscape:connector-curvature="0"
   style="fill:#000000;fill-opacity:1;stroke-width:0.2;stroke-linejoin:round"
   sodipodi:nodetypes="cccccccccc" /><path
   d="m 25.124022,54.037213 11.030434,0 0,9.192083 -11.030434,0 z m 1.838524,1.838347 0,5.515206 7.353586,0 0,-5.515206 z"
   id="path4-7-17-4-1"
   inkscape:connector-curvature="0"
   style="fill:#000000;fill-opacity:1;stroke-width:0.2;stroke-linejoin:round"
   sodipodi:nodetypes="cccccccccc" /><path
   d="m 39.789514,54.029399 11.03043,0 0,9.192084 -11.03043,0 z m 1.838524,1.838348 0,5.515206 7.353582,0 0,-5.515206 z"
   id="path4-7-17-4-0-5"
   inkscape:connector-curvature="0"
   style="fill:#000000;fill-opacity:1;stroke-width:0.2;stroke-linejoin:round"
   sodipodi:nodetypes="cccccccccc" /><path
   d="m 54.492542,54.037211 11.030434,0 0,9.192084 -11.030434,0 z m 1.838524,1.838348 0,5.515206 7.353596,0 0,-5.515206 z"
   id="path4-7-17-4-0-9-2"
   inkscape:connector-curvature="0"
   style="fill:#000000;fill-opacity:1;stroke-width:0.2;stroke-linejoin:round"
   sodipodi:nodetypes="cccccccccc" /><g
   id="g3773"
   transform="matrix(1.2934938,0,0,1.2934938,68.62097,2.7953905)"><path
     sodipodi:nodetypes="ccccccccccccc"
     style="fill:#ffffff;fill-opacity:1;stroke-width:0.2;stroke-linejoin:round"
     inkscape:connector-curvature="0"
     id="path4-7-4"
     d="m -52.786311,29.721016 6.66552,-6.836835 -6.66552,-6.893763 5.439807,-5.325728 6.779907,7.064548 6.637588,-7.064548 5.581902,5.468048 -7.207261,6.658082 7.207261,6.617092 -5.581902,5.695758 -6.575347,-6.773841 -6.870612,6.773841 z" /><path
     sodipodi:nodetypes="ccccccccccccc"
     style="fill:#000000;fill-opacity:1;stroke-width:0.2;stroke-linejoin:round"
     inkscape:connector-curvature="0"
     id="path4-7-40"
     d="m -51.851316,29.686568 6.659912,-6.846435 -6.597671,-6.628593 4.567145,-5.064872 6.628593,6.628594 6.628594,-6.348511 4.784787,4.784789 -7.250956,6.628593 7.219836,6.472991 -5.03375,4.598066 -6.348511,-6.410752 -6.784195,6.597474 z" /><path
     sodipodi:nodetypes="ccccccccccccc"
     style="fill:#ffffff;fill-opacity:1;stroke-width:0.2;stroke-linejoin:round"
     inkscape:connector-curvature="0"
     id="path4-7-1"
     d="m -50.297584,29.270822 6.428158,-6.399517 -6.399694,-6.342588 3.343443,-3.172483 6.314124,6.114878 6.541838,-6.285662 3.144016,3.115555 -6.72999,6.5703 6.72999,6.427981 -3.400192,3.257872 -6.285662,-6.257197 -6.42798,6.257197 z" /></g></svg>