<?xml version="1.0" encoding="UTF-8" standalone="no"?>
<svg
   xmlns:dc="http://purl.org/dc/elements/1.1/"
   xmlns:cc="http://creativecommons.org/ns#"
   xmlns:rdf="http://www.w3.org/1999/02/22-rdf-syntax-ns#"
   xmlns:svg="http://www.w3.org/2000/svg"
   xmlns="http://www.w3.org/2000/svg"
   xmlns:sodipodi="http://sodipodi.sourceforge.net/DTD/sodipodi-0.dtd"
   xmlns:inkscape="http://www.inkscape.org/namespaces/inkscape"
   version="1.1"
   width="76"
   height="76"
   viewBox="0 0 76.00 76.00"
   enable-background="new 0 0 76.00 76.00"
   xml:space="preserve"
   id="svg2"
   inkscape:version="0.48.4 r9939"
   sodipodi:docname="appbar.table.remove.svg"><metadata
   id="metadata10"><rdf:RDF><cc:Work
       rdf:about=""><dc:format>image/svg+xml</dc:format><dc:type
         rdf:resource="http://purl.org/dc/dcmitype/StillImage" /></cc:Work></rdf:RDF></metadata><defs
   id="defs8" /><sodipodi:namedview
   pagecolor="#ffffff"
   bordercolor="#666666"
   borderopacity="1"
   objecttolerance="10"
   gridtolerance="10"
   guidetolerance="10"
   inkscape:pageopacity="0"
   inkscape:pageshadow="2"
   inkscape:window-width="944"
   inkscape:window-height="1001"
   id="namedview6"
   showgrid="false"
   inkscape:zoom="3.1052632"
   inkscape:cx="38.000001"
   inkscape:cy="38.000001"
   inkscape:window-x="2880"
   inkscape:window-y="0"
   inkscape:window-maximized="0"
   inkscape:current-layer="svg2" />
	<path
   d="m 5.6711864,-0.03389831 64.3838986,0 0,76.06779631 -64.3838986,0 0,-76.06779631 z m 5.6809326,5.70508471 0,11.4101696 11.361863,0 0,-11.4101696 -11.361863,0 z m 0,19.0169496 11.361863,0 0,-5.705084 -11.361863,0 0,5.705084 z m 0,45.640677 11.361863,0 0,-5.705085 -11.361863,0 0,5.705085 z m 11.361863,-13.311863 -11.361863,0 0,5.705084 11.361863,0 0,-5.705084 z m 0,-7.606781 -11.361863,0 0,5.705085 11.361863,0 0,-5.705085 z m 0,-7.606779 -11.361863,0 0,5.705084 11.361863,0 0,-5.705084 z m 0,-7.60678 -11.361863,0 0,5.705084 11.361863,0 0,-5.705084 z m 0,-7.60678 -11.361863,0 0,5.705086 11.361863,0 0,-5.705086 z m 41.660171,43.738983 0,-5.705085 -39.766526,0 0,5.705085 39.766526,0 z m 0,-13.311863 -39.766526,0 0,5.705084 39.766526,0 0,-5.705084 z m 0,-7.606781 -39.766526,0 0,5.705085 39.766526,0 0,-5.705085 z m 0,-7.606779 -39.766526,0 0,5.705084 39.766526,0 0,-5.705084 z m 0,-7.60678 -39.766526,0 0,5.705084 39.766526,0 0,-5.705084 z m 0,-7.60678 -39.766526,0 0,5.705086 39.766526,0 0,-5.705086 z m 0,-20.9186436 -39.766526,0 0,11.4101696 39.766526,0 0,-11.4101696 z m -39.766526,19.0169496 39.766526,0 0,-5.705084 -39.766526,0 0,5.705084 z"
   id="path4"
   inkscape:connector-curvature="0"
   style="fill:#000000;fill-opacity:1;stroke-width:0.2;stroke-linejoin:round" />
<g
   id="g3773"
   transform="matrix(1.293504,0,0,1.293504,112.37151,-14.465185)"><path
     sodipodi:nodetypes="ccccccccccccc"
     style="fill:#ffffff;fill-opacity:1;stroke-width:0.2;stroke-linejoin:round"
     inkscape:connector-curvature="0"
     id="path4-7-4"
     d="m -52.786311,29.721016 6.66552,-6.836835 -6.66552,-6.893763 5.439807,-5.325728 6.779907,7.064548 6.637588,-7.064548 5.581902,5.468048 -7.207261,6.658082 7.207261,6.617092 -5.581902,5.695758 -6.575347,-6.773841 -6.870612,6.773841 z" /><path
     sodipodi:nodetypes="ccccccccccccc"
     style="fill:#000000;fill-opacity:1;stroke-width:0.2;stroke-linejoin:round"
     inkscape:connector-curvature="0"
     id="path4-7"
     d="m -51.851316,29.686568 6.659912,-6.846435 -6.597671,-6.628593 4.567145,-5.064872 6.628593,6.628594 6.628594,-6.348511 4.784787,4.784789 -7.250956,6.628593 7.219836,6.472991 -5.03375,4.598066 -6.348511,-6.410752 -6.784195,6.597474 z" /><path
     sodipodi:nodetypes="ccccccccccccc"
     style="fill:#ffffff;fill-opacity:1;stroke-width:0.2;stroke-linejoin:round"
     inkscape:connector-curvature="0"
     id="path4-7-1"
     d="m -50.297584,29.270822 6.428158,-6.399517 -6.399694,-6.342588 3.343443,-3.172483 6.314124,6.114878 6.541838,-6.285662 3.144016,3.115555 -6.72999,6.5703 6.72999,6.427981 -3.400192,3.257872 -6.285662,-6.257197 -6.42798,6.257197 z" /></g></svg>