<?xml version="1.0" encoding="UTF-8" standalone="no"?>
<!-- Created with Inkscape (http://www.inkscape.org/) -->

<svg
   xmlns:dc="http://purl.org/dc/elements/1.1/"
   xmlns:cc="http://creativecommons.org/ns#"
   xmlns:rdf="http://www.w3.org/1999/02/22-rdf-syntax-ns#"
   xmlns:svg="http://www.w3.org/2000/svg"
   xmlns="http://www.w3.org/2000/svg"
   xmlns:sodipodi="http://sodipodi.sourceforge.net/DTD/sodipodi-0.dtd"
   xmlns:inkscape="http://www.inkscape.org/namespaces/inkscape"
   width="15.916462mm"
   height="19.762751mm"
   viewBox="0 0 15.916462 19.76275"
   version="1.1"
   id="svg8"
   inkscape:version="0.92.3 (2405546, 2018-03-11)"
   sodipodi:docname="attached.file.svg">
  <defs
     id="defs2" />
  <sodipodi:namedview
     id="base"
     pagecolor="#ffffff"
     bordercolor="#666666"
     borderopacity="1.0"
     inkscape:pageopacity="0.0"
     inkscape:pageshadow="2"
     inkscape:zoom="1.197168"
     inkscape:cx="-183.76938"
     inkscape:cy="-109.64486"
     inkscape:document-units="mm"
     inkscape:current-layer="layer1"
     showgrid="false"
     fit-margin-top="0"
     fit-margin-left="0"
     fit-margin-right="0"
     fit-margin-bottom="0"
     inkscape:window-width="1920"
     inkscape:window-height="1052"
     inkscape:window-x="1920"
     inkscape:window-y="40"
     inkscape:window-maximized="1" />
  <metadata
     id="metadata5">
    <rdf:RDF>
      <cc:Work
         rdf:about="">
        <dc:format>image/svg+xml</dc:format>
        <dc:type
           rdf:resource="http://purl.org/dc/dcmitype/StillImage" />
        <dc:title />
      </cc:Work>
    </rdf:RDF>
  </metadata>
  <g
     inkscape:label="Capa 1"
     inkscape:groupmode="layer"
     id="layer1"
     transform="translate(17.143976,-86.27962)">
    <path
       id="path826-6"
       d="m -7.087526,90.216048 -3.92e-5,8.742614 c 0,1.158788 -0.9393843,2.098208 -2.0982251,2.098208 -1.1587917,0 -2.0981677,-0.93942 -2.0981677,-2.098208 v -6.994108 h 1.3987767 v 6.994108 c 0,0.386245 0.3131359,0.699381 0.699391,0.699381 0.3863046,0 0.349719,-0.313136 0.349719,-0.699381 l 5.22e-5,-8.742614 c 0,-0.965665 -0.4331744,-1.748543 -1.3988289,-1.748543 -0.96567,0 -1.748508,0.782831 -1.748508,1.748543 v 10.840782 c 0,1.54509 1.25253,2.79766 2.7976179,2.79766 1.5450855,0 2.7976083,-1.25257 2.7976083,-2.79766 v -8.39288 h 2.0982192 v 8.39288 c 0,2.70393 -2.1919455,4.89588 -4.8958275,4.89588 -2.7039289,0 -4.8958409,-2.19195 -4.8958409,-4.89588 V 89.866332 c 0,-1.931338 1.565669,-3.497052 3.497002,-3.497052 1.9313844,0 3.4970588,1.565714 3.4970588,3.497052 l -0.01724,0.349721 z"
       inkscape:connector-curvature="0"
       style="fill:#000000;fill-opacity:1;stroke-width:0.08834617;stroke-linejoin:round" />
    <g
       id="g3884"
       transform="matrix(0.65378507,0,0,0.66993611,-52.418685,85.173713)">
      <path
         sodipodi:nodetypes="cccccccccccccccccccccccccc"
         style="fill:#ffffff;fill-opacity:1;stroke-width:0.2;stroke-linejoin:round"
         inkscape:connector-curvature="0"
         id="path4-8-2"
         d="m 68.704793,31.158621 6.645087,0.0071 -0.0071,-1.856523 2.99053,-10e-7 v -6.619721 l -3.033227,0.02135 0.0071,-3.039911 -6.614983,0.04025 -0.02013,3.032203 -3.010064,0.02013 0.01667,6.58128 3.054574,-0.0427 z m 2.169147,-0.574723 v -3.374364 h -3.332097 v -2.249578 h 3.332097 v -3.374363 h 2.2214 v 3.374363 h 3.332096 v 2.249578 H 73.09534 v 3.374364 z" />
      <g
         transform="translate(9.2798462,-1.9384157)"
         id="g3849">
        <path
           d="m 60.734754,32.952694 h 4 v -3 h 3 v -4 h -3 v -3 h -4 v 3 h -3 v 4 h 3 z m 1,-1 v -3 h -3 v -2 h 3 v -3 h 2 v 3 h 3 v 2 h -3 v 3 z"
           id="path4-8"
           inkscape:connector-curvature="0"
           style="fill:#000000;fill-opacity:1;stroke-width:0.2;stroke-linejoin:round"
           sodipodi:nodetypes="cccccccccccccccccccccccccc" />
        <path
           style="fill:#ffffff;fill-opacity:0;stroke:none"
           d="m 61.747066,30.434092 v -1.508594 h -1.494362 -1.494363 v -0.98201 -0.982009 h 1.494363 1.494362 v -1.494363 -1.494362 h 0.982009 0.98201 v 1.494362 1.494363 h 1.508594 1.508595 v 0.981757 0.981758 l -1.501479,0.0074 -1.501478,0.0074 -0.0074,1.501478 -0.0074,1.501478 h -0.981758 -0.981758 v -1.508594 z"
           id="path3077"
           inkscape:connector-curvature="0" />
        <path
           style="fill:#ffffff;fill-opacity:1;stroke:none"
           d="M 61.752759,30.434092 V 28.925498 H 60.244164 58.73557 v -0.98201 -0.982009 h 1.508594 1.508595 v -1.494363 -1.494362 h 0.982009 0.98201 v 1.494362 1.494363 h 1.508594 1.508594 v 0.982009 0.98201 h -1.508594 -1.508594 v 1.508594 1.508594 h -0.98201 -0.982009 z"
           id="path3847"
           inkscape:connector-curvature="0" />
      </g>
    </g>
  </g>
</svg>
