<?xml version="1.0" encoding="UTF-8" standalone="no"?>
<svg
   xmlns:dc="http://purl.org/dc/elements/1.1/"
   xmlns:cc="http://creativecommons.org/ns#"
   xmlns:rdf="http://www.w3.org/1999/02/22-rdf-syntax-ns#"
   xmlns:svg="http://www.w3.org/2000/svg"
   xmlns="http://www.w3.org/2000/svg"
   xmlns:sodipodi="http://sodipodi.sourceforge.net/DTD/sodipodi-0.dtd"
   xmlns:inkscape="http://www.inkscape.org/namespaces/inkscape"
   version="1.1"
   width="76"
   height="76"
   viewBox="0 0 76.00 76.00"
   enable-background="new 0 0 76.00 76.00"
   xml:space="preserve"
   id="svg2"
   inkscape:version="0.48.4 r9939"
   sodipodi:docname="building.block.link.svg"><metadata
   id="metadata10"><rdf:RDF><cc:Work
       rdf:about=""><dc:format>image/svg+xml</dc:format><dc:type
         rdf:resource="http://purl.org/dc/dcmitype/StillImage" /><dc:title></dc:title></cc:Work></rdf:RDF></metadata><defs
   id="defs8" /><sodipodi:namedview
   pagecolor="#ffffff"
   bordercolor="#666666"
   borderopacity="1"
   objecttolerance="10"
   gridtolerance="10"
   guidetolerance="10"
   inkscape:pageopacity="0"
   inkscape:pageshadow="2"
   inkscape:window-width="1920"
   inkscape:window-height="1017"
   id="namedview6"
   showgrid="false"
   inkscape:zoom="1.0978763"
   inkscape:cx="687.42514"
   inkscape:cy="-34.528712"
   inkscape:window-x="-8"
   inkscape:window-y="-8"
   inkscape:window-maximized="1"
   inkscape:current-layer="svg2" />
	<path
   d="m 33.567215,3.7535587 c 4.518602,0 8.181592,1.627955 8.181592,3.6362632 0,2.0083079 -3.66299,3.6362641 -8.181592,3.6362641 -4.518603,0 -8.181592,-1.6279562 -8.181592,-3.6362641 l 0,7.2725261 c 0,2.008308 3.662989,3.636264 8.181592,3.636264 4.518602,0 8.181592,-1.627956 8.181592,-3.636264 l 0,-5.7642043 10.271353,2.9504633 c 1.411234,-0.513984 3.21591,-0.822521 5.182765,-0.822521 4.518603,0 8.181592,1.627954 8.181592,3.636262 0,2.008308 -3.662989,3.636264 -8.181592,3.636264 -4.518602,0 -8.181591,-1.627956 -8.181591,-3.636264 l 0,7.272526 c 0,2.008309 3.662989,3.636263 8.181591,3.636263 4.518603,0 8.181592,-1.627954 8.181592,-3.636263 l 0,-6.247463 9.090658,2.611201 0,29.090105 -24.530776,24.59841 -48.1944863,-13.689622 0,-29.090105 L 26.419776,4.4948109 27.690469,4.8598917 C 29.1777,4.177547 31.261096,3.7535587 33.567215,3.7535587 z M 5.3861759,30.240281 l 0,25.453842 41.8170251,11.878217 0,-25.453842 L 5.3861759,30.240281 z m 65.4527361,17.148436 0,-25.443662 -18.181315,18.231316 0,25.453841 18.191315,-18.241495 -0.01003,0 z m -18.181315,-12.726923 0,-7.272525 c -1.83e-4,2.008308 -3.663172,3.636264 -8.181593,3.636264 -4.518601,0 -8.181592,-1.627956 -8.181592,-3.636264 l 0,7.272525 c 0,2.008309 3.662991,3.636264 8.181592,3.636264 4.518421,0 8.181593,-1.627955 8.181593,-3.636264 z m -23.635711,-7.272525 0,-7.272527 c -1.83e-4,2.008308 -3.663171,3.636264 -8.181592,3.636264 -4.518602,0 -8.181592,-1.627956 -8.181592,-3.636264 l 0,7.272527 c 0,2.008308 3.66299,3.636264 8.181592,3.636264 4.518602,0 8.181592,-1.627956 8.181592,-3.636264 z"
   id="path4"
   inkscape:connector-curvature="0"
   style="fill:#000000;fill-opacity:1;stroke-linejoin:round" />
<g
   id="g3000"
   transform="translate(2.3340516,-2.3909797)"><path
     style="fill:#ffffff;fill-opacity:1;stroke:none"
     d="m 28.605348,41.855054 11.453126,3.136686 3.849409,7.131362 -3.070375,11.53026 L 32.22806,68.013507 14.404744,77.996483 3.3388748,75.540739 -0.49665509,67.97544 1.9299047,57.848377 10.44777,52.844842 z"
     id="rect2994"
     inkscape:connector-curvature="0"
     sodipodi:nodetypes="ccccccccccc" /><path
     style="fill:#000000;fill-opacity:1;stroke-width:0.2;stroke-linejoin:round"
     inkscape:connector-curvature="0"
     d="m 7.2798794,66.72587 1.583296,2.742397 4.3256996,1.1591 4.113701,-2.375 1.3712,-0.7917 2.7424,-1.583297 0.7916,1.371197 -1.159,4.3257 -6.856101,3.9584 -8.6513956,-2.3182 -3.1667,-5.4848 2.3181,-8.651497 6.8560956,-3.9584 4.3257,1.1591 0.7917,1.3712 -2.7424,1.5834 -1.3712,0.7916 -4.1136996,2.375 z m 15.2384966,-17.9393 6.856,-3.9584 8.6515,2.3182 3.1667,5.4848 -2.3182,8.6515 -6.856,3.9583 -4.3257,-1.1591 -0.7917,-1.3712 2.7424,-1.5833 1.3712,-0.7917 4.1136,-2.375 1.1591,-4.3257 -1.5833,-2.7424 -4.3258,-1.1591 -4.1136,2.375 -1.3712,0.7917 -2.7424,1.5833 -0.7917,-1.3712 z m -6.31433,17.700165 -2.162901,-0.5795 -1.1875,-2.0568 0.5796,-2.1629 14.157574,-7.81343 2.1629,0.5795 1.1875,2.0568 -0.5796,2.1629 z"
     id="path4-1"
     sodipodi:nodetypes="ccccccccccccccccccccccccccccccccccccccccccccccc" /></g></svg>