<?xml version="1.0" encoding="UTF-8" standalone="no"?>
<svg
   xmlns:dc="http://purl.org/dc/elements/1.1/"
   xmlns:cc="http://creativecommons.org/ns#"
   xmlns:rdf="http://www.w3.org/1999/02/22-rdf-syntax-ns#"
   xmlns:svg="http://www.w3.org/2000/svg"
   xmlns="http://www.w3.org/2000/svg"
   xmlns:sodipodi="http://sodipodi.sourceforge.net/DTD/sodipodi-0.dtd"
   xmlns:inkscape="http://www.inkscape.org/namespaces/inkscape"
   version="1.1"
   width="76"
   height="76"
   viewBox="0 0 76.00 76.00"
   enable-background="new 0 0 76.00 76.00"
   xml:space="preserve"
   id="svg2"
   inkscape:version="0.48.4 r9939"
   sodipodi:docname="building.block.save.svg"><metadata
   id="metadata10"><rdf:RDF><cc:Work
       rdf:about=""><dc:format>image/svg+xml</dc:format><dc:type
         rdf:resource="http://purl.org/dc/dcmitype/StillImage" /><dc:title></dc:title></cc:Work></rdf:RDF></metadata><defs
   id="defs8" /><sodipodi:namedview
   pagecolor="#ffffff"
   bordercolor="#666666"
   borderopacity="1"
   objecttolerance="10"
   gridtolerance="10"
   guidetolerance="10"
   inkscape:pageopacity="0"
   inkscape:pageshadow="2"
   inkscape:window-width="1920"
   inkscape:window-height="1017"
   id="namedview6"
   showgrid="false"
   inkscape:zoom="1.5526316"
   inkscape:cx="-140.07804"
   inkscape:cy="-20.857924"
   inkscape:window-x="-8"
   inkscape:window-y="-8"
   inkscape:window-maximized="1"
   inkscape:current-layer="svg2" />
	<path
   d="m 31.796029,0.11796545 c 4.518602,0 8.181592,1.62795505 8.181592,3.63626325 0,2.0083079 -3.66299,3.6362641 -8.181592,3.6362641 -4.518603,0 -8.181592,-1.6279562 -8.181592,-3.6362641 l 0,7.2725263 c 0,2.008308 3.662989,3.636264 8.181592,3.636264 4.518602,0 8.181592,-1.627956 8.181592,-3.636264 l 0,-5.7642045 10.271353,2.9504633 c 1.411234,-0.513984 3.21591,-0.822521 5.182765,-0.822521 4.518603,0 8.181592,1.627954 8.181592,3.6362622 0,2.008308 -3.662989,3.636264 -8.181592,3.636264 -4.518602,0 -8.181591,-1.627956 -8.181591,-3.636264 l 0,7.272526 c 0,2.008309 3.662989,3.636263 8.181591,3.636263 4.518603,0 8.181592,-1.627954 8.181592,-3.636263 l 0,-6.247463 9.090658,2.611201 0,29.090105 -24.530776,24.59841 -48.19448674,-13.689622 0,-29.090105 L 24.64859,0.85921765 25.919283,1.2242985 C 27.406514,0.54195375 29.48991,0.11796545 31.796029,0.11796545 z M 3.6149895,26.604688 l 0,25.453842 41.8170255,11.878217 0,-25.453842 L 3.6149895,26.604688 z m 65.4527365,17.148436 0,-25.443662 -18.181315,18.231316 0,25.453841 18.191315,-18.241495 -0.01003,0 z m -18.181315,-12.726923 0,-7.272525 c -1.83e-4,2.008308 -3.663172,3.636264 -8.181593,3.636264 -4.518601,0 -8.181592,-1.627956 -8.181592,-3.636264 l 0,7.272525 c 0,2.008309 3.662991,3.636264 8.181592,3.636264 4.518421,0 8.181593,-1.627955 8.181593,-3.636264 z M 27.2507,23.753676 l 0,-7.272527 c -1.83e-4,2.008308 -3.663171,3.636264 -8.181592,3.636264 -4.518602,0 -8.181592,-1.627956 -8.181592,-3.636264 l 0,7.272527 c 0,2.008308 3.66299,3.636264 8.181592,3.636264 4.518602,0 8.181592,-1.627956 8.181592,-3.636264 z"
   id="path4"
   inkscape:connector-curvature="0"
   style="fill:#000000;fill-opacity:1;stroke-linejoin:round" />
<rect
   style="fill:#ffffff;fill-opacity:1;stroke:none"
   id="rect2987"
   width="35.262714"
   height="34.457626"
   x="39.516945"
   y="40.483051" /><path
   d="m 41.604508,42.248582 31.731658,0 0,31.731653 -8.654073,0 0,-10.096476 -14.423514,0 0,10.096476 -8.654071,0 0,-31.731653 z m 11.538787,31.731653 0,-4.327034 5.76935,0 0,4.327034 -5.76935,0 z m -5.76935,-28.846931 0,8.654069 20.192773,0 0,-8.654069 -20.192773,0 z"
   id="path4-1"
   inkscape:connector-curvature="0"
   style="fill:#000000;fill-opacity:1;stroke-width:0.2;stroke-linejoin:round" /></svg>