<?xml version="1.0" encoding="UTF-8" standalone="no"?>
<svg
   xmlns:dc="http://purl.org/dc/elements/1.1/"
   xmlns:cc="http://creativecommons.org/ns#"
   xmlns:rdf="http://www.w3.org/1999/02/22-rdf-syntax-ns#"
   xmlns:svg="http://www.w3.org/2000/svg"
   xmlns="http://www.w3.org/2000/svg"
   xmlns:sodipodi="http://sodipodi.sourceforge.net/DTD/sodipodi-0.dtd"
   xmlns:inkscape="http://www.inkscape.org/namespaces/inkscape"
   version="1.1"
   width="76"
   height="76"
   viewBox="0 0 76.00 76.00"
   enable-background="new 0 0 76.00 76.00"
   xml:space="preserve"
   id="svg2"
   inkscape:version="0.91 r13725"
   sodipodi:docname="category.svg"><metadata
     id="metadata10"><rdf:RDF><cc:Work
         rdf:about=""><dc:format>image/svg+xml</dc:format><dc:type
           rdf:resource="http://purl.org/dc/dcmitype/StillImage" /></cc:Work></rdf:RDF></metadata><defs
     id="defs8" /><sodipodi:namedview
     pagecolor="#ffffff"
     bordercolor="#666666"
     borderopacity="1"
     objecttolerance="10"
     gridtolerance="10"
     guidetolerance="10"
     inkscape:pageopacity="0"
     inkscape:pageshadow="2"
     inkscape:window-width="1855"
     inkscape:window-height="1056"
     id="namedview6"
     showgrid="false"
     inkscape:zoom="11.00185"
     inkscape:cx="38"
     inkscape:cy="37.497039"
     inkscape:window-x="65"
     inkscape:window-y="24"
     inkscape:window-maximized="1"
     inkscape:current-layer="svg2" /><path
     d="m 11.573502,0.36677069 17.610434,0 L 74.010735,45.19357 c 2.500928,2.500724 2.500726,6.555353 0,9.05628 L 54.249832,74.010754 c -2.500726,2.500724 -6.555556,2.500724 -9.056281,0 L 0.36675198,29.183956 l 0,-17.610435 c 0,-3.7355161 0,-7.4712343 1.86775792,-9.3389922 C 4.102268,0.36677069 7.8379862,0.36677069 11.573502,0.36677069 Z m 4.802864,9.60572811 c -3.536728,0 -6.4038859,2.8671582 -6.4038859,6.4038862 0,3.536727 2.8671579,6.403684 6.4038859,6.403684 3.536729,0 6.403684,-2.866957 6.403684,-6.403684 0,-3.536728 -2.866955,-6.4038862 -6.403684,-6.4038862 z M 35.58762,22.780272 22.78005,35.588044 48.39519,61.203184 61.20276,48.395412 35.58762,22.780272 Z"
     id="path4"
     inkscape:connector-curvature="0"
     style="fill:#000000;fill-opacity:1;stroke-width:0.2;stroke-linejoin:round" /></svg>