<?xml version="1.0" encoding="UTF-8" standalone="no"?>
<svg
   xmlns:dc="http://purl.org/dc/elements/1.1/"
   xmlns:cc="http://creativecommons.org/ns#"
   xmlns:rdf="http://www.w3.org/1999/02/22-rdf-syntax-ns#"
   xmlns:svg="http://www.w3.org/2000/svg"
   xmlns="http://www.w3.org/2000/svg"
   xmlns:sodipodi="http://sodipodi.sourceforge.net/DTD/sodipodi-0.dtd"
   xmlns:inkscape="http://www.inkscape.org/namespaces/inkscape"
   version="1.1"
   width="76"
   height="76"
   viewBox="0 0 76.00 76.00"
   enable-background="new 0 0 76.00 76.00"
   xml:space="preserve"
   id="svg2"
   inkscape:version="0.48.4 r9939"
   sodipodi:docname="document.upload.processed.svg"><metadata
   id="metadata10"><rdf:RDF><cc:Work
       rdf:about=""><dc:format>image/svg+xml</dc:format><dc:type
         rdf:resource="http://purl.org/dc/dcmitype/StillImage" /><dc:title></dc:title></cc:Work></rdf:RDF></metadata><defs
   id="defs8" /><sodipodi:namedview
   pagecolor="#ffffff"
   bordercolor="#666666"
   borderopacity="1"
   objecttolerance="10"
   gridtolerance="10"
   guidetolerance="10"
   inkscape:pageopacity="0"
   inkscape:pageshadow="2"
   inkscape:window-width="1920"
   inkscape:window-height="1017"
   id="namedview6"
   showgrid="false"
   inkscape:zoom="12.421053"
   inkscape:cx="64.500149"
   inkscape:cy="18.760242"
   inkscape:window-x="1912"
   inkscape:window-y="-8"
   inkscape:window-maximized="1"
   inkscape:current-layer="svg2" />
	<path
   d="m 5.37046,-0.06779661 42.324758,0 23.210351,23.21035161 0,53.247276 -65.535109,0 0,-76.45762761 z m 7.281678,7.28167871 0,61.8942699 50.971753,0 0,-38.228814 -23.665457,0 0,-23.6654559 -27.306296,0 z m 34.587976,2.2755247 0,14.1082532 14.108251,0 L 47.240114,9.4894068 z m -23.665457,46.8758072 7.281679,0 0,-15.473567 5.461259,5.461258 0,-8.646993 -9.102099,-9.102099 -9.102098,10.012309 0,7.736783 5.461259,-5.461258 0,15.473567 z m 14.563358,1.82042 0,7.281678 -21.845036,0 0,-7.281678 21.845036,0 z"
   id="path4"
   inkscape:connector-curvature="0"
   style="fill:#000000;fill-opacity:1;stroke-width:0.2;stroke-linejoin:round" />
<path
   d="m 41.154856,76.229408 c 0.532833,1.360489 -0.207982,-0.06391 0.506602,1.193243 1.274381,0.131687 2.567794,0.199174 3.877043,0.199174 2.829127,0 5.58456,-0.315253 8.233223,-0.912591 -3.654,-3.674864 -4.543464,-6.001916 -4.543464,-11.593639 0,-11.225163 9.099808,-20.324976 20.324976,-20.324976 5.386011,0 4.419275,0.50838 6.347484,0.792809 0.467808,1.263124 0.752752,-1.208301 0.911451,-3.669249 0.127669,-1.979752 0.184131,-2.784664 0.32178,-5.147318 -0.04392,-2.580355 -0.377281,-1.147881 -0.321917,-1.269249 l -0.356759,-8.728601 c -2.198841,-0.393129 -4.461651,-0.601835 -6.771743,-0.609323 l -1.926168,8.520551 c -3.430102,0.199174 -6.707888,0.965541 -9.741229,2.206542 l -5.42014,-6.85294 c -2.05228,0.993786 -4.004119,2.16247 -5.836262,3.486484 l 3.451082,8.02815 c -2.582449,2.122036 -4.809961,4.660197 -6.579951,7.512003 l -8.415602,-2.359086 c -1.066849,1.985321 -1.96661,4.073873 -2.680441,6.246826 l 7.511791,4.466895 c -0.640136,2.459748 -0.98084,5.040378 -0.98084,7.700491 l 0.08152,2.246875 c -8.338538,3.005112 -9.233935,1.663366 -6.694308,9.668269 z"
   id="path4-9"
   inkscape:connector-curvature="0"
   style="fill:#000000;fill-opacity:1;stroke:#ffffff;stroke-width:2.53991222;stroke-linejoin:round;stroke-miterlimit:4;stroke-opacity:1;stroke-dasharray:none"
   sodipodi:nodetypes="ccscsscsccccccccccccccccc" /></svg>