<?xml version="1.0" encoding="UTF-8" standalone="no"?>
<svg
   xmlns:dc="http://purl.org/dc/elements/1.1/"
   xmlns:cc="http://creativecommons.org/ns#"
   xmlns:rdf="http://www.w3.org/1999/02/22-rdf-syntax-ns#"
   xmlns:svg="http://www.w3.org/2000/svg"
   xmlns="http://www.w3.org/2000/svg"
   xmlns:sodipodi="http://sodipodi.sourceforge.net/DTD/sodipodi-0.dtd"
   xmlns:inkscape="http://www.inkscape.org/namespaces/inkscape"
   version="1.1"
   width="76"
   height="76"
   viewBox="0 0 76.00 76.00"
   enable-background="new 0 0 76.00 76.00"
   xml:space="preserve"
   id="svg2"
   inkscape:version="0.48.4 r9939"
   sodipodi:docname="element.show.svg"><metadata
   id="metadata10"><rdf:RDF><cc:Work
       rdf:about=""><dc:format>image/svg+xml</dc:format><dc:type
         rdf:resource="http://purl.org/dc/dcmitype/StillImage" /></cc:Work></rdf:RDF></metadata><defs
   id="defs8" /><sodipodi:namedview
   pagecolor="#ffffff"
   bordercolor="#666666"
   borderopacity="1"
   objecttolerance="10"
   gridtolerance="10"
   guidetolerance="10"
   inkscape:pageopacity="0"
   inkscape:pageshadow="2"
   inkscape:window-width="1920"
   inkscape:window-height="1017"
   id="namedview6"
   showgrid="false"
   inkscape:zoom="8.7830105"
   inkscape:cx="87.12346"
   inkscape:cy="43.966864"
   inkscape:window-x="-8"
   inkscape:window-y="-8"
   inkscape:window-maximized="1"
   inkscape:current-layer="svg2" />
	
<path
   d="m 38.000072,31.384772 c 3.831331,0 6.937191,3.10586 6.937191,6.937191 0,3.831329 -3.10586,6.937047 -6.937191,6.937047 -3.831329,0 -6.937047,-3.105718 -6.937047,-6.937047 0,-3.831331 3.105861,-6.937191 6.937047,-6.937191 z m 0,-11.561842 c 16.186636,0 30.060874,11.561985 30.060874,18.499033 0,6.937047 -13.874238,18.499031 -30.060874,18.499031 -16.186634,0 -30.0608733,-11.561984 -30.0608733,-18.499031 0,-6.937048 13.8742393,-18.499033 30.0608733,-18.499033 z m 0,5.780991 c -7.023937,0 -12.718039,5.694104 -12.718039,12.718042 0,7.023937 5.693958,12.718039 12.718039,12.718039 7.023938,0 12.71804,-5.694102 12.71804,-12.718039 0,-7.023938 -5.694102,-12.718042 -12.71804,-12.718042 z"
   id="path4"
   inkscape:connector-curvature="0"
   style="fill:#000000;fill-opacity:1;stroke-width:0.2;stroke-linejoin:round"
   sodipodi:nodetypes="sssssssssssssss" /></svg>