<?xml version="1.0" encoding="UTF-8" standalone="no"?>
<svg
   xmlns:dc="http://purl.org/dc/elements/1.1/"
   xmlns:cc="http://creativecommons.org/ns#"
   xmlns:rdf="http://www.w3.org/1999/02/22-rdf-syntax-ns#"
   xmlns:svg="http://www.w3.org/2000/svg"
   xmlns="http://www.w3.org/2000/svg"
   xmlns:sodipodi="http://sodipodi.sourceforge.net/DTD/sodipodi-0.dtd"
   xmlns:inkscape="http://www.inkscape.org/namespaces/inkscape"
   version="1.1"
   width="76"
   height="76"
   viewBox="0 0 76.00 76.00"
   enable-background="new 0 0 76.00 76.00"
   xml:space="preserve"
   id="svg2"
   inkscape:version="0.48.4 r9939"
   sodipodi:docname="element.remove.all.svg"><metadata
   id="metadata10"><rdf:RDF><cc:Work
       rdf:about=""><dc:format>image/svg+xml</dc:format><dc:type
         rdf:resource="http://purl.org/dc/dcmitype/StillImage" /><dc:title></dc:title></cc:Work></rdf:RDF></metadata><defs
   id="defs8" /><sodipodi:namedview
   pagecolor="#ffffff"
   bordercolor="#666666"
   borderopacity="1"
   objecttolerance="10"
   gridtolerance="10"
   guidetolerance="10"
   inkscape:pageopacity="0"
   inkscape:pageshadow="2"
   inkscape:window-width="1920"
   inkscape:window-height="1017"
   id="namedview6"
   showgrid="false"
   inkscape:zoom="1.0978763"
   inkscape:cx="-148.4105"
   inkscape:cy="-34.694981"
   inkscape:window-x="1912"
   inkscape:window-y="-8"
   inkscape:window-maximized="1"
   inkscape:current-layer="svg2" />
	
<path
   d="M 74.249648,1.7623784 C 73.997549,6.926282 70.727358,21.853023 46.083407,46.496974 L 44.426457,61.40857 29.514861,76.320166 31.171811,61.40857 14.603457,44.840215 -0.30813902,46.496974 14.603457,31.58557 29.514861,29.92862 C 54.158812,5.2846683 68.257365,1.1860979 74.249648,1.7623784 z m -63.78828,63.7882796 5.798848,-15.739975 9.941127,9.941128 z"
   id="path4"
   inkscape:connector-curvature="0"
   style="fill:#000000;fill-opacity:1;stroke-width:0.2;stroke-linejoin:round"
   sodipodi:nodetypes="cccccccccccccc" /><path
   style="fill:#ffffff;fill-opacity:1;stroke-width:0.2;stroke-linejoin:round"
   inkscape:connector-curvature="0"
   d="m 45.910011,29.690425 c 0.695873,0.32372 0.997575,1.15028 0.673859,1.846157 -0.323716,0.695874 -1.150282,0.997573 -1.846157,0.673858 -0.695875,-0.323716 -0.997573,-1.15028 -0.673857,-1.846155 0.32372,-0.695874 1.150278,-0.997575 1.846155,-0.67386 z m 6.97381,4.776857 -5.039986,-2.344573 c 0.447954,-0.962941 0.297112,-2.050959 -0.29929,-2.844441 l 4.441342,-3.344391 c 1.789294,2.38049 2.241778,5.644627 0.897934,8.533405 z M 42.803889,29.778158 37.763903,27.433581 c 1.343842,-2.888776 4.131955,-4.645406 7.105356,-4.810319 l 0.30305,5.551453 c -0.991147,0.05496 -1.920466,0.6405 -2.36842,1.603443 z m -0.996877,8.732232 c -1.286465,-0.598455 -2.348364,-1.483324 -3.145177,-2.543404 l 4.441325,-3.344347 c 0.265601,0.353366 0.619615,0.648289 1.048425,0.847767 0.428807,0.19948 0.882439,0.280269 1.323829,0.255743 l 0.303051,5.551452 c -1.324118,0.07344 -2.684986,-0.168743 -3.971453,-0.767211 z"
   id="path4-7" /></svg>