<?xml version="1.0" encoding="UTF-8" standalone="no"?>
<svg
        xmlns:dc="http://purl.org/dc/elements/1.1/"
        xmlns:cc="http://creativecommons.org/ns#"
        xmlns:rdf="http://www.w3.org/1999/02/22-rdf-syntax-ns#"
        xmlns="http://www.w3.org/2000/svg"
        xmlns:sodipodi="http://sodipodi.sourceforge.net/DTD/sodipodi-0.dtd"
        xmlns:inkscape="http://www.inkscape.org/namespaces/inkscape"
        version="1.1"
        width="76"
        height="76"
        viewBox="0 0 76.00 76.00"
        enable-background="new 0 0 76.00 76.00"
        xml:space="preserve"
        id="svg2"
        inkscape:version="0.48.4 r9939"
        sodipodi:docname="file.pdf.svg"><metadata
   id="metadata10"><rdf:RDF><cc:Work
       rdf:about=""><dc:format>image/svg+xml</dc:format><dc:type
         rdf:resource="http://purl.org/dc/dcmitype/StillImage" /><dc:title></dc:title></cc:Work></rdf:RDF></metadata><defs
   id="defs8" /><sodipodi:namedview
   pagecolor="#ffffff"
   bordercolor="#666666"
   borderopacity="1"
   objecttolerance="10"
   gridtolerance="10"
   guidetolerance="10"
   inkscape:pageopacity="0"
   inkscape:pageshadow="2"
   inkscape:window-width="1920"
   inkscape:window-height="1017"
   id="namedview6"
   showgrid="false"
   inkscape:zoom="8.7830108"
   inkscape:cx="-1.4971468"
   inkscape:cy="24.73228"
   inkscape:window-x="-8"
   inkscape:window-y="-8"
   inkscape:window-maximized="1"
   inkscape:current-layer="svg2" />
	<path
   d="m 7.3811166,0.57661574 37.8802054,0 19.593239,19.62048126 0,33.147296 c 3.044005,1.077433 5.224918,3.984569 5.224918,7.40159 l 0,7.848192 c 0,4.334516 -3.508963,7.848193 -7.837295,7.848193 l -33.186477,0 c -4.328497,0 -7.837295,-3.513677 -7.837295,-7.848193 l -13.8372954,0 z M 59.629808,26.737203 l -20.89951,0 0,-20.928569 -26.124263,1.652e-4 0,57.5533578 8.612377,0 0,-2.616009 c 0,-4.334516 3.508798,-7.84817 7.837295,-7.848193 L 59.629808,52.89779 z M 43.955051,7.1168864 l 0,14.3881326 14.36832,0 z"
   id="path4"
   inkscape:connector-curvature="0"
   style="fill:#000000;fill-opacity:1;stroke-width:0.2;stroke-linejoin:round"
   sodipodi:nodetypes="ccccsssscccccccccsscccccc" />



<g
   style="font-size:20.47614288px;font-style:normal;font-weight:bold;line-height:125%;letter-spacing:0px;word-spacing:0px;fill:#ffffff;fill-opacity:1;stroke:none;font-family:Sans;-inkscape-font-specification:Sans Bold"
   id="text2987"><path
     d="m 26.468763,72.024803 0,-14.657239 4.749106,0 c 1.799653,1.5e-5 2.972764,0.07333 3.519337,0.219959 0.839831,0.219973 1.543031,0.698215 2.109602,1.434729 0.566548,0.736541 0.849828,1.688027 0.84984,2.854463 -1.2e-5,0.89984 -0.163315,1.656363 -0.489907,2.269572 -0.326617,0.613225 -0.741539,1.094801 -1.244766,1.444728 -0.503249,0.34994 -1.014819,0.581563 -1.534711,0.694869 -0.706542,0.139979 -1.729682,0.209966 -3.069422,0.209961 l -1.929636,0 0,5.528958 z m 2.959443,-12.177706 0,4.159217 1.619695,0 c 1.166439,8e-6 1.946292,-0.07665 2.339559,-0.229957 0.393251,-0.153296 0.701525,-0.393251 0.924826,-0.719864 0.223282,-0.326596 0.334927,-0.706524 0.334937,-1.139786 -10e-6,-0.533222 -0.156647,-0.973139 -0.469912,-1.319751 -0.313283,-0.34659 -0.709874,-0.563215 -1.189776,-0.649878 -0.353274,-0.06664 -1.06314,-0.09997 -2.129598,-0.09998 z"
     style=""
     id="path3015" /><path
     d="m 40.136189,57.367564 5.408981,0 c 1.219762,1.5e-5 2.149586,0.09333 2.789474,0.279947 0.859828,0.2533 1.596355,0.703215 2.209584,1.349746 0.613205,0.646557 1.079784,1.438074 1.399736,2.374553 0.319927,0.9365 0.479896,2.091281 0.47991,3.464347 -1.4e-5,1.206446 -0.149985,2.246249 -0.449915,3.119413 -0.366611,1.066468 -0.889845,1.929638 -1.569705,2.589512 -0.513247,0.499907 -1.206449,0.889833 -2.079608,1.16978 -0.653219,0.206627 -1.526387,0.309941 -2.619506,0.309941 l -5.568951,0 z m 2.959442,2.479533 0,9.708171 2.209584,0 c 0.826504,3e-6 1.423057,-0.04666 1.789663,-0.139973 0.479901,-0.119975 0.878158,-0.32327 1.194775,-0.609885 0.316597,-0.28661 0.574881,-0.758187 0.774854,-1.414734 0.199952,-0.656538 0.299933,-1.551368 0.299943,-2.684494 -10e-6,-1.133112 -0.09999,-2.002947 -0.299943,-2.609509 -0.199973,-0.606542 -0.47992,-1.079785 -0.839842,-1.419732 -0.359941,-0.339925 -0.816522,-0.569881 -1.369742,-0.68987 -0.413263,-0.0933 -1.22311,-0.139962 -2.429542,-0.139974 z"
     style=""
     id="path3017" /><path
     d="m 54.963396,72.024803 0,-14.657239 10.048107,0 0,2.479533 -7.088665,0 0,3.469347 6.118848,0 0,2.479532 -6.118848,0 0,6.228827 z"
     style=""
     id="path3019" /></g></svg>