<?xml version="1.0" encoding="UTF-8" standalone="no"?>
<svg
   xmlns:dc="http://purl.org/dc/elements/1.1/"
   xmlns:cc="http://creativecommons.org/ns#"
   xmlns:rdf="http://www.w3.org/1999/02/22-rdf-syntax-ns#"
   xmlns:svg="http://www.w3.org/2000/svg"
   xmlns="http://www.w3.org/2000/svg"
   xmlns:sodipodi="http://sodipodi.sourceforge.net/DTD/sodipodi-0.dtd"
   xmlns:inkscape="http://www.inkscape.org/namespaces/inkscape"
   version="1.1"
   width="76"
   height="76"
   viewBox="0 0 76.00 76.00"
   enable-background="new 0 0 76.00 76.00"
   xml:space="preserve"
   id="svg2"
   inkscape:version="0.48.4 r9939"
   sodipodi:docname="file.json.svg"><metadata
   id="metadata10"><rdf:RDF><cc:Work
       rdf:about=""><dc:format>image/svg+xml</dc:format><dc:type
         rdf:resource="http://purl.org/dc/dcmitype/StillImage" /><dc:title></dc:title></cc:Work></rdf:RDF></metadata><defs
   id="defs8" /><sodipodi:namedview
   pagecolor="#ffffff"
   bordercolor="#666666"
   borderopacity="1"
   objecttolerance="10"
   gridtolerance="10"
   guidetolerance="10"
   inkscape:pageopacity="0"
   inkscape:pageshadow="2"
   inkscape:window-width="1920"
   inkscape:window-height="1017"
   id="namedview6"
   showgrid="false"
   inkscape:zoom="3.1052633"
   inkscape:cx="78.674065"
   inkscape:cy="-24.839698"
   inkscape:window-x="1912"
   inkscape:window-y="-8"
   inkscape:window-maximized="1"
   inkscape:current-layer="svg2" />
	<path
   d="m 7.3811166,0.57661574 37.8802054,0 19.593239,19.62048126 0,33.147296 c 3.044005,1.077433 5.224918,3.984569 5.224918,7.40159 l 0,7.848192 c 0,4.334516 -3.508963,7.848193 -7.837295,7.848193 l -33.186477,0 c -4.328497,0 -7.837295,-3.513677 -7.837295,-7.848193 l -13.8372954,0 z M 59.629808,26.737203 l -20.89951,0 0,-20.928569 -26.124263,1.652e-4 0,57.5533578 8.612377,0 0,-2.616009 c 0,-4.334516 3.508798,-7.84817 7.837295,-7.848193 L 59.629808,52.89779 z M 43.955051,7.1168864 l 0,14.3881326 14.36832,0 z"
   id="path4"
   inkscape:connector-curvature="0"
   style="fill:#000000;fill-opacity:1;stroke-width:0.2;stroke-linejoin:round"
   sodipodi:nodetypes="ccccsssscccccccccsscccccc" />



<g
   style="font-size:20.47614288px;font-style:normal;font-weight:bold;line-height:125%;letter-spacing:0px;word-spacing:0px;fill:#ffffff;fill-opacity:1;stroke:none;font-family:Sans;-inkscape-font-specification:Sans Bold"
   id="text2987"><path
     d="m 31.757767,57.367564 2.949444,0 0,9.278252 c -9e-6,1.213109 -0.106656,2.146266 -0.319939,2.799473 -0.286622,0.853174 -0.806524,1.538045 -1.559706,2.054613 -0.753199,0.516569 -1.746344,0.774854 -2.979439,0.774854 -1.446398,0 -2.55952,-0.404923 -3.339371,-1.214771 -0.779854,-0.809846 -1.173113,-1.997954 -1.179778,-3.564329 l 2.789475,-0.319939 c 0.03332,0.839845 0.156633,1.433066 0.36993,1.779664 0.319936,0.52657 0.80651,0.789854 1.459725,0.789852 0.65987,2e-6 1.126448,-0.188296 1.399736,-0.564894 0.273275,-0.376593 0.409916,-1.158111 0.409923,-2.344558 z"
     style=""
     id="path2985" /><path
     d="m 37.116757,67.255702 2.879458,-0.279948 c 0.173297,0.966489 0.524897,1.676355 1.054801,2.129599 0.529895,0.453251 1.24476,0.679874 2.144596,0.679872 0.953146,2e-6 1.671344,-0.201626 2.154595,-0.604886 0.483232,-0.403254 0.724853,-0.874832 0.724863,-1.414734 -10e-6,-0.346596 -0.101657,-0.64154 -0.304943,-0.884833 -0.203304,-0.243282 -0.558237,-0.454909 -1.064799,-0.63488 -0.346609,-0.119972 -1.13646,-0.333265 -2.369554,-0.63988 -1.586372,-0.393252 -2.699494,-0.876494 -3.339371,-1.449727 -0.899832,-0.806506 -1.349747,-1.789653 -1.349745,-2.949444 -2e-6,-0.746515 0.211625,-1.444716 0.63488,-2.094605 0.423251,-0.649865 1.033136,-1.144771 1.829655,-1.484721 0.796513,-0.339921 1.757997,-0.509889 2.884457,-0.509904 1.839645,1.5e-5 3.224383,0.403272 4.154218,1.209772 0.929813,0.806528 1.418054,1.882991 1.464724,3.229392 l -2.959443,0.129976 c -0.126652,-0.753181 -0.398267,-1.294745 -0.814846,-1.624694 -0.416597,-0.329926 -1.041478,-0.494895 -1.874647,-0.494907 -0.859844,1.2e-5 -1.53305,0.176646 -2.01962,0.5299 -0.313278,0.226636 -0.469915,0.529912 -0.469911,0.909829 -4e-6,0.346612 0.146634,0.643222 0.439917,0.889832 0.373258,0.313284 1.279753,0.639889 2.719488,0.979815 1.43972,0.339945 2.504518,0.691545 3.194398,1.054802 0.689859,0.363272 1.229756,0.859845 1.619695,1.489719 0.389914,0.629887 0.584877,1.408073 0.58489,2.33456 -1.3e-5,0.839846 -0.233302,1.626363 -0.699869,2.359556 -0.46659,0.733196 -1.126465,1.278093 -1.979627,1.634692 -0.853181,0.356599 -1.916313,0.534899 -3.189399,0.534899 -1.852989,0 -3.276053,-0.428252 -4.269196,-1.284758 -0.993148,-0.856503 -1.586369,-2.1046 -1.779665,-3.744294 z"
     style=""
     id="path2987" /><path
     d="m 51.574033,72.024803 0,-14.657239 2.879458,0 5.99887,9.788156 0,-9.788156 2.749482,0 0,14.657239 -2.969441,0 -5.908887,-9.558199 0,9.558199 z"
     style=""
     id="path2989" /></g>
</svg>