<?xml version="1.0" encoding="UTF-8" standalone="no"?>
<svg
   xmlns:dc="http://purl.org/dc/elements/1.1/"
   xmlns:cc="http://creativecommons.org/ns#"
   xmlns:rdf="http://www.w3.org/1999/02/22-rdf-syntax-ns#"
   xmlns:svg="http://www.w3.org/2000/svg"
   xmlns="http://www.w3.org/2000/svg"
   xmlns:sodipodi="http://sodipodi.sourceforge.net/DTD/sodipodi-0.dtd"
   xmlns:inkscape="http://www.inkscape.org/namespaces/inkscape"
   version="1.1"
   width="76"
   height="76"
   viewBox="0 0 76.00 76.00"
   enable-background="new 0 0 76.00 76.00"
   xml:space="preserve"
   id="svg2"
   inkscape:version="0.48.4 r9939"
   sodipodi:docname="flow.clear.svg"><metadata
   id="metadata10"><rdf:RDF><cc:Work
       rdf:about=""><dc:format>image/svg+xml</dc:format><dc:type
         rdf:resource="http://purl.org/dc/dcmitype/StillImage" /><dc:title></dc:title></cc:Work></rdf:RDF></metadata><defs
   id="defs8" /><sodipodi:namedview
   pagecolor="#ffffff"
   bordercolor="#666666"
   borderopacity="1"
   objecttolerance="10"
   gridtolerance="10"
   guidetolerance="10"
   inkscape:pageopacity="0"
   inkscape:pageshadow="2"
   inkscape:window-width="1920"
   inkscape:window-height="1017"
   id="namedview6"
   showgrid="false"
   inkscape:zoom="0.77631579"
   inkscape:cx="252.82477"
   inkscape:cy="-129.24254"
   inkscape:window-x="-8"
   inkscape:window-y="-8"
   inkscape:window-maximized="1"
   inkscape:current-layer="svg2" />
	<path
   d="m 13.985038,1.529661 c 6.122932,0 11.086593,4.9636609 11.086593,11.086732 l -0.128419,1.692832 12.4999,4.549556 c 1.49005,-1.134343 3.350093,-1.807807 5.367263,-1.807807 4.898401,0 8.869302,3.971041 8.869302,8.869442 0,4.898401 -3.970901,8.869302 -8.869302,8.869302 -0.828071,0 -1.629533,-0.113434 -2.389823,-0.325598 l -9.024049,6.800036 c 0.213145,0.76183 0.327139,1.565113 0.327139,2.394864 0,1.15745 -0.221687,2.262944 -0.624869,3.276711 l 4.983127,4.33165 c 1.378017,-0.614646 2.904759,-0.956349 4.511184,-0.956349 6.122932,0 11.086593,4.963801 11.086593,11.086732 0,6.123072 -4.963661,11.086733 -11.086593,11.086733 -6.123071,0 -11.086732,-4.963661 -11.086732,-11.086733 0,-2.074167 0.569552,-4.015294 1.560912,-5.675496 l -4.571122,-3.973562 c -1.111096,0.500932 -2.343889,0.779756 -3.641802,0.779756 -4.898401,0 -8.869302,-3.971041 -8.869302,-8.869442 0,-4.898401 3.970901,-8.869302 8.869302,-8.869302 1.632194,0 3.161456,0.440854 4.475054,1.210106 l 7.70639,-5.807276 c -0.697831,-1.267103 -1.094711,-2.723263 -1.094711,-4.272132 l 0.08403,-1.226771 -12.053865,-4.387246 c -2.01689,2.093913 -4.849386,3.396587 -7.986195,3.396587 -6.1230711,0 -11.0867321,-4.963661 -11.0867321,-11.086593 0,-6.1230711 4.963661,-11.086732 11.0867321,-11.086732 z m 0,4.434721 c -3.67387,0 -6.6520111,2.9781405 -6.6520111,6.652011 0,3.673871 2.9781411,6.652012 6.6520111,6.652012 3.673731,0 6.652012,-2.978141 6.652012,-6.652012 0,-3.6738705 -2.978281,-6.652011 -6.652012,-6.652011 z m 28.825337,15.521313 c -2.449201,0 -4.434721,1.985521 -4.434721,4.434721 0,2.449201 1.98552,4.434721 4.434721,4.434721 2.4492,0 4.434581,-1.98552 4.434581,-4.434721 0,-2.4492 -1.985381,-4.434721 -4.434581,-4.434721 z m -2.217431,33.260058 c -3.673731,0 -6.652011,2.97828 -6.652011,6.652011 0,3.673871 2.97828,6.652012 6.652011,6.652012 3.673871,0 6.652012,-2.978141 6.652012,-6.652012 0,-3.673731 -2.978141,-6.652011 -6.652012,-6.652011 z M 22.85434,39.224439 c -2.4492,0 -4.434721,1.985381 -4.434721,4.434581 0,2.449201 1.985521,4.434721 4.434721,4.434721 2.449201,0 4.434581,-1.98552 4.434581,-4.434721 0,-2.4492 -1.98538,-4.434581 -4.434581,-4.434581 z"
   id="path4"
   inkscape:connector-curvature="0"
   style="fill:#000000;fill-opacity:1;stroke-width:0.2;stroke-linejoin:round" />
<g
   transform="translate(23.335969,-7.0750624)"
   id="g3779"><g
     id="g3768"
     transform="translate(-17.886288,-8.00565)"><path
       d="M 60.687422,81.076028 C 55.210226,81.837392 48.507519,81.230193 41.553777,79.367036 29.850096,76.230914 21.90039,69.987907 18.976536,63.779641 L 33.591172,49.546828 60.440175,59.831755 z M 45.056961,40.552089 c 0.730009,0 0.745477,-0.02371 1.446676,0.06674 L 58.417872,18.369124 67.812126,23.0476 56.989378,43.933396 c 3.391815,2.336203 4.764686,5.880538 4.764686,9.950673 0,1.747914 -0.56267,3.816177 -1.289715,5.333183 L 33.277158,48.599851 c 2.255067,-4.495517 5.809435,-8.047762 11.779803,-8.047762 z"
       id="path4-1"
       inkscape:connector-curvature="0"
       style="fill:#ffffff;fill-opacity:1;stroke-width:0.2;stroke-linejoin:round"
       sodipodi:nodetypes="ccccccsccccsccs" /><path
       d="M 59.067909,79.442849 C 54.210695,80.118031 48.26669,78.973753 42.100066,77.321493 31.721164,74.540359 23.661627,69.004019 21.068734,63.498487 l 12.725694,-12.725694 25.273481,9.47772 z M 46.945446,41.662534 c 0.647377,0 1.283484,0.04171 1.905312,0.12192 l 10.708414,-21.016304 5.76065,2.935181 -10.383034,20.377944 c 3.007884,2.07176 4.93931,5.286295 4.93931,8.895718 0,1.550062 -0.356189,3.027234 -1.000937,4.372525 L 35.907706,48.433703 c 1.999808,-3.986654 5.743178,-6.771169 11.03774,-6.771169 z"
       id="path4-7"
       inkscape:connector-curvature="0"
       style="fill:#000000;fill-opacity:1;stroke-width:0.2;stroke-linejoin:round"
       sodipodi:nodetypes="ccccccsccccsccs" /></g></g></svg>