<?xml version="1.0" encoding="UTF-8" standalone="no"?>
<svg
   xmlns:dc="http://purl.org/dc/elements/1.1/"
   xmlns:cc="http://creativecommons.org/ns#"
   xmlns:rdf="http://www.w3.org/1999/02/22-rdf-syntax-ns#"
   xmlns:svg="http://www.w3.org/2000/svg"
   xmlns="http://www.w3.org/2000/svg"
   xmlns:sodipodi="http://sodipodi.sourceforge.net/DTD/sodipodi-0.dtd"
   xmlns:inkscape="http://www.inkscape.org/namespaces/inkscape"
   version="1.1"
   width="76"
   height="76"
   viewBox="0 0 76.00 76.00"
   enable-background="new 0 0 76.00 76.00"
   xml:space="preserve"
   id="svg2"
   inkscape:version="0.48.4 r9939"
   sodipodi:docname="flow.rule.add.svg"><metadata
   id="metadata10"><rdf:RDF><cc:Work
       rdf:about=""><dc:format>image/svg+xml</dc:format><dc:type
         rdf:resource="http://purl.org/dc/dcmitype/StillImage" /><dc:title></dc:title></cc:Work></rdf:RDF></metadata><defs
   id="defs8" /><sodipodi:namedview
   pagecolor="#ffffff"
   bordercolor="#666666"
   borderopacity="1"
   objecttolerance="10"
   gridtolerance="10"
   guidetolerance="10"
   inkscape:pageopacity="0"
   inkscape:pageshadow="2"
   inkscape:window-width="1920"
   inkscape:window-height="1017"
   id="namedview6"
   showgrid="false"
   inkscape:zoom="6.2105263"
   inkscape:cx="64.892673"
   inkscape:cy="55.180597"
   inkscape:window-x="-8"
   inkscape:window-y="-8"
   inkscape:window-maximized="1"
   inkscape:current-layer="svg2" />
	<path
   d="m 40.532223,-0.01021692 c 5.484304,0 9.930251,4.44594682 9.930251,9.93037562 l -0.115024,1.5162683 11.196149,4.075034 c 1.334636,-1.01603 3.000675,-1.619251 4.807453,-1.619251 4.387493,0 7.944223,3.556857 7.944223,7.944351 0,4.387493 -3.55673,7.944226 -7.944223,7.944226 -0.741703,0 -1.459572,-0.101603 -2.140563,-0.291638 l -8.082832,6.090786 c 0.190913,0.682371 0.293018,1.401871 0.293018,2.145078 0,1.036727 -0.198565,2.026917 -0.559695,2.934947 l 4.463383,3.879855 c 1.234288,-0.550538 2.60179,-0.856601 4.040663,-0.856601 5.484305,0 9.930249,4.446073 9.930249,9.930376 0,5.484431 -4.445944,9.930378 -9.930249,9.930378 -5.484429,0 -9.930376,-4.445947 -9.930376,-9.930378 0,-1.857829 0.510147,-3.596495 1.398108,-5.083536 l -4.09435,-3.559116 c -0.995208,0.448684 -2.09942,0.698426 -3.261959,0.698426 -4.387494,0 -7.944226,-3.556858 -7.944226,-7.944351 0,-4.387493 3.556732,-7.944226 7.944226,-7.944226 1.461954,0 2.831713,0.394873 4.008302,1.083891 l 6.902606,-5.201572 c -0.625046,-1.134943 -0.980531,-2.439224 -0.980531,-3.826545 l 0.07527,-1.098818 -10.796636,-3.929652 c -1.806527,1.875516 -4.343591,3.04232 -7.153228,3.04232 -5.484429,0 -9.930376,-4.445947 -9.930376,-9.9302523 0,-5.4844288 4.445947,-9.93037562 9.930376,-9.93037562 z m 0,3.97217582 c -3.290682,0 -5.958201,2.6675178 -5.958201,5.9581998 0,3.2906833 2.667519,5.9582023 5.958201,5.9582023 3.290557,0 5.958201,-2.667519 5.958201,-5.9582023 0,-3.290682 -2.667644,-5.9581998 -5.958201,-5.9581998 z M 66.351052,17.864385 c -2.193747,0 -3.972176,1.77843 -3.972176,3.972176 0,2.193747 1.778429,3.972176 3.972176,3.972176 2.193746,0 3.97205,-1.778429 3.97205,-3.972176 0,-2.193746 -1.778304,-3.972176 -3.97205,-3.972176 z M 64.364901,47.65539 c -3.290558,0 -5.958201,2.667643 -5.958201,5.9582 0,3.290684 2.667643,5.958202 5.958201,5.958202 3.290683,0 5.958201,-2.667518 5.958201,-5.958202 0,-3.290557 -2.667518,-5.9582 -5.958201,-5.9582 z M 48.476449,33.752963 c -2.193747,0 -3.972176,1.778304 -3.972176,3.97205 0,2.193747 1.778429,3.972176 3.972176,3.972176 2.193747,0 3.97205,-1.778429 3.97205,-3.972176 0,-2.193746 -1.778303,-3.97205 -3.97205,-3.97205 z"
   id="path4-1"
   inkscape:connector-curvature="0"
   style="fill:#b3b3b3;fill-opacity:1;stroke-width:0.2;stroke-linejoin:round" /><path
   d="m 11.782701,2.9430959 c 6.122932,0 11.086593,4.9636609 11.086593,11.0867321 l -0.128419,1.692832 12.4999,4.549556 c 1.49005,-1.134343 3.350093,-1.807807 5.367263,-1.807807 4.898401,0 8.869302,3.971041 8.869302,8.869442 0,4.898401 -3.970901,8.869302 -8.869302,8.869302 -0.828071,0 -1.629533,-0.113434 -2.389823,-0.325598 l -9.024049,6.800036 c 0.213145,0.76183 0.327139,1.565113 0.327139,2.394864 0,1.15745 -0.221687,2.262944 -0.624869,3.276711 l 4.983127,4.33165 c 1.378017,-0.614646 2.904759,-0.956349 4.511184,-0.956349 6.122932,0 11.086593,4.963801 11.086593,11.086732 0,6.123072 -4.963661,11.086733 -11.086593,11.086733 -6.123071,0 -11.086732,-4.963661 -11.086732,-11.086733 0,-2.074167 0.569552,-4.015294 1.560912,-5.675496 l -4.571122,-3.973562 c -1.111096,0.500932 -2.343889,0.779756 -3.641802,0.779756 -4.898401,0 -8.869302,-3.971041 -8.869302,-8.869442 0,-4.898401 3.970901,-8.869302 8.869302,-8.869302 1.632194,0 3.161456,0.440854 4.475054,1.210106 l 7.70639,-5.807276 C 32.135616,30.33888 31.738736,28.88272 31.738736,27.333851 l 0.08403,-1.226771 -12.053865,-4.387246 c -2.01689,2.093913 -4.849386,3.396587 -7.986195,3.396587 -6.1230716,0 -11.08673252,-4.963661 -11.08673252,-11.086593 0,-6.1230712 4.96366092,-11.0867321 11.08673252,-11.0867321 z m 0,4.434721 c -3.6738704,0 -6.6520115,2.9781401 -6.6520115,6.6520111 0,3.673871 2.9781411,6.652012 6.6520115,6.652012 3.673731,0 6.652012,-2.978141 6.652012,-6.652012 0,-3.673871 -2.978281,-6.6520111 -6.652012,-6.6520111 z M 40.608038,22.89913 c -2.449201,0 -4.434721,1.985521 -4.434721,4.434721 0,2.449201 1.98552,4.434721 4.434721,4.434721 2.4492,0 4.434581,-1.98552 4.434581,-4.434721 0,-2.4492 -1.985381,-4.434721 -4.434581,-4.434721 z m -2.217431,33.260058 c -3.673731,0 -6.652011,2.97828 -6.652011,6.652011 0,3.673871 2.97828,6.652012 6.652011,6.652012 3.673871,0 6.652012,-2.978141 6.652012,-6.652012 0,-3.673731 -2.978141,-6.652011 -6.652012,-6.652011 z M 20.652003,40.637874 c -2.4492,0 -4.434721,1.985381 -4.434721,4.434581 0,2.449201 1.985521,4.434721 4.434721,4.434721 2.449201,0 4.434581,-1.98552 4.434581,-4.434721 0,-2.4492 -1.98538,-4.434581 -4.434581,-4.434581 z"
   id="path4"
   inkscape:connector-curvature="0"
   style="fill:#000000;fill-opacity:1;stroke-width:0.2;stroke-linejoin:round" />
<g
   id="g3782"
   transform="translate(-8.2118643,-9.3389831)"><g
     id="g3786"
     transform="translate(-22.543523,-12.865748)" /></g></svg>