<?xml version="1.0" encoding="UTF-8" standalone="no"?>
<svg
   xmlns:dc="http://purl.org/dc/elements/1.1/"
   xmlns:cc="http://creativecommons.org/ns#"
   xmlns:rdf="http://www.w3.org/1999/02/22-rdf-syntax-ns#"
   xmlns:svg="http://www.w3.org/2000/svg"
   xmlns="http://www.w3.org/2000/svg"
   xmlns:sodipodi="http://sodipodi.sourceforge.net/DTD/sodipodi-0.dtd"
   xmlns:inkscape="http://www.inkscape.org/namespaces/inkscape"
   version="1.1"
   width="76"
   height="76"
   viewBox="0 0 76.00 76.00"
   enable-background="new 0 0 76.00 76.00"
   xml:space="preserve"
   id="svg2"
   inkscape:version="0.48.4 r9939"
   sodipodi:docname="appbar.calculator.svg"><metadata
   id="metadata10"><rdf:RDF><cc:Work
       rdf:about=""><dc:format>image/svg+xml</dc:format><dc:type
         rdf:resource="http://purl.org/dc/dcmitype/StillImage" /></cc:Work></rdf:RDF></metadata><defs
   id="defs8" /><sodipodi:namedview
   pagecolor="#ffffff"
   bordercolor="#666666"
   borderopacity="1"
   objecttolerance="10"
   gridtolerance="10"
   guidetolerance="10"
   inkscape:pageopacity="0"
   inkscape:pageshadow="2"
   inkscape:window-width="640"
   inkscape:window-height="480"
   id="namedview6"
   showgrid="false"
   inkscape:zoom="3.1052632"
   inkscape:cx="38"
   inkscape:cy="38"
   inkscape:window-x="2478"
   inkscape:window-y="233"
   inkscape:window-maximized="0"
   inkscape:current-layer="svg2" />
	<path
   d="m 14.522397,0.25423729 46.832526,0 c 2.362702,0 5.403753,3.04105211 5.403753,5.40375301 l 0,64.8450367 c 0,2.3627 -3.041051,5.403753 -5.403753,5.403753 l -46.832526,0 c -2.362701,0 -5.4037529,-3.041053 -5.4037529,-5.403753 l 0,-64.8450367 c 0,-2.3627009 3.0410519,-5.40375301 5.4037529,-5.40375301 z m 3.602322,5.40393321 c -1.989481,0 -3.602502,1.6130203 -3.602502,3.6025019 l 0,5.4037526 c 0,1.989663 1.613021,3.602503 3.602502,3.602503 l 39.627522,0 c 1.989482,0 3.602503,-1.61284 3.602503,-3.602503 l 0,-5.4037526 c 0,-1.9894816 -1.613021,-3.6025019 -3.602503,-3.6025019 l -39.627522,0 z m 1.8e-4,18.0125095 c -1.989661,0 -3.602502,1.612841 -3.602502,3.602503 l 0,3.602321 c 0,1.989663 1.612841,3.602502 3.602502,3.602502 l 3.602323,1.8e-4 c 1.989661,0 3.602501,-1.613019 3.602501,-3.602501 l 1.81e-4,-3.602502 c 0,-1.989662 -1.613021,-3.602503 -3.602503,-3.602503 l -3.602502,0 z m 18.012511,0 c -1.989663,0 -3.602503,1.612841 -3.602503,3.602503 l -1.8e-4,3.602321 c 0,1.989663 1.61302,3.602502 3.602503,3.602502 l 3.602682,0 c 1.989482,0 3.602501,-1.612839 3.602501,-3.602502 l 0,-3.602321 c 0,-1.989662 -1.613019,-3.602503 -3.602501,-3.602503 l -3.602502,0 z m 18.012329,0 c -1.989482,0 -3.602501,1.612841 -3.602501,3.602503 l 0,3.602321 c 0,1.989663 1.612839,3.602502 3.602501,3.602502 l 3.602502,0 c 1.989662,0 3.602503,-1.612839 3.602503,-3.602502 l 0,-3.602321 c 0,-1.989662 -1.612841,-3.602503 -3.602503,-3.602503 l -3.602502,0 z m -36.02484,16.211079 c -1.989661,0 -3.602502,1.613021 -3.602502,3.602503 l 0,3.602502 c 0,1.989661 1.612841,3.602502 3.602502,3.602502 l 3.602502,1.8e-4 c 1.989482,0 3.602503,-1.613021 3.602503,-3.602502 l 0,-3.602503 c 0,-1.989661 -1.613021,-3.602502 -3.602503,-3.602502 l -3.602502,-1.8e-4 z m 18.012511,1.8e-4 c -1.989663,0 -3.602503,1.612841 -3.602503,3.602502 l 0,3.602503 c 0,1.989481 1.61284,3.602502 3.602503,3.602502 l 3.602502,-1.8e-4 c 1.989482,0 3.602501,-1.612841 3.602501,-3.602502 l 0,-3.602323 c 0,-1.989661 -1.613019,-3.602502 -3.602501,-3.602502 l -3.602502,0 z m 18.012509,-1.8e-4 c -1.989662,0 -3.602501,1.613021 -3.602501,3.602503 l -1.8e-4,3.602502 c 0,1.989661 1.613019,3.602502 3.602501,3.602502 l 3.602682,0 c 1.989482,0 3.602502,-1.612841 3.602502,-3.602502 l 0,-3.602502 c 0,-1.989482 -1.61302,-3.602503 -3.602502,-3.602503 l -3.602502,0 z M 18.124899,57.89445 c -1.989661,0 -3.602502,1.61284 -3.602502,3.602502 l 0,3.602321 c 0,1.989663 1.612841,3.602502 3.602502,3.602502 l 3.602502,0 c 1.989482,0 3.602503,-1.612839 3.602503,-3.602321 l 0,-3.602502 c 0,-1.989662 -1.613021,-3.602502 -3.602503,-3.602502 l -3.602502,0 z m 18.012511,0 c -1.989663,0 -3.602503,1.61284 -3.602503,3.602502 l 0,3.602502 c 0,1.989482 1.61284,3.602321 3.602503,3.602321 l 3.602502,0 c 1.989482,0 3.602501,-1.612839 3.602501,-3.602502 l 0,-3.602321 c 0,-1.989662 -1.613019,-3.602502 -3.602501,-3.602502 l -3.602502,0 z m 18.012509,-1.8e-4 c -1.989662,0 -3.602501,1.61302 -3.602501,3.602502 l 0,3.602501 c 0,1.989663 1.612839,3.602502 3.602501,3.602502 l 3.602502,0 c 1.989482,0 3.602502,-1.612839 3.602502,-3.602502 l 0,-3.602501 c 0,-1.989663 -1.612839,-3.602502 -3.602502,-3.602502 l -3.602502,0 z"
   id="path4"
   inkscape:connector-curvature="0"
   style="fill:#000000;fill-opacity:1;stroke-width:0.2;stroke-linejoin:round" />
</svg>