<?xml version="1.0" encoding="UTF-8" standalone="no"?>
<svg
   xmlns:dc="http://purl.org/dc/elements/1.1/"
   xmlns:cc="http://creativecommons.org/ns#"
   xmlns:rdf="http://www.w3.org/1999/02/22-rdf-syntax-ns#"
   xmlns:svg="http://www.w3.org/2000/svg"
   xmlns="http://www.w3.org/2000/svg"
   xmlns:sodipodi="http://sodipodi.sourceforge.net/DTD/sodipodi-0.dtd"
   xmlns:inkscape="http://www.inkscape.org/namespaces/inkscape"
   version="1.1"
   width="76"
   height="76"
   viewBox="0 0 76.00 76.00"
   enable-background="new 0 0 76.00 76.00"
   xml:space="preserve"
   id="svg2"
   inkscape:version="0.48.4 r9939"
   sodipodi:docname="appbar.transit.connection.svg"><metadata
   id="metadata10"><rdf:RDF><cc:Work
       rdf:about=""><dc:format>image/svg+xml</dc:format><dc:type
         rdf:resource="http://purl.org/dc/dcmitype/StillImage" /><dc:title></dc:title></cc:Work></rdf:RDF></metadata><defs
   id="defs8" /><sodipodi:namedview
   pagecolor="#ffffff"
   bordercolor="#666666"
   borderopacity="1"
   objecttolerance="10"
   gridtolerance="10"
   guidetolerance="10"
   inkscape:pageopacity="0"
   inkscape:pageshadow="2"
   inkscape:window-width="1920"
   inkscape:window-height="1017"
   id="namedview6"
   showgrid="false"
   inkscape:zoom="3.1052632"
   inkscape:cx="38"
   inkscape:cy="38"
   inkscape:window-x="-8"
   inkscape:window-y="-8"
   inkscape:window-maximized="1"
   inkscape:current-layer="svg2" />
	<path
   d="m 14.629105,1.690678 c 6.122932,0 11.086593,4.9636609 11.086593,11.086732 l -0.128419,1.692832 12.4999,4.549556 c 1.49005,-1.134343 3.350093,-1.807807 5.367263,-1.807807 4.898401,0 8.869302,3.971041 8.869302,8.869442 0,4.898401 -3.970901,8.869302 -8.869302,8.869302 -0.828071,0 -1.629533,-0.113434 -2.389823,-0.325598 l -9.024049,6.800036 c 0.213145,0.76183 0.327139,1.565113 0.327139,2.394864 0,1.15745 -0.221687,2.262944 -0.624869,3.276711 l 4.983127,4.33165 c 1.378017,-0.614646 2.904759,-0.956349 4.511184,-0.956349 6.122932,0 11.086593,4.963801 11.086593,11.086732 0,6.123072 -4.963661,11.086733 -11.086593,11.086733 -6.123071,0 -11.086732,-4.963661 -11.086732,-11.086733 0,-2.074167 0.569552,-4.015294 1.560912,-5.675496 l -4.571122,-3.973562 c -1.111096,0.500932 -2.343889,0.779756 -3.641802,0.779756 -4.898401,0 -8.869302,-3.971041 -8.869302,-8.869442 0,-4.898401 3.970901,-8.869302 8.869302,-8.869302 1.632194,0 3.161456,0.440854 4.475054,1.210106 l 7.70639,-5.807276 C 34.98202,29.086462 34.58514,27.630302 34.58514,26.081433 l 0.08403,-1.226771 -12.053865,-4.387246 c -2.01689,2.093913 -4.849386,3.396587 -7.986195,3.396587 -6.1230712,0 -11.0867321,-4.963661 -11.0867321,-11.086593 0,-6.1230711 4.9636609,-11.086732 11.0867321,-11.086732 z m 0,4.434721 c -3.67387,0 -6.6520111,2.9781405 -6.6520111,6.652011 0,3.673871 2.9781411,6.652012 6.6520111,6.652012 3.673731,0 6.652012,-2.978141 6.652012,-6.652012 0,-3.6738705 -2.978281,-6.652011 -6.652012,-6.652011 z m 28.825337,15.521313 c -2.449201,0 -4.434721,1.985521 -4.434721,4.434721 0,2.449201 1.98552,4.434721 4.434721,4.434721 2.4492,0 4.434581,-1.98552 4.434581,-4.434721 0,-2.4492 -1.985381,-4.434721 -4.434581,-4.434721 z M 41.237011,54.90677 c -3.673731,0 -6.652011,2.97828 -6.652011,6.652011 0,3.673871 2.97828,6.652012 6.652011,6.652012 3.673871,0 6.652012,-2.978141 6.652012,-6.652012 0,-3.673731 -2.978141,-6.652011 -6.652012,-6.652011 z M 23.498407,39.385456 c -2.4492,0 -4.434721,1.985381 -4.434721,4.434581 0,2.449201 1.985521,4.434721 4.434721,4.434721 2.449201,0 4.434581,-1.98552 4.434581,-4.434721 0,-2.4492 -1.98538,-4.434581 -4.434581,-4.434581 z"
   id="path4"
   inkscape:connector-curvature="0"
   style="fill:#000000;fill-opacity:1;stroke-width:0.2;stroke-linejoin:round" />
</svg>