<?xml version="1.0" encoding="UTF-8" standalone="no"?>
<svg
   xmlns:dc="http://purl.org/dc/elements/1.1/"
   xmlns:cc="http://creativecommons.org/ns#"
   xmlns:rdf="http://www.w3.org/1999/02/22-rdf-syntax-ns#"
   xmlns:svg="http://www.w3.org/2000/svg"
   xmlns="http://www.w3.org/2000/svg"
   xmlns:sodipodi="http://sodipodi.sourceforge.net/DTD/sodipodi-0.dtd"
   xmlns:inkscape="http://www.inkscape.org/namespaces/inkscape"
   version="1.1"
   width="76"
   height="76"
   viewBox="0 0 76.00 76.00"
   enable-background="new 0 0 76.00 76.00"
   xml:space="preserve"
   id="svg2"
   inkscape:version="0.48.4 r9939"
   sodipodi:docname="flow.diagram.refresh.svg"><metadata
   id="metadata10"><rdf:RDF><cc:Work
       rdf:about=""><dc:format>image/svg+xml</dc:format><dc:type
         rdf:resource="http://purl.org/dc/dcmitype/StillImage" /></cc:Work></rdf:RDF></metadata><defs
   id="defs8" /><sodipodi:namedview
   pagecolor="#ffffff"
   bordercolor="#666666"
   borderopacity="1"
   objecttolerance="10"
   gridtolerance="10"
   guidetolerance="10"
   inkscape:pageopacity="0"
   inkscape:pageshadow="2"
   inkscape:window-width="640"
   inkscape:window-height="480"
   id="namedview6"
   showgrid="false"
   inkscape:zoom="3.1052632"
   inkscape:cx="38"
   inkscape:cy="38"
   inkscape:window-x="0"
   inkscape:window-y="0"
   inkscape:window-maximized="0"
   inkscape:current-layer="svg2" />
	<path
   d="m 37.863755,6.1164959 c 9.09016,0 17.287112,3.8234482 23.070915,9.9496721 l 0,-15.71726459 8.65139,8.65157099 1.82e-4,23.0707336 -23.070917,0 -8.65157,-8.651571 16.121428,0 c -3.960416,-4.424869 -9.715623,-7.209581 -16.121428,-7.209581 -10.967461,0 -20.028478,8.163076 -21.438411,18.745131 l -10.1547586,0 C 7.7276922,18.786767 21.316122,6.1164959 37.863755,6.1164959 z m 0,53.3514141 c 10.967458,0 20.028477,-8.163075 21.438227,-18.74513 l 10.154941,0 C 67.999817,56.8912 54.411386,69.561471 37.863755,69.561471 c -9.09016,0 -17.287115,-3.823448 -23.070918,-9.949672 l 0,15.717264 -8.6515698,-8.651572 0,-23.070733 23.0709158,0 8.651572,8.65157 -16.121612,0 c 3.960416,4.424869 9.715806,7.209582 16.121612,7.209582 z"
   id="path4"
   inkscape:connector-curvature="0"
   style="fill:#000000;fill-opacity:1;stroke-width:0.2;stroke-linejoin:round" />
</svg>