<?xml version="1.0" encoding="UTF-8" standalone="no"?>
<svg
   xmlns:dc="http://purl.org/dc/elements/1.1/"
   xmlns:cc="http://creativecommons.org/ns#"
   xmlns:rdf="http://www.w3.org/1999/02/22-rdf-syntax-ns#"
   xmlns:svg="http://www.w3.org/2000/svg"
   xmlns="http://www.w3.org/2000/svg"
   xmlns:sodipodi="http://sodipodi.sourceforge.net/DTD/sodipodi-0.dtd"
   xmlns:inkscape="http://www.inkscape.org/namespaces/inkscape"
   version="1.1"
   width="76"
   height="76"
   viewBox="0 0 76.00 76.00"
   enable-background="new 0 0 76.00 76.00"
   xml:space="preserve"
   id="svg2"
   inkscape:version="0.48.4 r9939"
   sodipodi:docname="appbar.subcategory.add.svg"><metadata
   id="metadata10"><rdf:RDF><cc:Work
       rdf:about=""><dc:format>image/svg+xml</dc:format><dc:type
         rdf:resource="http://purl.org/dc/dcmitype/StillImage" /><dc:title></dc:title></cc:Work></rdf:RDF></metadata><defs
   id="defs8" /><sodipodi:namedview
   pagecolor="#ffffff"
   bordercolor="#666666"
   borderopacity="1"
   objecttolerance="10"
   gridtolerance="10"
   guidetolerance="10"
   inkscape:pageopacity="0"
   inkscape:pageshadow="2"
   inkscape:window-width="1920"
   inkscape:window-height="1017"
   id="namedview6"
   showgrid="true"
   inkscape:zoom="4.3915052"
   inkscape:cx="90.645976"
   inkscape:cy="40.719176"
   inkscape:window-x="1912"
   inkscape:window-y="-8"
   inkscape:window-maximized="1"
   inkscape:current-layer="svg2"
   showguides="false"
   inkscape:snap-global="false"><inkscape:grid
     type="xygrid"
     id="grid3035" /></sodipodi:namedview>
	<path
   d="m 22.845849,8.783648 45.800345,0 0,14.440553 -45.800345,0 z"
   id="path4"
   inkscape:connector-curvature="0"
   style="fill:#000000;fill-opacity:1;stroke-width:0.2;stroke-linejoin:round"
   sodipodi:nodetypes="ccccc" />
<path
   d="m 32.704167,30.514217 36.014775,0 0,14.440553 -36.014775,0 z"
   id="path4-1"
   inkscape:connector-curvature="0"
   style="fill:#000000;fill-opacity:1;stroke-width:0.2;stroke-linejoin:round"
   sodipodi:nodetypes="ccccc" /><path
   d="m 42.953274,52.209963 25.748758,0 0,14.440551 -25.748758,0 z"
   id="path4-1-0"
   inkscape:connector-curvature="0"
   style="fill:#000000;fill-opacity:1;stroke-width:0.2;stroke-linejoin:round"
   sodipodi:nodetypes="ccccc" /><g
   id="g3884"
   transform="matrix(2.4709987,0,0,2.532042,-117.53645,-4.5249233)"><path
     sodipodi:nodetypes="cccccccccccccccccccccccccc"
     style="fill:#ffffff;fill-opacity:1;stroke-width:0.2;stroke-linejoin:round"
     inkscape:connector-curvature="0"
     id="path4-8-2"
     d="m 69.514182,31.573481 5.026309,0.0071 -0.0071,-3.06126 2.99053,0 0,-5.039969 -3.033227,0.02135 0.0071,-3.039911 -4.996205,0.04025 -0.02013,3.032203 -3.010064,0.02013 0.01667,5.001528 3.054574,-0.0427 z m 1.359758,-0.989583 0,-3.374364 -3.332097,0 0,-2.249578 3.332097,0 0,-3.374363 2.2214,0 0,3.374363 3.332096,0 0,2.249578 -3.332096,0 0,3.374364 z" /><g
     transform="translate(9.2798462,-1.9384157)"
     id="g3849"><path
       d="m 60.734754,32.952694 4,0 0,-3 3,0 0,-4 -3,0 0,-3 -4,0 0,3 -3,0 0,4 3,0 z m 1,-1 0,-3 -3,0 0,-2 3,0 0,-3 2,0 0,3 3,0 0,2 -3,0 0,3 z"
       id="path4-8"
       inkscape:connector-curvature="0"
       style="fill:#000000;fill-opacity:1;stroke-width:0.2;stroke-linejoin:round"
       sodipodi:nodetypes="cccccccccccccccccccccccccc" /><path
       style="fill:#ffffff;fill-opacity:0;stroke:none"
       d="m 61.747066,30.434092 0,-1.508594 -1.494362,0 -1.494363,0 0,-0.98201 0,-0.982009 1.494363,0 1.494362,0 0,-1.494363 0,-1.494362 0.982009,0 0.98201,0 0,1.494362 0,1.494363 1.508594,0 1.508595,0 0,0.981757 0,0.981758 -1.501479,0.0074 -1.501478,0.0074 -0.0074,1.501478 -0.0074,1.501478 -0.981758,0 -0.981758,0 0,-1.508594 z"
       id="path3077"
       inkscape:connector-curvature="0" /><path
       style="fill:#ffffff;fill-opacity:1;stroke:none"
       d="m 61.752759,30.434092 0,-1.508594 -1.508595,0 -1.508594,0 0,-0.98201 0,-0.982009 1.508594,0 1.508595,0 0,-1.494363 0,-1.494362 0.982009,0 0.98201,0 0,1.494362 0,1.494363 1.508594,0 1.508594,0 0,0.982009 0,0.98201 -1.508594,0 -1.508594,0 0,1.508594 0,1.508594 -0.98201,0 -0.982009,0 0,-1.508594 z"
       id="path3847"
       inkscape:connector-curvature="0" /></g></g><path
   style="fill:#ffffff;fill-opacity:0;stroke:none"
   d="m 69.816983,17.387704 0,-1.508593 -1.458336,0 -1.458336,0 0,-0.982011 0,-0.982008 1.458336,0 1.458336,0 0,-1.494363 0,-1.494362 0.958334,0 0.958336,0 0,1.494362 0,1.494363 1.472224,0 1.472225,0 0,0.981756 0,0.981758 -1.465281,0.0074 -1.46528,0.0074 -0.0072,1.501478 -0.0072,1.501478 -0.958089,0 -0.95809,0 0,-1.508594 z"
   id="path3077-4"
   inkscape:connector-curvature="0" /><path
   d="m 15.76872,8.859312 c 0.0056,0.02318 -7.0129582,14.368404 -7.0129582,14.368404 L 1.6763092,8.869193 z"
   id="path4-7-7"
   inkscape:connector-curvature="0"
   style="fill:#000000;fill-opacity:1;stroke-width:0.2;stroke-linejoin:round"
   sodipodi:nodetypes="cccc" /><path
   d="m 25.563153,30.65478 c 0.0056,0.02318 -7.012958,14.368405 -7.012958,14.368405 L 11.470742,30.664661 z"
   id="path4-7-7-1"
   inkscape:connector-curvature="0"
   style="fill:#000000;fill-opacity:1;stroke-width:0.2;stroke-linejoin:round"
   sodipodi:nodetypes="cccc" /><path
   d="m 21.813229,52.260295 14.180522,0 0,14.180524 -14.180522,0 z"
   id="path4-7-17"
   inkscape:connector-curvature="0"
   style="fill:#000000;fill-opacity:1;stroke-width:0.2;stroke-linejoin:round"
   sodipodi:nodetypes="ccccc" /></svg>