<?xml version="1.0" encoding="UTF-8" standalone="no"?>
<svg
   xmlns:dc="http://purl.org/dc/elements/1.1/"
   xmlns:cc="http://creativecommons.org/ns#"
   xmlns:rdf="http://www.w3.org/1999/02/22-rdf-syntax-ns#"
   xmlns:svg="http://www.w3.org/2000/svg"
   xmlns="http://www.w3.org/2000/svg"
   xmlns:sodipodi="http://sodipodi.sourceforge.net/DTD/sodipodi-0.dtd"
   xmlns:inkscape="http://www.inkscape.org/namespaces/inkscape"
   version="1.1"
   width="76"
   height="76"
   viewBox="0 0 76.00 76.00"
   enable-background="new 0 0 76.00 76.00"
   xml:space="preserve"
   id="svg2"
   inkscape:version="0.48.4 r9939"
   sodipodi:docname="form.compare.abcd.svg"><metadata
   id="metadata10"><rdf:RDF><cc:Work
       rdf:about=""><dc:format>image/svg+xml</dc:format><dc:type
         rdf:resource="http://purl.org/dc/dcmitype/StillImage" /><dc:title /></cc:Work></rdf:RDF></metadata><defs
   id="defs8" /><sodipodi:namedview
   pagecolor="#ffffff"
   bordercolor="#666666"
   borderopacity="1"
   objecttolerance="10"
   gridtolerance="10"
   guidetolerance="10"
   inkscape:pageopacity="0"
   inkscape:pageshadow="2"
   inkscape:window-width="1920"
   inkscape:window-height="1017"
   id="namedview6"
   showgrid="false"
   inkscape:zoom="0.54893816"
   inkscape:cx="893.57446"
   inkscape:cy="-120.72579"
   inkscape:window-x="1912"
   inkscape:window-y="-8"
   inkscape:window-maximized="1"
   inkscape:current-layer="g3803" />
	
<g
   id="g2995"><path
     style="fill:#000000;fill-opacity:1;stroke-width:0.2;stroke-linejoin:round"
     inkscape:connector-curvature="0"
     id="path4"
     d="m 5.4589397,0.03542967 43.2579593,0 21.628979,21.62897933 0,54.072449 -64.8869383,0 0,-75.70142833 z m 7.2096593,7.20965983 0,61.2821095 50.46762,0 0,-37.850716 -23.431395,0 0,-23.4313935 -27.036225,0 z m 34.245885,0 0,16.2217345 16.221735,0 L 46.914484,7.2450895 z" /><path
     sodipodi:nodetypes="csssscsssc"
     inkscape:connector-curvature="0"
     id="rect2994"
     d="m 63.863718,34.334119 9.85914,2.681261 c 1.586562,0.431476 1.980338,2.294305 1.997223,3.638017 l 0.201271,16.017525 c 0.01689,1.343709 -2.789651,0.343701 -3.981225,0.998564 l -5.136834,2.823089 -6.380771,-1.914997 C 58.852696,58.106441 49.82335,59.797495 49.75515,58.455885 L 48.986621,43.337561 c -0.0682,-1.341612 14.877097,-9.003442 14.877097,-9.003442 z"
     style="fill:#ffffff;fill-opacity:1;stroke:none" /><path
     sodipodi:nodetypes="ccccccccccccccccccccccccccccccccccccccccccccccc"
     id="path4-1"
     d="m 41.855108,59.204935 1.5833,2.7424 4.3257,1.1591 4.113701,-2.375 1.3712,-0.7917 2.7424,-1.5833 0.7916,1.3712 -1.159,4.3257 -6.856101,3.9584 -8.6514,-2.3182 -3.1667,-5.4848 2.3181,-8.6515 6.8561,-3.9584 4.3257,1.1591 0.7917,1.3712 -2.7424,1.5834 -1.3712,0.7916 -4.1137,2.375 z m 15.238501,-17.9393 6.856,-3.9584 8.6515,2.3182 3.1667,5.4848 -2.3182,8.6515 -6.856,3.9583 -4.3257,-1.1591 -0.7917,-1.3712 2.7424,-1.5833 1.3712,-0.7917 4.1136,-2.375 1.1591,-4.3257 -1.5833,-2.7424 -4.3258,-1.1591 -4.1136,2.375 -1.3712,0.7917 -2.7424,1.5833 -0.7917,-1.3712 z m -6.31433,17.700165 -2.162901,-0.5795 -1.1875,-2.0568 0.5796,-2.1629 14.157574,-7.81343 2.1629,0.5795 1.1875,2.0568 -0.5796,2.1629 z"
     inkscape:connector-curvature="0"
     style="fill:#000000;fill-opacity:1;stroke-width:0.2;stroke-linejoin:round" /></g><g
   transform="translate(-4150.8271,15.070258)"
   id="g3803"><path
     sodipodi:nodetypes="ssscccccss"
     id="path4-1-9"
     d="m 4174.3508,23.394094 c 7.9743,0 14.4386,6.464345 14.4386,14.438623 0,7.974278 -6.4643,14.438623 -14.4386,14.438623 -2.7311,0 -3.5148,-0.143601 -5.7378,-1.41524 l -8.3327,8.291932 c -1.6653,1.665158 -4.9062,1.521408 -6.9741,-0.284641 -1.7456,-1.604891 -2.4373,-4.927184 -0.5408,-6.612584 l 8.562,-8.302178 c -1.3176,-2.177922 -1.4152,-3.384818 -1.4152,-6.115912 0,-7.974278 6.4644,-14.438623 14.4386,-14.438623 z"
     inkscape:connector-curvature="0"
     style="opacity:0.98999999000000005;fill:#ffffff;fill-opacity:1;stroke-width:0.20000000000000001;stroke-linejoin:round" /><path
     style="fill:#000000;fill-opacity:1;stroke-width:0.2;stroke-linejoin:round"
     inkscape:connector-curvature="0"
     id="path4-4"
     d="m 4174.6389,25.117926 c 6.9036,0 12.5,5.5964 12.5,12.5 0,6.9036 -5.5964,12.5 -12.5,12.5 -2.3644,0 -4.5755,-0.6565 -6.5,-1.7574 l -9.0251,9.0252 c -1.1716,1.1715 -3.0711,1.1715 -4.2427,0 -1.1715,-1.1716 -1.1715,-3.0711 0,-4.2427 l 9.0649,-9.0641 c -1.1406,-1.8855 -1.7971,-4.0966 -1.7971,-6.461 0,-6.9036 5.5964,-12.5 12.5,-12.5 z m 0,4 c -4.6944,0 -8.5,3.8056 -8.5,8.5 0,4.6944 3.8056,8.5 8.5,8.5 4.6944,0 8.5,-3.8056 8.5,-8.5 0,-4.6944 -3.8056,-8.5 -8.5,-8.5 z" /></g></svg>