<?xml version="1.0" encoding="UTF-8" standalone="no"?>
<svg
   xmlns:dc="http://purl.org/dc/elements/1.1/"
   xmlns:cc="http://creativecommons.org/ns#"
   xmlns:rdf="http://www.w3.org/1999/02/22-rdf-syntax-ns#"
   xmlns:svg="http://www.w3.org/2000/svg"
   xmlns="http://www.w3.org/2000/svg"
   xmlns:sodipodi="http://sodipodi.sourceforge.net/DTD/sodipodi-0.dtd"
   xmlns:inkscape="http://www.inkscape.org/namespaces/inkscape"
   version="1.1"
   width="76"
   height="76"
   viewBox="0 0 76.00 76.00"
   enable-background="new 0 0 76.00 76.00"
   xml:space="preserve"
   id="svg2"
   inkscape:version="0.48.4 r9939"
   sodipodi:docname="form.link.svg"><metadata
   id="metadata10"><rdf:RDF><cc:Work
       rdf:about=""><dc:format>image/svg+xml</dc:format><dc:type
         rdf:resource="http://purl.org/dc/dcmitype/StillImage" /><dc:title /></cc:Work></rdf:RDF></metadata><defs
   id="defs8" /><sodipodi:namedview
   pagecolor="#ffffff"
   bordercolor="#666666"
   borderopacity="1"
   objecttolerance="10"
   gridtolerance="10"
   guidetolerance="10"
   inkscape:pageopacity="0"
   inkscape:pageshadow="2"
   inkscape:window-width="1920"
   inkscape:window-height="1017"
   id="namedview6"
   showgrid="false"
   inkscape:zoom="8.7830105"
   inkscape:cx="95.135052"
   inkscape:cy="27.244534"
   inkscape:window-x="1912"
   inkscape:window-y="-8"
   inkscape:window-maximized="1"
   inkscape:current-layer="g2995" />
	
<g
   id="g2995"><path
     style="fill:#000000;fill-opacity:1;stroke-width:0.2;stroke-linejoin:round"
     d="M 5.46875 0.03125 L 5.46875 75.75 L 70.34375 75.75 L 70.34375 58.53125 L 66.8125 60.5 L 63.125 59.375 L 63.125 68.53125 L 12.65625 68.53125 L 12.65625 7.25 L 39.71875 7.25 L 39.71875 30.6875 L 63.125 30.6875 L 63.125 34.71875 C 63.298215 34.629262 63.875 34.34375 63.875 34.34375 L 70.34375 36.09375 L 70.34375 21.65625 L 48.71875 0.03125 L 5.46875 0.03125 z M 46.90625 7.25 L 63.125 23.46875 L 46.90625 23.46875 L 46.90625 7.25 z "
     id="path4" /><path
     sodipodi:nodetypes="ccccccccccccccccccccccccccccccccccccccccccccccc"
     id="path4-1"
     d="m 41.855108,59.204935 1.5833,2.7424 4.3257,1.1591 4.113701,-2.375 1.3712,-0.7917 2.7424,-1.5833 0.7916,1.3712 -1.159,4.3257 -6.856101,3.9584 -8.6514,-2.3182 -3.1667,-5.4848 2.3181,-8.6515 6.8561,-3.9584 4.3257,1.1591 0.7917,1.3712 -2.7424,1.5834 -1.3712,0.7916 -4.1137,2.375 z m 15.238501,-17.9393 6.856,-3.9584 8.6515,2.3182 3.1667,5.4848 -2.3182,8.6515 -6.856,3.9583 -4.3257,-1.1591 -0.7917,-1.3712 2.7424,-1.5833 1.3712,-0.7917 4.1136,-2.375 1.1591,-4.3257 -1.5833,-2.7424 -4.3258,-1.1591 -4.1136,2.375 -1.3712,0.7917 -2.7424,1.5833 -0.7917,-1.3712 z m -6.31433,17.700165 -2.162901,-0.5795 -1.1875,-2.0568 0.5796,-2.1629 14.157574,-7.81343 2.1629,0.5795 1.1875,2.0568 -0.5796,2.1629 z"
     inkscape:connector-curvature="0"
     style="fill:#000000;fill-opacity:1;stroke-width:0.2;stroke-linejoin:round" /></g></svg>