<?xml version="1.0" encoding="UTF-8" standalone="no"?>
<svg
   xmlns:dc="http://purl.org/dc/elements/1.1/"
   xmlns:cc="http://creativecommons.org/ns#"
   xmlns:rdf="http://www.w3.org/1999/02/22-rdf-syntax-ns#"
   xmlns:svg="http://www.w3.org/2000/svg"
   xmlns="http://www.w3.org/2000/svg"
   xmlns:sodipodi="http://sodipodi.sourceforge.net/DTD/sodipodi-0.dtd"
   xmlns:inkscape="http://www.inkscape.org/namespaces/inkscape"
   version="1.1"
   width="76"
   height="76"
   viewBox="0 0 76.00 76.00"
   enable-background="new 0 0 76.00 76.00"
   xml:space="preserve"
   id="svg2"
   inkscape:version="0.91 r13725"
   sodipodi:docname="form.ranged.answer.svg"><metadata
     id="metadata10"><rdf:RDF><cc:Work
         rdf:about=""><dc:format>image/svg+xml</dc:format><dc:type
           rdf:resource="http://purl.org/dc/dcmitype/StillImage" /></cc:Work></rdf:RDF></metadata><defs
     id="defs8" /><sodipodi:namedview
     pagecolor="#ffffff"
     bordercolor="#666666"
     borderopacity="1"
     objecttolerance="10"
     gridtolerance="10"
     guidetolerance="10"
     inkscape:pageopacity="0"
     inkscape:pageshadow="2"
     inkscape:window-width="1855"
     inkscape:window-height="1056"
     id="namedview6"
     showgrid="false"
     inkscape:zoom="7.779483"
     inkscape:cx="37.352102"
     inkscape:cy="22.51464"
     inkscape:window-x="65"
     inkscape:window-y="24"
     inkscape:window-maximized="1"
     inkscape:current-layer="svg2" /><path
     style="fill:#000000;fill-opacity:1;stroke-width:0.2;stroke-linejoin:round"
     inkscape:connector-curvature="0"
     d="m 36.009763,44.037466 -1.696285,7.350712 -1.1472,-1.720799 -25.1051178,0 c 0.3738714,0.726104 0.7827464,1.431287 1.224389,2.113225 l 24.9373418,0 0.30522,-0.07045 7.015835,-1.619013 C 40.616664,47.301337 39.061894,44.800193 36.009763,44.037465 Z M 48.311057,48.96297 69.743315,27.530715 c -1.647469,-3.350025 -4.03302,-6.271559 -6.94448,-8.552503 l -20.123045,20.123043 0,4.226448 5.635267,0 z M 41.266973,38.396847 61.581054,18.082768 c -0.986524,-0.67993 -2.024962,-1.289856 -3.108271,-1.822607 l -20.727851,20.727868 0,1.408818 z"
     id="path4"
     sodipodi:nodetypes="cccccccccccccccccccccc" /><path
     style="fill:#000000;fill-opacity:1;stroke-width:0.2;stroke-linejoin:round"
     d="M 0 9.734375 L 0 61.732422 L 12.314453 61.732422 L 12.314453 56.259766 L 5.4726562 56.259766 L 5.4726562 23.654297 L 3.6953125 23.679688 L 3.6542969 11.5625 L 10.947266 11.513672 L 10.958984 9.734375 L 0 9.734375 z M 6.2480469 14.970703 L 6.2480469 15.208984 L 7.1699219 15.208984 L 7.1699219 14.970703 L 6.2480469 14.970703 z "
     id="path4-3" /><path
     inkscape:connector-curvature="0"
     style="fill:#000000;fill-opacity:1;stroke-linejoin:round"
     d="m 59.290327,66.0922 c 0,1.3353 -0.155,2.6033 -0.4651,3.804 -0.3101,1.2007 -0.793,2.2523 -1.4487,3.1548 -0.6558,0.9025 -1.4989,1.6196 -2.5294,2.1513 -1.0305,0.5318 -2.2635,0.7977 -3.6991,0.7977 l -1.3953,-0.0733 -1.1499,-0.1801 -0.8906,-0.2236 -0.6333,-0.2158 0,-4.0691 0.5759,0.3087 0.8174,0.291 0.9579,0.2157 0.9896,0.0871 c 1.2376,0 2.1843,-0.3424 2.8401,-1.0272 0.6558,-0.6848 0.9916,-1.6909 1.0074,-3.0182 l -0.0752,0 c -0.3536,0.4538 -0.8088,0.8147 -1.3656,1.0826 -0.5569,0.2678 -1.2311,0.4017 -2.0228,0.4017 -0.6175,0 -1.2132,-0.1194 -1.7871,-0.3582 -0.574,-0.2388 -1.0833,-0.5871 -1.528,-1.045 -0.4446,-0.4578 -0.644,-0.9939 -0.9118,-1.6695 -0.2679,-0.6755 -0.4018,-1.4474 -0.4018,-2.3156 0,-1.0555 0.1709,-1.9891 0.5126,-2.8005 0.3417,-0.8115 0.6526,-1.5223 1.2464,-2.0712 0.5937,-0.5489 1.2923,-0.9632 2.0959,-1.2429 0.8035,-0.2797 1.6671,-0.4196 2.5907,-0.4196 0.4697,0 0.9626,0.0535 1.4785,0.1604 0.5159,0.1068 1.0192,0.2863 1.5101,0.5383 0.4908,0.252 0.9585,0.5878 1.4032,1.0074 0.4446,0.4196 0.8365,0.9427 1.1756,1.5695 0.3391,0.6267 0.6076,1.3649 0.8055,2.2146 0.198,0.8498 0.2969,1.8314 0.2969,2.945 z m -5.221,-2.3116 -0.0931,-0.7798 -0.279,-0.7006 c -0.124,-0.2111 -0.2784,-0.38 -0.4631,-0.5067 -0.1848,-0.1267 -0.4051,-0.19 -0.6611,-0.19 -0.446,0 -0.8154,0.1788 -1.1083,0.5363 -0.2929,0.3576 -0.4394,0.9124 -0.4394,1.6645 0,0.6993 0.1445,1.2304 0.4334,1.5933 0.289,0.3628 0.6525,0.5442 1.0906,0.5442 0.2639,0 0.4901,-0.0554 0.6788,-0.1662 0.1887,-0.1109 0.3451,-0.2652 0.4691,-0.4631 l 0.279,-0.6928 z"
     id="path4-4"
     sodipodi:nodetypes="ssccccccccccccscccscscscccscccccsccccscscscccc" /><path
     inkscape:connector-curvature="0"
     style="fill:#000000;fill-opacity:1;stroke-linejoin:round"
     d="m 20.720079,76 0,-12.7656 -1.0219,0.4651 -0.9223,0.3206 -0.9777,0.2217 -1.0885,0.1563 0,-3.9583 1.5398,-0.3483 1.4903,-0.5186 1.4903,-0.7303 c 0.4987,-0.281 1.012,-0.4731 1.5398,-0.8426 l 2.9502,0 0,18 z"
     id="path4-4-3"
     sodipodi:nodetypes="cccccccccccccc" /><rect
     style="opacity:1;fill:#000000;fill-opacity:1;stroke:none;stroke-width:0.30000001;stroke-linecap:round;stroke-miterlimit:4;stroke-dasharray:none;stroke-dashoffset:2.86999989;stroke-opacity:1"
     id="rect4210"
     width="3.635752"
     height="3.635752"
     x="30.114525"
     y="72.36425" /><rect
     style="opacity:1;fill:#000000;fill-opacity:1;stroke:none;stroke-width:0.30000001;stroke-linecap:round;stroke-miterlimit:4;stroke-dasharray:none;stroke-dashoffset:2.86999989;stroke-opacity:1"
     id="rect4210-0"
     width="3.635752"
     height="3.635752"
     x="38.144726"
     y="72.36425" /><path
     inkscape:connector-curvature="0"
     style="fill:#000000;fill-opacity:1;stroke-width:0.2;stroke-linejoin:round"
     d="m 76.000004,9.7352228 -12.315232,0 0,5.4734362 6.841796,0 0,41.050773 -6.841796,0 0,5.473436 12.315232,0 z"
     id="path4-3-3"
     sodipodi:nodetypes="ccccccccc" /><path
     d="m 12.013105,29.469948 9.690686,0 0,-7.268014 7.268014,0 0,-9.690685 -7.268014,0 0,-7.268014 -9.690686,0 0,7.268014 -7.2680135,0 0,9.690685 7.2680135,0 z m 2.422672,-2.422671 0,-7.268014 -7.2680142,0 0,-4.845343 7.2680142,0 0,-7.2680137 4.845342,0 0,7.2680137 7.268014,0 0,4.845343 -7.268014,0 0,7.268014 z"
     id="path4-8"
     inkscape:connector-curvature="0"
     style="fill:#000000;fill-opacity:1;stroke-width:0.2;stroke-linejoin:round"
     sodipodi:nodetypes="cccccccccccccccccccccccccc" /><path
     style="fill:#ffffff;fill-opacity:0;stroke:none"
     d="m 14.465605,23.368203 0,-3.654827 -3.620348,0 -3.6203506,0 0,-2.379088 0,-2.379085 3.6203506,0 3.620348,0 0,-3.62035 0,-3.6203479 2.379085,0 2.379087,0 0,3.6203479 0,3.62035 3.654828,0 3.654829,0 0,2.378475 0,2.378477 -3.63759,0.01793 -3.637587,0.01793 -0.01793,3.637588 -0.01793,3.637588 -2.378477,0 -2.378477,0 0,-3.654828 z"
     id="path3077"
     inkscape:connector-curvature="0" /></svg>