<?xml version="1.0" encoding="UTF-8" standalone="no"?>
<svg
   xmlns:dc="http://purl.org/dc/elements/1.1/"
   xmlns:cc="http://creativecommons.org/ns#"
   xmlns:rdf="http://www.w3.org/1999/02/22-rdf-syntax-ns#"
   xmlns:svg="http://www.w3.org/2000/svg"
   xmlns="http://www.w3.org/2000/svg"
   xmlns:sodipodi="http://sodipodi.sourceforge.net/DTD/sodipodi-0.dtd"
   xmlns:inkscape="http://www.inkscape.org/namespaces/inkscape"
   version="1.1"
   width="76"
   height="76"
   viewBox="0 0 76.00 76.00"
   enable-background="new 0 0 76.00 76.00"
   xml:space="preserve"
   id="svg2"
   inkscape:version="0.48.4 r9939"
   sodipodi:docname="appbar.puzzle.round.svg"><metadata
   id="metadata10"><rdf:RDF><cc:Work
       rdf:about=""><dc:format>image/svg+xml</dc:format><dc:type
         rdf:resource="http://purl.org/dc/dcmitype/StillImage" /></cc:Work></rdf:RDF></metadata><defs
   id="defs8" /><sodipodi:namedview
   pagecolor="#ffffff"
   bordercolor="#666666"
   borderopacity="1"
   objecttolerance="10"
   gridtolerance="10"
   guidetolerance="10"
   inkscape:pageopacity="0"
   inkscape:pageshadow="2"
   inkscape:window-width="1920"
   inkscape:window-height="1017"
   id="namedview6"
   showgrid="false"
   inkscape:zoom="3.1052632"
   inkscape:cx="38"
   inkscape:cy="38"
   inkscape:window-x="-8"
   inkscape:window-y="-8"
   inkscape:window-maximized="1"
   inkscape:current-layer="svg2" />
	<path
   d="M 30.38363,0.37577293 C 47.761081,6.1681343 27.487449,9.0643152 37.624356,17.75304 l 20.273631,1.83e-4 0,20.27363 c 8.688725,10.136908 11.584906,-10.136907 17.37745,7.240543 -5.792544,17.377449 -8.688725,-2.896181 -17.37745,7.240726 l 0,23.169812 -20.273631,0 C 27.487449,66.989209 47.761081,64.093028 30.38363,58.300484 c -17.37745,5.792544 2.896364,8.688725 -7.240543,17.37745 l -23.16999477,0 0,-23.169994 C 8.6618176,42.371215 11.55818,62.644845 17.350543,45.267396 11.55818,27.889946 8.6618176,48.163578 -0.02690777,38.026853 l 0,-20.273813 23.16999477,0 C 33.279812,9.0643152 13.00618,6.1681343 30.38363,0.37577293 z"
   id="path4"
   inkscape:connector-curvature="0"
   style="fill:#000000;fill-opacity:1;stroke-width:0.2;stroke-linejoin:round" />
</svg>