<?xml version="1.0" encoding="UTF-8" standalone="no"?>
<svg
   xmlns:dc="http://purl.org/dc/elements/1.1/"
   xmlns:cc="http://creativecommons.org/ns#"
   xmlns:rdf="http://www.w3.org/1999/02/22-rdf-syntax-ns#"
   xmlns:svg="http://www.w3.org/2000/svg"
   xmlns="http://www.w3.org/2000/svg"
   xmlns:sodipodi="http://sodipodi.sourceforge.net/DTD/sodipodi-0.dtd"
   xmlns:inkscape="http://www.inkscape.org/namespaces/inkscape"
   version="1.1"
   width="76"
   height="76"
   viewBox="0 0 76.00 76.00"
   enable-background="new 0 0 76.00 76.00"
   xml:space="preserve"
   id="svg2"
   inkscape:version="0.48.4 r9939"
   sodipodi:docname="form.xml.svg"><metadata
   id="metadata10"><rdf:RDF><cc:Work
       rdf:about=""><dc:format>image/svg+xml</dc:format><dc:type
         rdf:resource="http://purl.org/dc/dcmitype/StillImage" /><dc:title></dc:title></cc:Work></rdf:RDF></metadata><defs
   id="defs8" /><sodipodi:namedview
   pagecolor="#ffffff"
   bordercolor="#666666"
   borderopacity="1"
   objecttolerance="10"
   gridtolerance="10"
   guidetolerance="10"
   inkscape:pageopacity="0"
   inkscape:pageshadow="2"
   inkscape:window-width="1920"
   inkscape:window-height="1017"
   id="namedview6"
   showgrid="false"
   inkscape:zoom="8.7830108"
   inkscape:cx="-1.4971468"
   inkscape:cy="24.73228"
   inkscape:window-x="-8"
   inkscape:window-y="-8"
   inkscape:window-maximized="1"
   inkscape:current-layer="svg2" />
	<path
   d="m 7.3811166,0.57661574 37.8802054,0 19.593239,19.62048126 0,33.147296 c 3.044005,1.077433 5.224918,3.984569 5.224918,7.40159 l 0,7.848192 c 0,4.334516 -3.508963,7.848193 -7.837295,7.848193 l -33.186477,0 c -4.328497,0 -7.837295,-3.513677 -7.837295,-7.848193 l -13.8372954,0 z M 59.629808,26.737203 l -20.89951,0 0,-20.928569 -26.124263,1.652e-4 0,57.5533578 8.612377,0 0,-2.616009 c 0,-4.334516 3.508798,-7.84817 7.837295,-7.848193 L 59.629808,52.89779 z M 43.955051,7.1168864 l 0,14.3881326 14.36832,0 z"
   id="path4"
   inkscape:connector-curvature="0"
   style="fill:#000000;fill-opacity:1;stroke-width:0.2;stroke-linejoin:round"
   sodipodi:nodetypes="ccccsssscccccccccsscccccc" />



<g
   style="font-size:20.47614288px;font-style:normal;font-weight:bold;line-height:125%;letter-spacing:0px;word-spacing:0px;fill:#ffffff;fill-opacity:1;stroke:none;font-family:Sans;-inkscape-font-specification:Sans Bold"
   id="text2987"><path
     d="m 24.523619,72.024803 5.009056,-7.648559 -4.539145,-7.00868 3.459349,0 2.939446,4.709113 2.879457,-4.709113 3.429354,0 -4.559141,7.118659 5.009057,7.53858 -3.569328,0 -3.249388,-5.069045 -3.259386,5.069045 z"
     style=""
     id="path3008" /><path
     d="m 39.650769,72.024803 0,-14.657239 4.429166,0 2.659499,9.998117 2.629504,-9.998117 4.439164,0 0,14.657239 -2.749482,0 0,-11.537826 -2.909452,11.537826 -2.849463,0 -2.899454,-11.537826 0,11.537826 z"
     style=""
     id="path3010" /><path
     d="m 56.847531,72.024803 0,-14.537261 2.959442,0 0,12.067726 7.358614,0 0,2.469535 z"
     style=""
     id="path3012" /></g></svg>