<?xml version="1.0" encoding="UTF-8" standalone="no"?>
<svg
   xmlns:dc="http://purl.org/dc/elements/1.1/"
   xmlns:cc="http://creativecommons.org/ns#"
   xmlns:rdf="http://www.w3.org/1999/02/22-rdf-syntax-ns#"
   xmlns:svg="http://www.w3.org/2000/svg"
   xmlns="http://www.w3.org/2000/svg"
   xmlns:sodipodi="http://sodipodi.sourceforge.net/DTD/sodipodi-0.dtd"
   xmlns:inkscape="http://www.inkscape.org/namespaces/inkscape"
   version="1.1"
   width="76"
   height="76"
   viewBox="0 0 76.00 76.00"
   enable-background="new 0 0 76.00 76.00"
   xml:space="preserve"
   id="svg2"
   inkscape:version="0.48.4 r9939"
   sodipodi:docname="form.download.svg"><metadata
   id="metadata10"><rdf:RDF><cc:Work
       rdf:about=""><dc:format>image/svg+xml</dc:format><dc:type
         rdf:resource="http://purl.org/dc/dcmitype/StillImage" /><dc:title></dc:title></cc:Work></rdf:RDF></metadata><defs
   id="defs8" /><sodipodi:namedview
   pagecolor="#ffffff"
   bordercolor="#666666"
   borderopacity="1"
   objecttolerance="10"
   gridtolerance="10"
   guidetolerance="10"
   inkscape:pageopacity="0"
   inkscape:pageshadow="2"
   inkscape:window-width="1920"
   inkscape:window-height="1017"
   id="namedview6"
   showgrid="false"
   inkscape:zoom="4.3915053"
   inkscape:cx="-46.756438"
   inkscape:cy="48.019933"
   inkscape:window-x="-8"
   inkscape:window-y="-8"
   inkscape:window-maximized="1"
   inkscape:current-layer="svg2" />
	<path
   d="m 2.0581114,9.6200561 36.9618386,0 20.269397,20.2693949 0,46.50038 -57.2312356,0 0,-66.7697749 z m 6.3590258,6.3590259 0,54.051722 44.5131828,0 0,-33.384886 -20.666835,0 0,-20.666836 -23.8463478,0 z m 30.2053748,1.987197 0,12.320612 12.320612,0 -12.320612,-12.320612 z m -20.666836,17.089883 6.359025,0 0,13.51293 4.769272,-4.76927 0,7.551343 -7.948785,7.948784 -7.948781,-8.743662 0,-6.756465 4.769269,4.76927 0,-13.51293 z m 12.718052,25.436103 0,6.359027 -19.077078,0 0,-6.359027 19.077078,0 z"
   id="path4"
   inkscape:connector-curvature="0"
   style="fill:#000000;fill-opacity:1;stroke-width:0.2;stroke-linejoin:round" />
<path
   style="fill:#000000;fill-opacity:1;stroke-width:0.2;stroke-linejoin:round"
   inkscape:connector-curvature="0"
   id="path4-9"
   d="M 69.365236,26.305138 C 47.796068,4.7593709 71.180601,28.026303 49.666823,6.6067279 l -23.01393,0 0,1.9175403 -6.631052,0 0,-8.54859206 34.83797,0 21.136478,21.13647686 0,44.78455 -14.628897,0 0,-6.631052 7.997844,0 z"
   sodipodi:nodetypes="ccccccccccccc" /></svg>