<?xml version="1.0" encoding="UTF-8" standalone="no"?>
<svg
   xmlns:dc="http://purl.org/dc/elements/1.1/"
   xmlns:cc="http://creativecommons.org/ns#"
   xmlns:rdf="http://www.w3.org/1999/02/22-rdf-syntax-ns#"
   xmlns:svg="http://www.w3.org/2000/svg"
   xmlns="http://www.w3.org/2000/svg"
   xmlns:sodipodi="http://sodipodi.sourceforge.net/DTD/sodipodi-0.dtd"
   xmlns:inkscape="http://www.inkscape.org/namespaces/inkscape"
   version="1.1"
   width="76"
   height="76"
   viewBox="0 0 76.00 76.00"
   enable-background="new 0 0 76.00 76.00"
   xml:space="preserve"
   id="svg2"
   inkscape:version="0.48.4 r9939"
   sodipodi:docname="appbar.cabinet.in.svg"><metadata
   id="metadata10"><rdf:RDF><cc:Work
       rdf:about=""><dc:format>image/svg+xml</dc:format><dc:type
         rdf:resource="http://purl.org/dc/dcmitype/StillImage" /><dc:title></dc:title></cc:Work></rdf:RDF></metadata><defs
   id="defs8" /><sodipodi:namedview
   pagecolor="#ffffff"
   bordercolor="#666666"
   borderopacity="1"
   objecttolerance="10"
   gridtolerance="10"
   guidetolerance="10"
   inkscape:pageopacity="0"
   inkscape:pageshadow="2"
   inkscape:window-width="1920"
   inkscape:window-height="1017"
   id="namedview6"
   showgrid="false"
   inkscape:zoom="1.5526316"
   inkscape:cx="-94.631413"
   inkscape:cy="12.224248"
   inkscape:window-x="-8"
   inkscape:window-y="-8"
   inkscape:window-maximized="1"
   inkscape:current-layer="svg2" />
	<g
   id="g3766"
   transform="matrix(1.0826046,0,0,1.0826046,-77.591034,15.474763)"><path
     sodipodi:nodetypes="cccccccccccccccccccccc"
     style="fill:#000000;fill-opacity:1;stroke-width:0.2;stroke-linejoin:round"
     inkscape:connector-curvature="0"
     id="path4-1"
     d="m 89.15678,-13.754237 24,0 12,12.0000006 0,30.0000004 -9,0 -9,0 -9,0 -9,0 z m 18,38.000001 7,0 7,0 0,-21.0000004 -13,0 0,-13.000001 -15,0 0,34.0000014 7,0 m 12,-34.0000014 0,9.00000105 9,0 z" /><rect
     y="20.127119"
     x="94.838982"
     height="12.237288"
     width="21.737288"
     id="rect2994"
     style="fill:#ffffff;fill-opacity:0;stroke:#000000;stroke-width:1.48899996;stroke-linecap:butt;stroke-linejoin:miter;stroke-miterlimit:4;stroke-opacity:0;stroke-dasharray:2.978, 1.489;stroke-dashoffset:0" /><rect
     y="21.762712"
     x="94.864403"
     height="8.6440649"
     width="24.423725"
     id="rect3764"
     style="fill:#ffffff;fill-opacity:1;stroke:#000000;stroke-width:1.86188376;stroke-linecap:butt;stroke-linejoin:miter;stroke-miterlimit:4;stroke-opacity:0;stroke-dasharray:3.72376782, 1.86188391;stroke-dashoffset:0" /></g><path
   d="m 34.494992,21.254238 0,19.583879 -6.781202,-10.802677 0,13.139589 10.824153,10.845628 10.824152,-10.845628 0,-13.139589 -6.781201,10.802677 0,-19.583879 z m -24.257704,27.691256 17.519453,0 5.053688,5.390601 -17.18254,0 0,14.824152 45.820108,0 0,-14.824152 -17.182541,0 5.053689,-5.390601 17.519453,0 0,25.605354 -56.60131,0 z m 21.562404,10.781201 13.476502,0 0,4.042951 -13.476502,0 z"
   id="path4"
   inkscape:connector-curvature="0"
   style="fill:#000000;fill-opacity:1;stroke-width:0.2;stroke-linejoin:round"
   sodipodi:nodetypes="cccccccccccccccccccccccccccc" />
</svg>