<?xml version="1.0" encoding="UTF-8" standalone="no"?>
<svg
   xmlns:dc="http://purl.org/dc/elements/1.1/"
   xmlns:cc="http://creativecommons.org/ns#"
   xmlns:rdf="http://www.w3.org/1999/02/22-rdf-syntax-ns#"
   xmlns:svg="http://www.w3.org/2000/svg"
   xmlns="http://www.w3.org/2000/svg"
   xmlns:sodipodi="http://sodipodi.sourceforge.net/DTD/sodipodi-0.dtd"
   xmlns:inkscape="http://www.inkscape.org/namespaces/inkscape"
   version="1.1"
   width="76"
   height="76"
   viewBox="0 0 76.00 76.00"
   enable-background="new 0 0 76.00 76.00"
   xml:space="preserve"
   id="svg2"
   inkscape:version="0.48.4 r9939"
   sodipodi:docname="form.xsd.svg"><metadata
   id="metadata10"><rdf:RDF><cc:Work
       rdf:about=""><dc:format>image/svg+xml</dc:format><dc:type
         rdf:resource="http://purl.org/dc/dcmitype/StillImage" /><dc:title /></cc:Work></rdf:RDF></metadata><defs
   id="defs8" /><sodipodi:namedview
   pagecolor="#ffffff"
   bordercolor="#666666"
   borderopacity="1"
   objecttolerance="10"
   gridtolerance="10"
   guidetolerance="10"
   inkscape:pageopacity="0"
   inkscape:pageshadow="2"
   inkscape:window-width="1920"
   inkscape:window-height="1017"
   id="namedview6"
   showgrid="false"
   inkscape:zoom="4.3915054"
   inkscape:cx="158.1837"
   inkscape:cy="14.439774"
   inkscape:window-x="-8"
   inkscape:window-y="-8"
   inkscape:window-maximized="1"
   inkscape:current-layer="svg2" />
	<path
   d="m 7.3811166,0.57661574 37.8802054,0 19.593239,19.62048126 0,33.147296 c 3.044005,1.077433 5.224918,3.984569 5.224918,7.40159 l 0,7.848192 c 0,4.334516 -3.508963,7.848193 -7.837295,7.848193 l -33.186477,0 c -4.328497,0 -7.837295,-3.513677 -7.837295,-7.848193 l -13.8372954,0 z M 59.629808,26.737203 l -20.89951,0 0,-20.928569 -26.124263,1.652e-4 0,57.5533578 8.612377,0 0,-2.616009 c 0,-4.334516 3.508798,-7.84817 7.837295,-7.848193 L 59.629808,52.89779 z M 43.955051,7.1168864 l 0,14.3881326 14.36832,0 z"
   id="path4"
   inkscape:connector-curvature="0"
   style="fill:#000000;fill-opacity:1;stroke-width:0.2;stroke-linejoin:round"
   sodipodi:nodetypes="ccccsssscccccccccsscccccc" />
<g
   style="font-size:20.47614288px;font-style:normal;font-weight:bold;line-height:125%;letter-spacing:0px;word-spacing:0px;fill:#ffffff;fill-opacity:1;stroke:none;font-family:Sans;-inkscape-font-specification:Sans Bold"
   id="text2987"
   transform="translate(2.8177965,0.5888155)"><path
     d="m 22.438438,71.649353 5.009057,-7.648559 -4.539145,-7.00868 3.459348,0 2.939447,4.709113 2.879457,-4.709113 3.429354,0 -4.559141,7.118659 5.009056,7.53858 -3.569327,0 -3.249388,-5.069045 -3.259386,5.069045 z"
     id="path2985"
     inkscape:connector-curvature="0" /><path
     d="m 36.855723,66.880251 2.879457,-0.279947 c 0.173297,0.966489 0.524897,1.676354 1.054801,2.129599 0.529895,0.45325 1.24476,0.679874 2.144596,0.679872 0.953146,2e-6 1.671344,-0.201626 2.154595,-0.604886 0.483232,-0.403254 0.724853,-0.874832 0.724863,-1.414734 -10e-6,-0.346596 -0.101657,-0.641541 -0.304943,-0.884833 -0.203304,-0.243282 -0.558237,-0.454909 -1.064799,-0.63488 -0.346609,-0.119972 -1.13646,-0.333265 -2.369554,-0.63988 -1.586372,-0.393252 -2.699494,-0.876494 -3.339371,-1.449727 -0.899832,-0.806506 -1.349747,-1.789653 -1.349745,-2.949444 -2e-6,-0.746515 0.211625,-1.444716 0.63488,-2.094606 0.423251,-0.649864 1.033136,-1.14477 1.829655,-1.48472 0.796513,-0.339921 1.757997,-0.509889 2.884457,-0.509904 1.839645,1.5e-5 3.224383,0.403272 4.154218,1.209772 0.929813,0.806528 1.418054,1.882991 1.464724,3.229392 L 45.394114,61.3113 C 45.267462,60.55812 44.995847,60.016556 44.579268,59.686606 44.162671,59.356681 43.53779,59.191712 42.704621,59.1917 c -0.859844,1.2e-5 -1.53305,0.176645 -2.01962,0.5299 -0.313278,0.226636 -0.469915,0.529911 -0.469911,0.909828 -4e-6,0.346613 0.146635,0.643223 0.439917,0.889833 0.373258,0.313284 1.279753,0.639889 2.719488,0.979815 1.43972,0.339945 2.504518,0.691545 3.194398,1.054802 0.689859,0.363272 1.229757,0.859845 1.619695,1.489719 0.389914,0.629887 0.584877,1.408073 0.58489,2.33456 -1.3e-5,0.839845 -0.233302,1.626363 -0.699869,2.359556 -0.46659,0.733196 -1.126465,1.278093 -1.979627,1.634692 -0.853181,0.356599 -1.916313,0.534899 -3.189399,0.534899 -1.852989,0 -3.276053,-0.428252 -4.269196,-1.284758 -0.993147,-0.856503 -1.586368,-2.1046 -1.779664,-3.744295 z"
     id="path2987"
     inkscape:connector-curvature="0" /><path
     d="m 51.273007,56.992114 5.408981,0 c 1.219762,1.5e-5 2.149586,0.09333 2.789474,0.279947 0.859828,0.2533 1.596355,0.703215 2.209584,1.349746 0.613205,0.646557 1.079784,1.438074 1.399736,2.374553 0.319927,0.9365 0.479896,2.091281 0.47991,3.464347 -1.4e-5,1.206446 -0.149985,2.246249 -0.449915,3.119413 -0.366611,1.066468 -0.889845,1.929638 -1.569705,2.589512 -0.513247,0.499907 -1.20645,0.889833 -2.079608,1.169779 -0.653219,0.206628 -1.526387,0.309942 -2.619506,0.309942 l -5.568951,0 z m 2.959442,2.479533 0,9.708171 2.209584,0 c 0.826503,3e-6 1.423057,-0.04666 1.789663,-0.139973 0.4799,-0.119975 0.878158,-0.32327 1.194775,-0.609886 0.316597,-0.286609 0.574881,-0.758186 0.774854,-1.414733 0.199952,-0.656538 0.299933,-1.551368 0.299943,-2.684494 -1e-5,-1.133112 -0.09999,-2.002947 -0.299943,-2.609509 -0.199973,-0.606542 -0.47992,-1.079785 -0.839842,-1.419732 -0.359941,-0.339925 -0.816522,-0.569881 -1.369742,-0.68987 -0.413263,-0.0933 -1.22311,-0.139962 -2.429542,-0.139974 z"
     id="path2989"
     inkscape:connector-curvature="0" /></g>


</svg>