<?xml version="1.0" encoding="UTF-8" standalone="no"?>
<svg
   xmlns:dc="http://purl.org/dc/elements/1.1/"
   xmlns:cc="http://creativecommons.org/ns#"
   xmlns:rdf="http://www.w3.org/1999/02/22-rdf-syntax-ns#"
   xmlns:svg="http://www.w3.org/2000/svg"
   xmlns="http://www.w3.org/2000/svg"
   xmlns:sodipodi="http://sodipodi.sourceforge.net/DTD/sodipodi-0.dtd"
   xmlns:inkscape="http://www.inkscape.org/namespaces/inkscape"
   version="1.1"
   width="76"
   height="76"
   viewBox="0 0 76.00 76.00"
   enable-background="new 0 0 76.00 76.00"
   xml:space="preserve"
   id="svg2"
   inkscape:version="0.48.4 r9939"
   sodipodi:docname="form.preview.svg"><metadata
   id="metadata10"><rdf:RDF><cc:Work
       rdf:about=""><dc:format>image/svg+xml</dc:format><dc:type
         rdf:resource="http://purl.org/dc/dcmitype/StillImage" /></cc:Work></rdf:RDF></metadata><defs
   id="defs8" /><sodipodi:namedview
   pagecolor="#ffffff"
   bordercolor="#666666"
   borderopacity="1"
   objecttolerance="10"
   gridtolerance="10"
   guidetolerance="10"
   inkscape:pageopacity="0"
   inkscape:pageshadow="2"
   inkscape:window-width="1920"
   inkscape:window-height="1017"
   id="namedview6"
   showgrid="false"
   inkscape:zoom="8.7830105"
   inkscape:cx="15.126237"
   inkscape:cy="20.336414"
   inkscape:window-x="1912"
   inkscape:window-y="-8"
   inkscape:window-maximized="1"
   inkscape:current-layer="svg2" />
	<path
   d="m 2.2499282,0.57627119 39.3462778,0 22.546742,22.54674381 0,20.01704 c -3.442177,-1.220654 -5.274562,-1.50251 -5.305116,-1.471956 l 0,-11.029503 -24.757208,0 0,-22.9888367 -24.7572082,0 0,60.1246477 24.8547732,0 c 0.08784,0.819894 10.005656,7.19249 17.443546,7.073489 l -49.3718068,0 z m 38.9041838,9.28395311 0,13.7048827 13.704882,0 z"
   id="path4"
   inkscape:connector-curvature="0"
   style="fill:#000000;fill-opacity:1;stroke-width:0.2;stroke-linejoin:round"
   sodipodi:nodetypes="cccccccccccccccccc" />
<path
   style="fill:#000000;fill-opacity:1;stroke-width:0.2;stroke-linejoin:round"
   inkscape:connector-curvature="0"
   d="m 54.01655,53.28677 c 2.753409,0 4.985456,2.232047 4.985456,4.985457 0,2.75341 -2.232047,4.985353 -4.985456,4.985353 -2.75341,0 -4.985354,-2.231943 -4.985354,-4.985353 0,-2.75341 2.232047,-4.985457 4.985354,-4.985457 z m 0,-8.308991 c 11.632628,0 21.603438,8.308991 21.603438,13.294448 0,4.985353 -9.97081,13.294447 -21.603438,13.294447 -11.632629,0 -21.603439,-8.309094 -21.603439,-13.294447 0,-4.985457 9.97081,-13.294448 21.603439,-13.294448 z m 0,4.154547 c -5.047798,0 -9.139901,4.092103 -9.139901,9.139901 0,5.047798 4.092103,9.1399 9.139901,9.1399 5.047797,0 9.1399,-4.092102 9.1399,-9.1399 0,-5.047798 -4.092103,-9.139901 -9.1399,-9.139901 z"
   id="path4-1" /></svg>