<?xml version="1.0" encoding="UTF-8" standalone="no"?>
<svg
   xmlns:dc="http://purl.org/dc/elements/1.1/"
   xmlns:cc="http://creativecommons.org/ns#"
   xmlns:rdf="http://www.w3.org/1999/02/22-rdf-syntax-ns#"
   xmlns:svg="http://www.w3.org/2000/svg"
   xmlns="http://www.w3.org/2000/svg"
   xmlns:sodipodi="http://sodipodi.sourceforge.net/DTD/sodipodi-0.dtd"
   xmlns:inkscape="http://www.inkscape.org/namespaces/inkscape"
   version="1.1"
   width="76"
   height="76"
   viewBox="0 0 76.00 76.00"
   enable-background="new 0 0 76.00 76.00"
   xml:space="preserve"
   id="svg2"
   inkscape:version="0.91 r13725"
   sodipodi:docname="group.table.row.svg"><metadata
     id="metadata10"><rdf:RDF><cc:Work
         rdf:about=""><dc:format>image/svg+xml</dc:format><dc:type
           rdf:resource="http://purl.org/dc/dcmitype/StillImage" /></cc:Work></rdf:RDF></metadata><defs
     id="defs8" /><sodipodi:namedview
     pagecolor="#ffffff"
     bordercolor="#666666"
     borderopacity="1"
     objecttolerance="10"
     gridtolerance="10"
     guidetolerance="10"
     inkscape:pageopacity="0"
     inkscape:pageshadow="2"
     inkscape:window-width="1855"
     inkscape:window-height="1056"
     id="namedview6"
     showgrid="false"
     inkscape:zoom="0.67574486"
     inkscape:cx="579.06013"
     inkscape:cy="162.57517"
     inkscape:window-x="1985"
     inkscape:window-y="24"
     inkscape:window-maximized="1"
     inkscape:current-layer="svg2" /><path
     style="fill:#000000"
     d="M 3.4614355,76.52508 C 2.4171042,76.214622 1.1480541,75.102414 0.64688359,74.05837 0.01559072,72.743246 0.04777333,74.663921 0.04932972,38.3952 0.05035184,10.257179 0.07828338,4.6157037 0.2183611,4.0495949 0.66462281,2.2457994 1.5844004,0.96021845 2.9419562,0.24279672 l 0.7033685,-0.3717042 34.5719953,0 34.572004,0 0.703362,0.3717042 c 0.917736,0.48499445 1.853536,1.47807108 2.232684,2.36936048 0.705722,1.6589548 0.66139,-0.7418311 0.66139,35.8222568 0,36.225151 0.03224,34.308984 -0.599004,35.623956 -0.516511,1.076002 -1.774508,2.159896 -2.871876,2.474411 -0.873646,0.250397 -68.6115028,0.242886 -69.4544445,-0.0077 z m 20.4585655,-12.576172 0.03144,-7.710336 -9.573823,0 -9.5738177,0 0,7.743942 0,7.743949 9.5423587,-0.03361 9.542359,-0.03361 0.03148,-7.710336 z m 23.838733,-3.3e-5 0.03144,-7.710369 -9.54236,3.3e-5 -9.542359,3.3e-5 0,7.743942 0,7.743949 9.510925,-0.03361 9.51093,-0.03361 0.03144,-7.710369 z m 23.872091,0.03285 0,-7.743149 -9.572844,0 -9.572851,0 0,7.655655 c 0,4.210607 0.03659,7.695026 0.0813,7.743143 0.04472,0.04813 4.352492,0.08749 9.572845,0.08749 l 9.49155,0 0,-7.743143 z M 23.94951,43.573941 l 0,-7.940007 -9.572843,0 -9.5728476,0 0,7.940007 0,7.940006 9.5728476,0 9.572843,0 0,-7.940006 z m 23.779685,0 0,-7.940007 -9.511875,0 -9.51187,0 0,7.940007 0,7.940006 9.51187,0 9.511875,0 0,-7.940006 z m 23.90163,0 0,-7.940007 -9.572844,0 -9.572851,0 0,7.940007 0,7.940006 9.572851,0 9.572844,0 0,-7.940006 z m -47.710824,-20.703072 0.03144,-7.710337 -9.573823,0 -9.5738177,0 0,7.743943 0,7.743948 9.5423587,-0.03361 9.542359,-0.03361 0.03148,-7.710337 z m 23.810261,7.447854 c 5.05e-4,-0.180454 0.001,-3.546753 0.001,-7.480667 0,-3.933913 -4.85e-4,-7.270685 -0.001,-7.415047 -0.001,-0.260225 -0.08273,-0.262477 -9.502779,-0.262477 -6.214508,0 -9.515771,0.04531 -9.542359,0.130999 -0.02234,0.07205 -0.02607,3.556467 -0.0083,7.743149 l 0.03245,7.612144 9.50993,0 9.509933,0 0.001,-0.328101 z m 23.900563,-7.415047 0,-7.743144 -9.572844,0 -9.572851,0 0,7.65565 c 0,4.210613 0.03659,7.695026 0.0813,7.743148 0.04472,0.04813 4.352492,0.08749 9.572845,0.08749 l 9.49155,0 0,-7.743148 z"
     id="path4169"
     inkscape:connector-curvature="0" /><path
     style="opacity:1;fill:#999999;fill-opacity:1;stroke:none;stroke-width:0.30000001;stroke-linecap:round;stroke-miterlimit:4;stroke-dasharray:none;stroke-dashoffset:2.86999989;stroke-opacity:1"
     d="m 6.4522688,23.139564 0,-6.559242 7.9222022,0 7.922202,0 0,6.559242 0,6.559242 -7.922202,0 -7.9222022,0 0,-6.559242 z"
     id="path4158"
     inkscape:connector-curvature="0" /><path
     style="opacity:1;fill:#999999;fill-opacity:1;stroke:none;stroke-width:0.30000001;stroke-linecap:round;stroke-miterlimit:4;stroke-dasharray:none;stroke-dashoffset:2.86999989;stroke-opacity:1"
     d="m 30.327134,23.139564 0,-6.559242 7.922203,0 7.922201,0 0,6.559242 0,6.559242 -7.922201,0 -7.922203,0 0,-6.559242 z"
     id="path4158-1"
     inkscape:connector-curvature="0" /><path
     style="opacity:1;fill:#999999;fill-opacity:1;stroke:none;stroke-width:0.30000001;stroke-linecap:round;stroke-miterlimit:4;stroke-dasharray:none;stroke-dashoffset:2.86999989;stroke-opacity:1"
     d="m 54.144566,23.139564 0,-6.559242 7.922202,0 7.922202,0 0,6.559242 0,6.559242 -7.922202,0 -7.922202,0 0,-6.559242 z"
     id="path4158-8"
     inkscape:connector-curvature="0" /><path
     style="opacity:1;fill:#999999;fill-opacity:1;stroke:none;stroke-width:0.30000001;stroke-linecap:round;stroke-miterlimit:4;stroke-dasharray:none;stroke-dashoffset:2.86999989;stroke-opacity:1"
     d="m 6.2438121,64.039277 0,-6.559242 7.9222019,0 7.922202,0 0,6.559242 0,6.559242 -7.922202,0 -7.9222019,0 0,-6.559242 z"
     id="path4158-7"
     inkscape:connector-curvature="0" /><path
     style="opacity:1;fill:#999999;fill-opacity:1;stroke:none;stroke-width:0.30000001;stroke-linecap:round;stroke-miterlimit:4;stroke-dasharray:none;stroke-dashoffset:2.86999989;stroke-opacity:1"
     d="m 30.118677,64.039277 0,-6.559242 7.922203,0 7.922201,0 0,6.559242 0,6.559242 -7.922201,0 -7.922203,0 0,-6.559242 z"
     id="path4158-1-7"
     inkscape:connector-curvature="0" /><path
     style="opacity:1;fill:#999999;fill-opacity:1;stroke:none;stroke-width:0.30000001;stroke-linecap:round;stroke-miterlimit:4;stroke-dasharray:none;stroke-dashoffset:2.86999989;stroke-opacity:1"
     d="m 53.936109,64.039277 0,-6.559242 7.922202,0 7.922202,0 0,6.559242 0,6.559242 -7.922202,0 -7.922202,0 0,-6.559242 z"
     id="path4158-8-6"
     inkscape:connector-curvature="0" /></svg>