<?xml version="1.0" encoding="UTF-8" standalone="no"?>
<svg
   xmlns:dc="http://purl.org/dc/elements/1.1/"
   xmlns:cc="http://creativecommons.org/ns#"
   xmlns:rdf="http://www.w3.org/1999/02/22-rdf-syntax-ns#"
   xmlns:svg="http://www.w3.org/2000/svg"
   xmlns="http://www.w3.org/2000/svg"
   xmlns:sodipodi="http://sodipodi.sourceforge.net/DTD/sodipodi-0.dtd"
   xmlns:inkscape="http://www.inkscape.org/namespaces/inkscape"
   version="1.1"
   width="76"
   height="76"
   viewBox="0 0 76.00 76.00"
   enable-background="new 0 0 76.00 76.00"
   xml:space="preserve"
   id="svg2"
   inkscape:version="0.91 r13725"
   sodipodi:docname="group.svg"><metadata
     id="metadata10"><rdf:RDF><cc:Work
         rdf:about=""><dc:format>image/svg+xml</dc:format><dc:type
           rdf:resource="http://purl.org/dc/dcmitype/StillImage" /></cc:Work></rdf:RDF></metadata><defs
     id="defs8" /><sodipodi:namedview
     pagecolor="#ffffff"
     bordercolor="#666666"
     borderopacity="1"
     objecttolerance="10"
     gridtolerance="10"
     guidetolerance="10"
     inkscape:pageopacity="0"
     inkscape:pageshadow="2"
     inkscape:window-width="1855"
     inkscape:window-height="1056"
     id="namedview6"
     showgrid="false"
     inkscape:zoom="3.445308"
     inkscape:cx="70.873698"
     inkscape:cy="23.652546"
     inkscape:window-x="1985"
     inkscape:window-y="24"
     inkscape:window-maximized="1"
     inkscape:current-layer="svg2" /><path
     style="fill:#000000"
     d="M 36.550836,75.155517 C 36.323237,74.947693 29.080353,71.017417 20.455538,66.421555 11.830724,61.825694 4.5204403,57.814741 4.2104613,57.508319 3.8108933,57.113328 3.2038843,50.812831 2.1247553,35.859406 1.2875893,24.258926 0.65912425,14.283759 0.72816225,13.692371 0.80174225,13.062077 1.3043293,12.391 1.9426793,12.070697 2.5416253,11.770165 10.912787,9.0389454 20.545258,6.0013194 L 38.058846,0.47836214 56.264184,6.2604774 c 10.012941,3.180162 18.4622,6.0220416 18.776133,6.3152856 0.469839,0.43887 0.292113,4.416505 -1.004804,22.488954 -1.042437,14.526383 -1.751469,22.126754 -2.095377,22.461035 -0.285881,0.277881 -7.576454,4.26768 -16.201268,8.866208 -8.624812,4.598544 -15.867696,8.536571 -16.095295,8.751185 -0.528645,0.498495 -2.551477,0.50658 -3.092737,0.0124 z m -0.631615,-24.012212 0,-18.291703 -5.22046,-2.616939 c -2.871258,-1.439315 -5.316384,-2.616938 -5.433616,-2.616938 -0.117233,0 -0.26726,2.912648 -0.333393,6.472553 l -0.120246,6.472557 -4.138169,-2.292375 -4.138168,-2.29238 -0.269766,-3.200084 c -0.148368,-1.760047 -0.295382,-4.674171 -0.326697,-6.475825 l -0.05693,-3.275739 -5.05943,-2.518451 C 8.0396593,19.122836 5.6699783,18.082475 5.5563833,18.196069 c -0.348791,0.348787 2.391696,36.615164 2.776907,36.748371 0.198628,0.06869 6.3397047,3.344046 13.6468387,7.278585 7.307135,3.934532 13.432713,7.166813 13.612397,7.182843 0.179683,0.01605 0.326697,-8.202127 0.326697,-18.262563 z m 18.092122,11.099928 c 7.399659,-3.955468 13.609115,-7.346953 13.798793,-7.536629 0.360876,-0.36088 3.085477,-36.252949 2.77552,-36.562907 -0.09786,-0.09786 -6.954292,3.120864 -15.236499,7.152729 L 40.2906,32.627087 40.2829,51.031047 c -0.0043,10.122178 0.05579,18.403959 0.133406,18.403959 0.07761,0 6.195382,-3.236297 13.59504,-7.191773 z M 53.877437,21.061829 C 60.9993,17.600017 66.83085,14.65497 66.836438,14.517284 c 0.0054,-0.137686 -2.391079,-0.985522 -5.325915,-1.88408 l -5.336055,-1.633741 -13.285699,5.957574 c -7.307135,3.276666 -13.667771,6.16148 -14.134743,6.410698 -0.733166,0.391283 -0.168367,0.794768 4.138168,2.956272 l 4.987212,2.503143 1.524589,-0.735557 c 0.838523,-0.40456 7.351569,-3.56795 14.473442,-7.029764 z M 32.859093,13.838393 c 7.792315,-3.026647 14.235383,-5.5607506 14.317929,-5.6313416 0.2003,-0.171293 -8.355102,-2.803689 -9.128099,-2.808608 -0.892437,-0.0057 -28.7010997,8.8516276 -28.7010997,9.1415546 0,0.216237 8.5958337,4.709549 9.1365787,4.775977 0.11377,0.01398 6.58238,-2.450936 14.374691,-5.477582 z"
     id="path4144"
     inkscape:connector-curvature="0" /></svg>