<?xml version="1.0" encoding="UTF-8" standalone="no"?>
<svg
        xmlns:dc="http://purl.org/dc/elements/1.1/"
        xmlns:cc="http://creativecommons.org/ns#"
        xmlns:rdf="http://www.w3.org/1999/02/22-rdf-syntax-ns#"
        xmlns="http://www.w3.org/2000/svg"
        xmlns:sodipodi="http://sodipodi.sourceforge.net/DTD/sodipodi-0.dtd"
        xmlns:inkscape="http://www.inkscape.org/namespaces/inkscape"
        version="1.1"
        width="76"
        height="76"
        viewBox="0 0 76.00 76.00"
        enable-background="new 0 0 76.00 76.00"
        xml:space="preserve"
        id="svg2"
        inkscape:version="0.91 r13725"
        sodipodi:docname="group.svg"><metadata
     id="metadata10"><rdf:RDF><cc:Work
         rdf:about=""><dc:format>image/svg+xml</dc:format><dc:type
           rdf:resource="http://purl.org/dc/dcmitype/StillImage" /></cc:Work></rdf:RDF></metadata><defs
     id="defs8" /><sodipodi:namedview
     pagecolor="#ffffff"
     bordercolor="#666666"
     borderopacity="1"
     objecttolerance="10"
     gridtolerance="10"
     guidetolerance="10"
     inkscape:pageopacity="0"
     inkscape:pageshadow="2"
     inkscape:window-width="1855"
     inkscape:window-height="1056"
     id="namedview6"
     showgrid="false"
     inkscape:zoom="3.0516546"
     inkscape:cx="134.02909"
     inkscape:cy="28.17202"
     inkscape:window-x="1985"
     inkscape:window-y="24"
     inkscape:window-maximized="1"
     inkscape:current-layer="svg2" /><path
     d="m 5.7771819,65.288537 14.4579761,8.41196 -3.746118,2.17954 -0.270757,0 L 0,66.443967 0,9.436064 16.218283,0 16.48904,0 20.235158,2.179538 5.7771819,10.591501 Z"
     id="path8"
     inkscape:connector-curvature="0"
     style="fill:#000000;fill-opacity:1;stroke-width:0.2;stroke-linejoin:round"
     sodipodi:nodetypes="ccccccccccc" /><path
     inkscape:connector-curvature="0"
     style="fill:#000000;fill-opacity:1;stroke-width:0.2;stroke-linejoin:round"
     d="m 11.954642,17.437875 10.966467,0 0,10.966467 -10.966467,0 0,-10.966467 z m 0,15.078892 10.966467,0 0,10.966466 -10.966467,0 0,-10.966466 z m 16.4497,-15.078892 35.641016,0 0,10.966467 -35.641016,0 0,-10.966467 z m -16.4497,30.157783 10.966467,0 0,10.966467 -10.966467,0 0,-10.966467 z m 16.4497,-15.078891 35.641016,0 0,10.966466 -35.641016,0 0,-10.966466 z m 0,15.078891 35.641016,0 0,10.966467 -35.641016,0 0,-10.966467 z"
     id="path4-1" /><path
     d="m 70.222818,65.288537 -14.457976,8.411959 3.746118,2.179541 0.270757,0 L 76,66.443967 76,9.436064 59.781717,0 59.51096,0 55.764842,2.179538 70.222818,10.591501 Z"
     id="path8-4"
     inkscape:connector-curvature="0"
     style="fill:#000000;fill-opacity:1;stroke-width:0.2;stroke-linejoin:round"
     sodipodi:nodetypes="ccccccccccc" /></svg>