<?xml version="1.0" encoding="UTF-8" standalone="no"?>
<svg
   xmlns:dc="http://purl.org/dc/elements/1.1/"
   xmlns:cc="http://creativecommons.org/ns#"
   xmlns:rdf="http://www.w3.org/1999/02/22-rdf-syntax-ns#"
   xmlns:svg="http://www.w3.org/2000/svg"
   xmlns="http://www.w3.org/2000/svg"
   xmlns:sodipodi="http://sodipodi.sourceforge.net/DTD/sodipodi-0.dtd"
   xmlns:inkscape="http://www.inkscape.org/namespaces/inkscape"
   version="1.1"
   width="76"
   height="76"
   viewBox="0 0 76.00 76.00"
   enable-background="new 0 0 76.00 76.00"
   xml:space="preserve"
   id="svg2"
   inkscape:version="0.48.4 r9939"
   sodipodi:docname="infotext.svg"><metadata
   id="metadata10"><rdf:RDF><cc:Work
       rdf:about=""><dc:format>image/svg+xml</dc:format><dc:type
         rdf:resource="http://purl.org/dc/dcmitype/StillImage" /></cc:Work></rdf:RDF></metadata><defs
   id="defs8" /><sodipodi:namedview
   pagecolor="#ffffff"
   bordercolor="#666666"
   borderopacity="1"
   objecttolerance="10"
   gridtolerance="10"
   guidetolerance="10"
   inkscape:pageopacity="0"
   inkscape:pageshadow="2"
   inkscape:window-width="640"
   inkscape:window-height="480"
   id="namedview6"
   showgrid="false"
   inkscape:zoom="3.1052632"
   inkscape:cx="38"
   inkscape:cy="38"
   inkscape:window-x="0"
   inkscape:window-y="0"
   inkscape:window-maximized="0"
   inkscape:current-layer="svg2" />
	<path
   d="m 38.805085,1.9322034 c 20.36431,0 36.872881,16.5085706 36.872881,36.8728816 0,20.36431 -16.508571,36.872881 -36.872881,36.872881 -20.364311,0 -36.8728816,-16.508571 -36.8728816,-36.872881 0,-20.364311 16.5085706,-36.8728816 36.8728816,-36.8728816 z m -9.218221,27.6546606 0,6.145545 6.145352,0 0,21.509117 -6.145352,0 0,6.145544 21.509116,0 0,-6.145544 -6.145545,0 0,-21.509117 0,-6.145545 -15.363571,0 z M 40.34152,14.223099 c -2.545588,0 -4.609111,2.063717 -4.609111,4.60911 0,2.545588 2.063523,4.609111 4.609111,4.609111 2.545392,0 4.60911,-2.063523 4.60911,-4.609111 0,-2.545393 -2.063718,-4.60911 -4.60911,-4.60911 z"
   id="path4"
   inkscape:connector-curvature="0"
   style="fill:#000000;fill-opacity:1;stroke-width:0.2;stroke-linejoin:round" />
</svg>