<?xml version="1.0" encoding="UTF-8" standalone="no"?>
<svg
   xmlns:dc="http://purl.org/dc/elements/1.1/"
   xmlns:cc="http://creativecommons.org/ns#"
   xmlns:rdf="http://www.w3.org/1999/02/22-rdf-syntax-ns#"
   xmlns:svg="http://www.w3.org/2000/svg"
   xmlns="http://www.w3.org/2000/svg"
   xmlns:sodipodi="http://sodipodi.sourceforge.net/DTD/sodipodi-0.dtd"
   xmlns:inkscape="http://www.inkscape.org/namespaces/inkscape"
   version="1.1"
   width="76"
   height="76"
   viewBox="0 0 76.00 76.00"
   enable-background="new 0 0 76.00 76.00"
   xml:space="preserve"
   id="svg2"
   inkscape:version="0.48.4 r9939"
   sodipodi:docname="page.flow.editor.svg"><metadata
   id="metadata10"><rdf:RDF><cc:Work
       rdf:about=""><dc:format>image/svg+xml</dc:format><dc:type
         rdf:resource="http://purl.org/dc/dcmitype/StillImage" /></cc:Work></rdf:RDF></metadata><defs
   id="defs8" /><sodipodi:namedview
   pagecolor="#ffffff"
   bordercolor="#666666"
   borderopacity="1"
   objecttolerance="10"
   gridtolerance="10"
   guidetolerance="10"
   inkscape:pageopacity="0"
   inkscape:pageshadow="2"
   inkscape:window-width="1920"
   inkscape:window-height="1017"
   id="namedview6"
   showgrid="false"
   inkscape:zoom="2.1957526"
   inkscape:cx="-170.76367"
   inkscape:cy="-20.470421"
   inkscape:window-x="-8"
   inkscape:window-y="-8"
   inkscape:window-maximized="1"
   inkscape:current-layer="svg2" />
	
<g
   id="g3817"><path
     sodipodi:nodetypes="sssssssccsssccssssssscccccsscssscsscsssss"
     style="fill:#000000;fill-opacity:1;stroke-width:0.2;stroke-linejoin:round"
     inkscape:connector-curvature="0"
     id="path4"
     d="m 12.339902,69.37235 c -2.395676,0 -4.337668,-1.942129 -4.337668,-4.337805 0,-2.395676 1.941992,-4.337805 4.337668,-4.337805 2.395676,0 4.337805,1.942129 4.337805,4.337805 0,2.395676 -1.942129,4.337805 -4.337805,4.337805 z m 0,6.506502 c 5.989259,0 10.844308,-4.855185 10.844308,-10.844307 0,-4.446981 -2.67649,-8.268638 -6.506503,-9.942146 l 0,-9.155683 c 3.830013,-1.673371 6.506639,-5.495165 6.506639,-9.942008 0,-5.989259 -4.855185,-10.844445 -10.844444,-10.844445 -5.989122,0 -10.844308,4.855186 -10.844308,10.844445 0,4.446843 2.676489,8.268637 6.506502,9.942008 l 0,9.155683 c -3.830013,1.673508 -6.506639,5.495165 -6.506639,9.942146 0,5.989122 4.855323,10.844307 10.844445,10.844307 z m 0,-35.546476 c -2.395676,0 -4.337668,-1.941992 -4.337668,-4.337668 0,-2.395676 1.941992,-4.337806 4.337668,-4.337806 2.395676,0 4.337805,1.94213 4.337805,4.337806 0,2.395676 -1.942129,4.337668 -4.337805,4.337668 z m 31.857724,20.364364 0,-6.50664 -10.844446,10.844445 10.844309,10.844307 0,-6.506639 6.506777,0 c 4.791352,0 6.871152,-4.236837 8.675473,-8.675473 l 6,-14.760024 c 3.830013,-1.673371 6.506639,-5.495165 6.506639,-9.942008 0,-5.989259 -4.855185,-10.844445 -10.844444,-10.844445 -5.989122,0 -10.844308,4.855186 -10.844308,10.844445 0,4.446843 2.676489,8.268637 6.50664,9.942008 l -6,10.422355 C 49.50902,58.435283 48.762136,60.69674 46.36646,60.69674 z M 61.041934,40.332376 c -2.395676,0 -4.337668,-1.941992 -4.337668,-4.337668 0,-2.395676 1.941992,-4.337806 4.337668,-4.337806 2.395676,0 4.337805,1.94213 4.337805,4.337806 0,2.395676 -1.942129,4.337668 -4.337805,4.337668 z" /><path
     sodipodi:nodetypes="csssccsssss"
     style="fill:#000000;fill-opacity:1;stroke-width:0.2;stroke-linejoin:round"
     inkscape:connector-curvature="0"
     id="path4-1"
     d="m 43.207031,21.474631 c 3.830013,-1.673371 6.506639,-5.495165 6.506639,-9.942008 0,-5.9892585 -4.855185,-10.8444445 -10.844444,-10.8444445 -5.989122,0 -10.844308,4.855186 -10.844308,10.8444445 0,4.446843 2.676489,8.268637 6.506502,9.942008 2.26563,0.901458 5.981294,1.119336 8.675611,0 z m -4.337805,-5.60434 c -2.395676,0 -4.337668,-1.941992 -4.337668,-4.337668 0,-2.3956755 1.941992,-4.3378055 4.337668,-4.3378055 2.395676,0 4.337805,1.94213 4.337805,4.3378055 0,2.395676 -1.942129,4.337668 -4.337805,4.337668 z" /><rect
     y="45.970341"
     x="7.9406776"
     height="8.775424"
     width="8.4533901"
     id="rect3005"
     style="fill:#000000;fill-opacity:0;stroke:none" /><rect
     transform="matrix(0.74699481,-0.66482987,0.66101315,0.75037431,0,0)"
     y="31.476973"
     x="-7.3749876"
     height="8.1343966"
     width="20.389986"
     id="rect3797"
     style="fill:#000000;fill-opacity:1;stroke:none" /><rect
     transform="matrix(-0.74699481,-0.66482987,-0.66101315,0.75037431,0,0)"
     y="-19.759205"
     x="-63.992825"
     height="8.1343966"
     width="20.389986"
     id="rect3797-4"
     style="fill:#000000;fill-opacity:1;stroke:none" /></g></svg>