<?xml version="1.0" encoding="UTF-8" standalone="no"?>
<svg
   xmlns:dc="http://purl.org/dc/elements/1.1/"
   xmlns:cc="http://creativecommons.org/ns#"
   xmlns:rdf="http://www.w3.org/1999/02/22-rdf-syntax-ns#"
   xmlns:svg="http://www.w3.org/2000/svg"
   xmlns="http://www.w3.org/2000/svg"
   xmlns:sodipodi="http://sodipodi.sourceforge.net/DTD/sodipodi-0.dtd"
   xmlns:inkscape="http://www.inkscape.org/namespaces/inkscape"
   version="1.1"
   width="76"
   height="76"
   viewBox="0 0 76.00 76.00"
   enable-background="new 0 0 76.00 76.00"
   xml:space="preserve"
   id="svg2"
   inkscape:version="0.48.4 r9939"
   sodipodi:docname="page.compare.svg"><metadata
   id="metadata10"><rdf:RDF><cc:Work
       rdf:about=""><dc:format>image/svg+xml</dc:format><dc:type
         rdf:resource="http://purl.org/dc/dcmitype/StillImage" /><dc:title></dc:title></cc:Work></rdf:RDF></metadata><defs
   id="defs8" /><sodipodi:namedview
   pagecolor="#ffffff"
   bordercolor="#666666"
   borderopacity="1"
   objecttolerance="10"
   gridtolerance="10"
   guidetolerance="10"
   inkscape:pageopacity="0"
   inkscape:pageshadow="2"
   inkscape:window-width="1920"
   inkscape:window-height="1017"
   id="namedview6"
   showgrid="false"
   showguides="true"
   inkscape:guide-bbox="true"
   inkscape:zoom="0.54893816"
   inkscape:cx="-385.50951"
   inkscape:cy="-297.00611"
   inkscape:window-x="-8"
   inkscape:window-y="-8"
   inkscape:window-maximized="1"
   inkscape:current-layer="svg2" />
	<path
   d="m 67.010997,47.376888 -61.839711,0 c 0.4682115,2.00251 1.0840046,3.948169 1.8352634,5.824976 l 54.1794716,0 0,22.237077 c 2.033499,-0.888425 3.980555,-1.93797 5.824976,-3.132556 z m 0,-13.979941 0,-29.5895242 C 65.16646,2.6129301 63.21952,1.5633976 61.186021,0.67492587 l 0,26.89704613 -55.7240803,1.17e-4 C 4.960154,29.463225 4.5908738,31.408417 4.3646318,33.396947 z m -12.814946,-12.814946 0,-5.824975 -42.786321,1.16e-4 c -1.281297,1.836964 -2.4152214,3.784254 -3.3846254,5.824975 z m 0,45.434808 0,-5.824975 -43.569466,0 c 1.346933,2.079866 2.878167,4.029252 4.570556,5.824975 z m 0,-57.0847596 0,-5.8249517 -30.334143,4.66e-5 c -2.732729,1.646604 -5.256457,3.6046582 -7.522373,5.8250219 z"
   id="path4"
   inkscape:connector-curvature="0"
   style="fill:#000000;fill-opacity:1;stroke-width:0.2;stroke-linejoin:round"
   sodipodi:nodetypes="ccccccccccccccccccccccccccccc" />
<g
   id="g3863"
   transform="matrix(1.8728241,0,0,1.8728241,-142.10371,-71.89091)"><g
     transform="matrix(0.46487227,0,0,0.46487227,86.32807,49.599604)"
     id="g3784"><path
       sodipodi:nodetypes="cccccccccccccccccccc"
       inkscape:connector-curvature="0"
       style="fill:#ffffff;fill-opacity:1;fill-rule:nonzero;stroke:none"
       d="m 6.2064186,41.061296 0,-22.318529 -8.0078738,6.854155 0,-15.422005 13.8132662,-12.5886767 13.200974,13.2009747 0,14.809707 -7.395582,-7.431014 0,22.895388 z M 37.801455,5.462324 l 0,22.353963 8.007874,-6.854156 0,15.386573 -13.813266,12.011811 -13.236407,-12.624109 0,-14.774275 7.431015,6.854156 0,-22.353963 z"
       id="path3786" /></g><path
     inkscape:connector-curvature="0"
     style="fill:#000000;fill-opacity:1;fill-rule:nonzero;stroke:none"
     d="m 90.063453,67.85105 0,-11.497352 -3.72264,3.722638 0,-4.89214 5.58396,-5.567486 5.56748,5.567486 0,4.89214 -3.70617,-3.722638 0,11.497352 -3.72263,0 z m 13.012757,-14.874082 0,11.513824 3.72264,-3.722639 0,4.875669 -5.58396,5.583957 -5.583957,-5.583957 0,-4.875669 3.72264,3.722639 0,-11.513824 3.722637,0 z"
     id="path3786-8" /></g></svg>