<?xml version="1.0" encoding="UTF-8" standalone="no"?>
<svg
   xmlns:dc="http://purl.org/dc/elements/1.1/"
   xmlns:cc="http://creativecommons.org/ns#"
   xmlns:rdf="http://www.w3.org/1999/02/22-rdf-syntax-ns#"
   xmlns:svg="http://www.w3.org/2000/svg"
   xmlns="http://www.w3.org/2000/svg"
   xmlns:sodipodi="http://sodipodi.sourceforge.net/DTD/sodipodi-0.dtd"
   xmlns:inkscape="http://www.inkscape.org/namespaces/inkscape"
   version="1.1"
   width="76"
   height="76"
   viewBox="0 0 76.00 76.00"
   enable-background="new 0 0 76.00 76.00"
   xml:space="preserve"
   id="svg2"
   inkscape:version="0.48.4 r9939"
   sodipodi:docname="page.xml.svg"><metadata
   id="metadata10"><rdf:RDF><cc:Work
       rdf:about=""><dc:format>image/svg+xml</dc:format><dc:type
         rdf:resource="http://purl.org/dc/dcmitype/StillImage" /></cc:Work></rdf:RDF></metadata><defs
   id="defs8" /><sodipodi:namedview
   pagecolor="#ffffff"
   bordercolor="#666666"
   borderopacity="1"
   objecttolerance="10"
   gridtolerance="10"
   guidetolerance="10"
   inkscape:pageopacity="0"
   inkscape:pageshadow="2"
   inkscape:window-width="1920"
   inkscape:window-height="1017"
   id="namedview6"
   showgrid="false"
   inkscape:zoom="3.1052632"
   inkscape:cx="38"
   inkscape:cy="38"
   inkscape:window-x="-8"
   inkscape:window-y="-8"
   inkscape:window-maximized="1"
   inkscape:current-layer="svg2" />
	<path
   d="M 50.381282,76.641 30.613046,58.161997 50.381282,39.682996 l 0,9.454373 -10.743606,9.024628 10.743606,9.02463 0,9.454373 z m 6.875907,0 0,-9.454373 10.743606,-9.02463 -10.743606,-9.024628 0,-9.454373 L 77.025423,58.161997 57.257189,76.641 z M 2.2499282,0.57627119 l 38.2472368,0 21.916955,21.91695581 0,20.197979 -5.156931,-5.156931 0,-7.735396 -24.065677,0 0,-22.3467001 -24.0656766,0 0,58.4452141 26.6441416,0 7.305653,6.875909 -40.8257018,0 0,-72.19703081 z M 40.06742,9.6009 l 0,13.322071 13.32207,0 L 40.06742,9.6009 z"
   id="path4"
   inkscape:connector-curvature="0"
   style="fill:#000000;fill-opacity:1;stroke-width:0.2;stroke-linejoin:round" />
</svg>