<?xml version="1.0" encoding="UTF-8" standalone="no"?>
<svg
   xmlns:dc="http://purl.org/dc/elements/1.1/"
   xmlns:cc="http://creativecommons.org/ns#"
   xmlns:rdf="http://www.w3.org/1999/02/22-rdf-syntax-ns#"
   xmlns:svg="http://www.w3.org/2000/svg"
   xmlns="http://www.w3.org/2000/svg"
   xmlns:sodipodi="http://sodipodi.sourceforge.net/DTD/sodipodi-0.dtd"
   xmlns:inkscape="http://www.inkscape.org/namespaces/inkscape"
   version="1.1"
   width="76"
   height="76"
   viewBox="0 0 76.00 76.00"
   enable-background="new 0 0 76.00 76.00"
   xml:space="preserve"
   id="svg2"
   inkscape:version="0.48.4 r9939"
   sodipodi:docname="appbar.cabinet.files.svg"><metadata
   id="metadata10"><rdf:RDF><cc:Work
       rdf:about=""><dc:format>image/svg+xml</dc:format><dc:type
         rdf:resource="http://purl.org/dc/dcmitype/StillImage" /></cc:Work></rdf:RDF></metadata><defs
   id="defs8" /><sodipodi:namedview
   pagecolor="#ffffff"
   bordercolor="#666666"
   borderopacity="1"
   objecttolerance="10"
   gridtolerance="10"
   guidetolerance="10"
   inkscape:pageopacity="0"
   inkscape:pageshadow="2"
   inkscape:window-width="1920"
   inkscape:window-height="1017"
   id="namedview6"
   showgrid="false"
   inkscape:zoom="3.1052632"
   inkscape:cx="38"
   inkscape:cy="38"
   inkscape:window-x="-8"
   inkscape:window-y="-8"
   inkscape:window-maximized="1"
   inkscape:current-layer="svg2" />
	<path
   d="m 3.5883777,39.009685 0,-29.2493945 9.1404353,0 0,-3.6561743 9.140436,0 0,-1.8280872 32.448548,0 18.737893,18.737894 0,15.995762 3.656174,0 0,34.733656 -0.761764,0 -75.25613274,0 -0.76176387,0 0,-34.733656 3.65617431,0 z m 9.1404353,0 0,-23.765133 -3.6561738,0 0,23.765133 3.6561738,0 z m 5.484262,-27.421307 0,27.421307 3.656174,0 0,-27.421307 -3.656174,0 z m 29.249394,42.046004 0,5.484262 -18.280871,0 0,-5.484262 18.280871,0 z m 20.108959,-14.624697 0,-9.140436 -20.108959,0 0,-20.1089585 -20.108958,0 0,29.2493945 40.217917,0 z m -14.624697,-27.878329 0,13.253632 13.253632,0 -13.253632,-13.253632 z m -45.702179,35.190678 0,20.108958 62.154963,0 0,-20.108958 -62.154963,0 z"
   id="path4"
   inkscape:connector-curvature="0"
   style="fill:#000000;fill-opacity:1;stroke-width:0.2;stroke-linejoin:round" />
</svg>