<?xml version="1.0" encoding="UTF-8" standalone="no"?>
<svg
   xmlns:dc="http://purl.org/dc/elements/1.1/"
   xmlns:cc="http://creativecommons.org/ns#"
   xmlns:rdf="http://www.w3.org/1999/02/22-rdf-syntax-ns#"
   xmlns:svg="http://www.w3.org/2000/svg"
   xmlns="http://www.w3.org/2000/svg"
   xmlns:sodipodi="http://sodipodi.sourceforge.net/DTD/sodipodi-0.dtd"
   xmlns:inkscape="http://www.inkscape.org/namespaces/inkscape"
   version="1.1"
   width="76"
   height="76"
   viewBox="0 0 76.00 76.00"
   enable-background="new 0 0 76.00 76.00"
   xml:space="preserve"
   id="svg2"
   inkscape:version="0.48.4 r9939"
   sodipodi:docname="question.textbox.numbers.svg"><metadata
   id="metadata10"><rdf:RDF><cc:Work
       rdf:about=""><dc:format>image/svg+xml</dc:format><dc:type
         rdf:resource="http://purl.org/dc/dcmitype/StillImage" /><dc:title /></cc:Work></rdf:RDF></metadata><defs
   id="defs8">

</defs><sodipodi:namedview
   pagecolor="#ffffff"
   bordercolor="#666666"
   borderopacity="1"
   objecttolerance="10"
   gridtolerance="10"
   guidetolerance="10"
   inkscape:pageopacity="0"
   inkscape:pageshadow="2"
   inkscape:window-width="1382"
   inkscape:window-height="971"
   id="namedview6"
   showgrid="false"
   inkscape:zoom="8.7830104"
   inkscape:cx="58.412117"
   inkscape:cy="41.277021"
   inkscape:window-x="1921"
   inkscape:window-y="0"
   inkscape:window-maximized="1"
   inkscape:current-layer="svg2" />
	
<path
   d="m -0.10656419,9.165726 76.38070819,0 0,58.262678 -76.38070819,0 z m 6.85449629,6.854496 0,44.553686 62.6717149,0 0,-44.553686 z m 51.2649009,41.126546 0,-37.699405 4.28387,0 0,37.699405 z"
   id="path4"
   inkscape:connector-curvature="0"
   style="fill:#000000;fill-opacity:1;stroke-width:0.2;stroke-linejoin:round"
   sodipodi:nodetypes="ccccccccccccccc" /><g
   id="text2987"
   style="font-size:37.85850143px;font-style:normal;font-weight:bold;line-height:125%;letter-spacing:0px;word-spacing:0px;fill:#000000;fill-opacity:1;stroke:none;font-family:Sans;-inkscape-font-specification:Verdana Bold"
   transform="matrix(1.0291477,0,0,1.0291477,0.0031061,-0.14998497)"><path
     inkscape:connector-curvature="0"
     id="path2986"
     style="font-size:33.65200043px;font-variant:normal;font-stretch:normal;font-family:Tahoma;-inkscape-font-specification:Tahoma Bold"
     d="m 28.505999,51.678646 -16.168734,0 0,-4.272227 5.159535,0 0,-12.931701 -5.159535,0 0,-3.992889 c 0.755851,2.2e-5 1.506229,-0.04927 2.251135,-0.147884 0.744894,-0.09857 1.34191,-0.257408 1.791048,-0.476518 0.525805,-0.262884 0.933857,-0.616164 1.224158,-1.059841 0.290283,-0.443631 0.457338,-0.99409 0.501165,-1.65138 l 5.356715,0 0,20.260213 5.044513,0 z" /><path
     inkscape:connector-curvature="0"
     id="path2988"
     style="font-size:33.65200043px;font-variant:normal;font-stretch:normal;font-family:Tahoma;-inkscape-font-specification:Tahoma Bold"
     d="m 51.017347,51.678646 -17.976216,0 0,-3.992889 c 1.522662,-1.204981 2.889225,-2.344241 4.099695,-3.417781 1.210456,-1.073525 2.275773,-2.092286 3.195954,-3.056285 1.194022,-1.259748 2.05942,-2.366144 2.596199,-3.319192 0.536754,-0.95302 0.805137,-1.93344 0.805151,-2.941263 -1.4e-5,-1.139243 -0.3396,-2.012858 -1.018762,-2.620847 -0.679186,-0.607951 -1.626743,-0.911936 -2.842674,-0.911956 -0.624411,2e-5 -1.213211,0.0767 -1.766401,0.230043 -0.553206,0.153382 -1.11462,0.350561 -1.684244,0.591539 -0.558681,0.251971 -1.035198,0.5094 -1.429552,0.772287 -0.394364,0.262925 -0.690133,0.460104 -0.887309,0.591539 l -0.476517,0 0,-5.340283 c 0.690125,-0.328609 1.769135,-0.665457 3.237033,-1.010546 1.467885,-0.34504 2.881005,-0.517572 4.239363,-0.517597 2.90291,2.5e-5 5.102009,0.646336 6.597304,1.938934 1.495261,1.292644 2.242899,3.111077 2.242919,5.455305 -2e-5,1.446 -0.339606,2.861858 -1.018762,4.247579 -0.679192,1.385747 -1.807497,2.872809 -3.384918,4.46119 -0.985912,0.974952 -1.944424,1.84309 -2.875537,2.604415 -0.931138,0.761339 -1.604834,1.300844 -2.021092,1.618517 l 10.368366,0 z" /></g>
</svg>