<?xml version="1.0" encoding="UTF-8" standalone="no"?>
<svg
   xmlns:dc="http://purl.org/dc/elements/1.1/"
   xmlns:cc="http://creativecommons.org/ns#"
   xmlns:rdf="http://www.w3.org/1999/02/22-rdf-syntax-ns#"
   xmlns:svg="http://www.w3.org/2000/svg"
   xmlns="http://www.w3.org/2000/svg"
   xmlns:sodipodi="http://sodipodi.sourceforge.net/DTD/sodipodi-0.dtd"
   xmlns:inkscape="http://www.inkscape.org/namespaces/inkscape"
   version="1.1"
   width="76.0106"
   height="76.0106"
   viewBox="0 0 76.01 76.01"
   enable-background="new 0 0 76.01 76.01"
   xml:space="preserve"
   id="svg2"
   inkscape:version="0.48.4 r9939"
   sodipodi:docname="appbar.calendar.31.svg"><metadata
   id="metadata10"><rdf:RDF><cc:Work
       rdf:about=""><dc:format>image/svg+xml</dc:format><dc:type
         rdf:resource="http://purl.org/dc/dcmitype/StillImage" /></cc:Work></rdf:RDF></metadata><defs
   id="defs8" /><sodipodi:namedview
   pagecolor="#ffffff"
   bordercolor="#666666"
   borderopacity="1"
   objecttolerance="10"
   gridtolerance="10"
   guidetolerance="10"
   inkscape:pageopacity="0"
   inkscape:pageshadow="2"
   inkscape:window-width="640"
   inkscape:window-height="480"
   id="namedview6"
   showgrid="false"
   inkscape:zoom="3.1048302"
   inkscape:cx="38.005299"
   inkscape:cy="38.005299"
   inkscape:window-x="0"
   inkscape:window-y="0"
   inkscape:window-maximized="0"
   inkscape:current-layer="svg2" />
	<path
   d="m 15.327585,54.626196 6.919044,-0.845036 c 0.195537,1.767447 0.724589,3.118858 1.586777,4.054039 0.86238,0.935372 1.906194,1.403058 3.131439,1.403058 1.312722,0 2.419426,-0.506374 3.320493,-1.519312 0.900876,-1.012748 1.351219,-2.379596 1.351219,-4.100542 0,-1.627752 -0.404032,-2.917223 -1.212285,-3.868033 -0.808256,-0.950809 -1.79413,-1.426308 -2.957627,-1.426308 -0.766899,0 -1.683404,0.167902 -2.748941,0.503896 l 0.63311,-5.960995 c 1.559905,0.0465 2.750465,-0.326846 3.571488,-1.120044 0.821214,-0.793389 1.231725,-1.843681 1.231725,-3.151067 0,-1.116233 -0.314077,-2.006437 -0.942232,-2.670421 -0.627965,-0.664175 -1.464426,-0.996168 -2.509572,-0.996168 -1.024372,0 -1.900854,0.379828 -2.629256,1.139486 -0.728591,0.759655 -1.172644,1.868264 -1.332161,3.325447 l -6.918854,-0.999978 c 0.432429,-2.180629 1.083644,-3.922159 1.953647,-5.224588 0.870002,-1.302242 2.083621,-2.326614 3.640859,-3.073501 1.557238,-0.746697 3.301246,-1.120045 5.231641,-1.120045 3.310201,0 5.961566,1.064585 7.953709,3.193757 1.647382,1.746676 2.471073,3.718046 2.471073,5.914301 0,3.116191 -1.724567,5.601939 -5.173702,7.457056 2.018061,0.434143 3.631902,1.408203 4.84171,2.922369 1.209809,1.514167 1.814714,3.343554 1.814714,5.488162 0,3.111046 -1.120999,5.762027 -3.362993,7.953138 -2.241996,2.19111 -5.03096,3.286761 -8.36689,3.286761 -3.165932,0 -5.790234,-0.974251 -7.872521,-2.92237 -2.08248,-1.94831 -3.290954,-4.495997 -3.625614,-7.643062 z m 41.784131,10.565432 -5.718385,0 0,-25.732252 c -2.552451,2.651172 -5.426223,4.344484 -8.886794,5.61242 l 0,-7.04178 c 1.826719,-0.586798 3.810287,-1.697696 5.950132,-3.332308 2.140033,-1.634804 3.609413,-3.541949 4.407949,-5.721624 l 4.247098,0 0,36.215544 z m -57.17850574,9.530767 0,-64.8068937 9.53038654,0 0,-5.7181932 C 9.4637871,2.0915782 11.17044,0.38511542 13.275789,0.38511542 l 7.624195,0 c 2.105349,0 3.812003,1.70646278 3.812193,3.81162098 l 0,5.7187649 26.685156,0 -1.89e-4,-5.7187649 c 0,-2.1053488 1.706843,-3.81219268 3.812192,-3.81219268 l 7.624386,0 c 2.105348,0 3.812001,1.70684388 3.812001,3.81219268 l 1.91e-4,5.7187649 9.530386,0 0,64.8068937 -76.24308974,0 z m 5.71819364,-5.718194 64.8065121,0 0,-43.84012 -64.8065121,0 0,43.84012 z M 58.068433,4.1973081 c -1.579155,0 -2.859097,1.2801329 -2.859097,2.8590969 l 0,5.718385 c 0,1.578963 1.279942,2.859096 2.859097,2.859096 l 1.906001,0 c 1.579154,0 2.859097,-1.280133 2.859097,-2.859096 l 0,-5.718385 c 0,-1.578964 -1.279943,-2.8590969 -2.859097,-2.8590969 l -1.906001,0 z m -41.933547,0 c -1.579155,0 -2.859097,1.2801329 -2.859097,2.8590969 l 0,5.718194 c 0,1.579154 1.279942,2.859096 2.859097,2.859096 l 1.906001,0 c 1.579155,0 2.859097,-1.279942 2.859097,-2.859096 l 0,-5.718194 c 0,-1.578964 -1.279942,-2.8590969 -2.859097,-2.8590969 l -1.906001,0 z"
   id="path4"
   inkscape:connector-curvature="0"
   style="fill:#000000;fill-opacity:1;stroke-width:0.2;stroke-linejoin:round" />
</svg>