<?xml version="1.0" encoding="UTF-8" standalone="no"?>
<svg
   xmlns:dc="http://purl.org/dc/elements/1.1/"
   xmlns:cc="http://creativecommons.org/ns#"
   xmlns:rdf="http://www.w3.org/1999/02/22-rdf-syntax-ns#"
   xmlns:svg="http://www.w3.org/2000/svg"
   xmlns="http://www.w3.org/2000/svg"
   xmlns:sodipodi="http://sodipodi.sourceforge.net/DTD/sodipodi-0.dtd"
   xmlns:inkscape="http://www.inkscape.org/namespaces/inkscape"
   version="1.1"
   width="76"
   height="76"
   viewBox="0 0 76.00 76.00"
   enable-background="new 0 0 76.00 76.00"
   xml:space="preserve"
   id="svg2"
   inkscape:version="0.48.4 r9939"
   sodipodi:docname="appbar.radiobutton.svg"><metadata
   id="metadata10"><rdf:RDF><cc:Work
       rdf:about=""><dc:format>image/svg+xml</dc:format><dc:type
         rdf:resource="http://purl.org/dc/dcmitype/StillImage" /></cc:Work></rdf:RDF></metadata><defs
   id="defs8" /><sodipodi:namedview
   pagecolor="#ffffff"
   bordercolor="#666666"
   borderopacity="1"
   objecttolerance="10"
   gridtolerance="10"
   guidetolerance="10"
   inkscape:pageopacity="0"
   inkscape:pageshadow="2"
   inkscape:window-width="640"
   inkscape:window-height="480"
   id="namedview6"
   showgrid="false"
   inkscape:zoom="3.1052632"
   inkscape:cx="38"
   inkscape:cy="38"
   inkscape:window-x="0"
   inkscape:window-y="0"
   inkscape:window-maximized="0"
   inkscape:current-layer="svg2" />
	<path
   d="m 38.000001,18.820703 c 10.592484,0 19.179296,8.586812 19.179296,19.179298 0,10.592484 -8.586812,19.179296 -19.179296,19.179296 -10.592486,0 -19.179298,-8.586812 -19.179298,-19.179296 0,-10.592486 8.586812,-19.179298 19.179298,-19.179298 z m 0,-18.61943181 c 20.875684,0 37.798728,16.92304381 37.798728,37.79872981 0,20.875684 -16.923044,37.798728 -37.798728,37.798728 -20.875686,0 -37.79872981,-16.923044 -37.79872981,-37.798728 0,-20.875686 16.92304381,-37.79872981 37.79872981,-37.79872981 z m 0,6.99970601 c -17.009871,0 -30.7990238,13.7891528 -30.7990238,30.7990238 0,17.009869 13.7891528,30.799022 30.7990238,30.799022 17.009692,0 30.799022,-13.789153 30.799022,-30.799022 0,-17.009871 -13.789153,-30.7990238 -30.799022,-30.7990238 z"
   id="path4"
   inkscape:connector-curvature="0"
   style="fill:#000000;fill-opacity:1;stroke-width:0.2;stroke-linejoin:round" />
</svg>