<?xml version="1.0" encoding="UTF-8" standalone="no"?>
<svg
   xmlns:dc="http://purl.org/dc/elements/1.1/"
   xmlns:cc="http://creativecommons.org/ns#"
   xmlns:rdf="http://www.w3.org/1999/02/22-rdf-syntax-ns#"
   xmlns:svg="http://www.w3.org/2000/svg"
   xmlns="http://www.w3.org/2000/svg"
   xmlns:sodipodi="http://sodipodi.sourceforge.net/DTD/sodipodi-0.dtd"
   xmlns:inkscape="http://www.inkscape.org/namespaces/inkscape"
   version="1.1"
   width="76"
   height="76"
   viewBox="0 0 76.00 76.00"
   enable-background="new 0 0 76.00 76.00"
   xml:space="preserve"
   id="svg2"
   inkscape:version="0.48.4 r9939"
   sodipodi:docname="question.dropdown.svg"><metadata
   id="metadata10"><rdf:RDF><cc:Work
       rdf:about=""><dc:format>image/svg+xml</dc:format><dc:type
         rdf:resource="http://purl.org/dc/dcmitype/StillImage" /></cc:Work></rdf:RDF></metadata><defs
   id="defs8" /><sodipodi:namedview
   pagecolor="#ffffff"
   bordercolor="#666666"
   borderopacity="1"
   objecttolerance="10"
   gridtolerance="10"
   guidetolerance="10"
   inkscape:pageopacity="0"
   inkscape:pageshadow="2"
   inkscape:window-width="1920"
   inkscape:window-height="1017"
   id="namedview6"
   showgrid="false"
   inkscape:zoom="3.1052632"
   inkscape:cx="38.000001"
   inkscape:cy="38.000001"
   inkscape:window-x="-8"
   inkscape:window-y="-8"
   inkscape:window-maximized="1"
   inkscape:current-layer="svg2" />
	<path
   d="m -0.26839492,7.2993919 76.85882392,0 0,62.2293041 -76.85882392,0 0,-62.2293041 z m 5.48996542,7.7787221 0,46.671856 35.6843425,0 0,-46.671856 -35.6843425,0 z m 65.8788915,46.671856 0,-46.671856 -27.449479,0 0,46.671856 27.449479,0 z m -21.959687,-31.11465 16.469723,0 -8.234862,15.557448 -8.234861,-15.557448 z m -25.87567,19.446686 -3.842992,0 0,-2.705492 -0.05202,0 c -0.867347,2.045701 -2.150945,3.068552 -3.850967,3.068552 -1.254301,0 -2.241096,-0.496441 -2.960217,-1.488833 -0.719293,-0.992638 -1.078854,-2.317136 -1.078854,-3.973249 0,-3.497686 1.485223,-5.516858 4.455321,-6.057762 l 3.510825,-0.652177 c 0,-1.807429 -0.764715,-2.711144 -2.293799,-2.711144 -1.539834,0 -3.00373,0.605016 -4.391348,1.815045 l 0,-4.265318 2.291718,-1.077628 2.647985,-0.465243 c 3.709501,0 5.564339,2.571371 5.564339,7.713875 l 0,10.799374 z m -3.818895,-7.356465 0,-1.185466 -2.39383,0.414151 c -1.32382,0.226728 -1.985555,1.022851 -1.985555,2.387879 0,0.616314 0.160709,1.122091 0.482302,1.517082 0.321594,0.395237 0.75726,0.592733 1.307003,0.592733 0.765929,0 1.389177,-0.351513 1.8694,-1.055031 0.480395,-0.703269 0.72068,-1.59372 0.72068,-2.671348 z"
   id="path4"
   inkscape:connector-curvature="0"
   style="fill:#000000;fill-opacity:1;stroke-width:0.2;stroke-linejoin:round" />
</svg>