<?xml version="1.0" encoding="UTF-8" standalone="no"?>
<svg
   xmlns:dc="http://purl.org/dc/elements/1.1/"
   xmlns:cc="http://creativecommons.org/ns#"
   xmlns:rdf="http://www.w3.org/1999/02/22-rdf-syntax-ns#"
   xmlns:svg="http://www.w3.org/2000/svg"
   xmlns="http://www.w3.org/2000/svg"
   xmlns:sodipodi="http://sodipodi.sourceforge.net/DTD/sodipodi-0.dtd"
   xmlns:inkscape="http://www.inkscape.org/namespaces/inkscape"
   version="1.1"
   width="76"
   height="76"
   viewBox="0 0 76.00 76.00"
   enable-background="new 0 0 76.00 76.00"
   xml:space="preserve"
   id="svg2"
   inkscape:version="0.91 r13725"
   sodipodi:docname="question.slider.svg"><metadata
     id="metadata10"><rdf:RDF><cc:Work
         rdf:about=""><dc:format>image/svg+xml</dc:format><dc:type
           rdf:resource="http://purl.org/dc/dcmitype/StillImage" /><dc:title></dc:title></cc:Work></rdf:RDF></metadata><defs
     id="defs8" /><sodipodi:namedview
     pagecolor="#ffffff"
     bordercolor="#666666"
     borderopacity="1"
     objecttolerance="10"
     gridtolerance="10"
     guidetolerance="10"
     inkscape:pageopacity="0"
     inkscape:pageshadow="2"
     inkscape:window-width="1855"
     inkscape:window-height="1056"
     id="namedview6"
     showgrid="false"
     inkscape:zoom="5.5009252"
     inkscape:cx="-4.5860043"
     inkscape:cy="3.8502641"
     inkscape:window-x="65"
     inkscape:window-y="24"
     inkscape:window-maximized="1"
     inkscape:current-layer="svg2" /><path
     style="fill:#000000"
     d="m 16.600043,60.416323 -7.4339384,-5.942296 -0.00303,-8.961141 -0.00303,-2.208471 -4.4749721,0 -4.47497216,0 0,-8.975648 0,-7.038934 4.46379016,-0.01212 4.463775,-0.01212 0.02394,-2.646265 c 0.06697,-7.387213 0.02909,-7.920024 0.1040914,-8.233937 0.4399909,-1.84245 1.5162341,-3.251379 3.1027111,-4.061845 0.54525,-0.278534 0.93971,-0.420794 1.538673,-0.554872 l 0.466249,-0.104395 9.688303,0 9.688304,0 0.466249,0.104395 c 2.372185,0.531038 4.063921,2.213562 4.641959,4.616717 0.07712,0.320535 0.08023,0.039 0.09076,18.993361 l 0.01061,19.093851 -7.407135,5.920765 c -4.073924,3.256421 -7.432392,5.930463 -7.463256,5.942311 -0.03091,0.01212 -3.401382,-2.652522 -7.490045,-5.92078 z m 28.361127,-26.087768 0,-7.039162 10.426678,0 20.743232,0 0,7.039162 0,8.97586 -20.743232,0 -10.426678,0 z"
     id="path4147"
     inkscape:connector-curvature="0"
     sodipodi:nodetypes="ccccccccccsssscccssscscccccccccccc" /></svg>