<?xml version="1.0" encoding="UTF-8" standalone="no"?>
<svg
   xmlns:dc="http://purl.org/dc/elements/1.1/"
   xmlns:cc="http://creativecommons.org/ns#"
   xmlns:rdf="http://www.w3.org/1999/02/22-rdf-syntax-ns#"
   xmlns:svg="http://www.w3.org/2000/svg"
   xmlns="http://www.w3.org/2000/svg"
   xmlns:sodipodi="http://sodipodi.sourceforge.net/DTD/sodipodi-0.dtd"
   xmlns:inkscape="http://www.inkscape.org/namespaces/inkscape"
   version="1.1"
   width="76"
   height="76"
   viewBox="0 0 76.00 76.00"
   enable-background="new 0 0 76.00 76.00"
   xml:space="preserve"
   id="svg2"
   inkscape:version="0.48.4 r9939"
   sodipodi:docname="search.svg"><metadata
   id="metadata10"><rdf:RDF><cc:Work
       rdf:about=""><dc:format>image/svg+xml</dc:format><dc:type
         rdf:resource="http://purl.org/dc/dcmitype/StillImage" /></cc:Work></rdf:RDF></metadata><defs
   id="defs8" /><sodipodi:namedview
   pagecolor="#ffffff"
   bordercolor="#666666"
   borderopacity="1"
   objecttolerance="10"
   gridtolerance="10"
   guidetolerance="10"
   inkscape:pageopacity="0"
   inkscape:pageshadow="2"
   inkscape:window-width="640"
   inkscape:window-height="480"
   id="namedview6"
   showgrid="false"
   inkscape:zoom="3.1052632"
   inkscape:cx="38"
   inkscape:cy="38"
   inkscape:window-x="0"
   inkscape:window-y="0"
   inkscape:window-maximized="0"
   inkscape:current-layer="svg2" />
	<path
   d="m 10.366395,-0.06779661 37.587353,0 20.612419,20.61241961 0,16.570768 -6.466642,-4.041651 0,-5.658312 -21.016583,0 0,-21.0165832 -24.249905,0 0,54.9664512 19.399924,0 -6.466642,6.466641 -19.399924,0 0,-67.89973361 z m 37.183188,8.48746671 0,12.5291179 12.529118,0 L 47.549583,8.4196701 z M 55.632885,33.88207 c 8.928492,0 16.166603,7.238112 16.166603,16.166603 0,8.928654 -7.238111,16.166603 -16.166603,16.166603 -2.998097,0 -5.805589,-0.816089 -8.212474,-2.238265 l -10.99135,10.991188 c -1.262612,1.262774 -3.30995,1.262774 -4.572562,0 l -1.14314,-1.14314 c -1.262773,-1.262612 -1.262773,-3.30995 0,-4.572562 l 10.991189,-10.99135 c -1.422176,-2.406885 -2.238267,-5.214376 -2.238267,-8.212474 0,-8.928491 7.23795,-16.166603 16.166604,-16.166603 z m 0,6.466642 c -5.357128,0 -9.699963,4.342835 -9.699963,9.699961 0,5.357128 4.342835,9.699963 9.699963,9.699963 5.357126,0 9.699961,-4.342835 9.699961,-9.699963 0,-5.357126 -4.342835,-9.699961 -9.699961,-9.699961 z"
   id="path4"
   inkscape:connector-curvature="0"
   style="fill:#000000;fill-opacity:1;stroke-width:0.2;stroke-linejoin:round" />
</svg>