<?xml version="1.0" encoding="UTF-8" standalone="no"?>
<svg
   xmlns:dc="http://purl.org/dc/elements/1.1/"
   xmlns:cc="http://creativecommons.org/ns#"
   xmlns:rdf="http://www.w3.org/1999/02/22-rdf-syntax-ns#"
   xmlns:svg="http://www.w3.org/2000/svg"
   xmlns="http://www.w3.org/2000/svg"
   xmlns:sodipodi="http://sodipodi.sourceforge.net/DTD/sodipodi-0.dtd"
   xmlns:inkscape="http://www.inkscape.org/namespaces/inkscape"
   version="1.1"
   width="76"
   height="76"
   viewBox="0 0 76.00 76.00"
   enable-background="new 0 0 76.00 76.00"
   xml:space="preserve"
   id="svg2"
   inkscape:version="0.48.4 r9939"
   sodipodi:docname="webservice.edit.svg"><metadata
   id="metadata10"><rdf:RDF><cc:Work
       rdf:about=""><dc:format>image/svg+xml</dc:format><dc:type
         rdf:resource="http://purl.org/dc/dcmitype/StillImage" /><dc:title></dc:title></cc:Work></rdf:RDF></metadata><defs
   id="defs8" /><sodipodi:namedview
   pagecolor="#ffffff"
   bordercolor="#666666"
   borderopacity="1"
   objecttolerance="10"
   gridtolerance="10"
   guidetolerance="10"
   inkscape:pageopacity="0"
   inkscape:pageshadow="2"
   inkscape:window-width="1920"
   inkscape:window-height="1017"
   id="namedview6"
   showgrid="false"
   inkscape:zoom="4.3915053"
   inkscape:cx="24.360743"
   inkscape:cy="38.866193"
   inkscape:window-x="1912"
   inkscape:window-y="-8"
   inkscape:window-maximized="1"
   inkscape:current-layer="svg2" />
	<path
   d="m 33.673466,1.7151341 c 17.398531,0 31.502906,14.1043749 31.502906,31.5029059 0,17.398532 -14.104375,31.502907 -31.502906,31.502907 -17.398532,0 -31.5029072,-14.104375 -31.5029072,-31.502907 0,-17.398531 14.1043752,-31.5029059 31.5029072,-31.5029059 z m 0,4.5004558 c -1.365898,0 -2.708204,0.1014724 -4.019671,0.2971691 -0.280683,0.6112502 -0.480785,1.28219 -0.480785,1.9529878 0,2.2502992 -2.250157,-2.2501569 -4.500314,2.2502992 -2.250299,4.500313 0,0 0,4.500313 0,2.250299 -3.256638,0.622051 -2.250299,1.12515 2.250299,1.125149 2.250299,1.125149 0,3.375306 0,0 -4.500314,-2.250157 -4.500314,0 0,2.250157 -2.250299,2.250157 -4.500455,2.250157 -2.250158,0 0,4.500456 -2.250158,4.500456 -1.7301461,0 -0.799841,-2.660594 -2.3229209,-3.890343 -0.5789894,1.348986 -1.0512481,2.754534 -1.4061171,4.206129 1.5165429,1.358792 1.770508,6.726595 3.729038,8.685125 2.250158,-2.250299 2.250158,0 4.500314,0 2.250299,0 2.250299,0 3.375307,2.250157 2.250299,0 3.375306,2.250157 5.625605,4.500314 2.250157,2.250299 6.750471,2.250299 6.750471,4.500456 0,2.250157 -2.250157,0 -2.250157,4.500456 0,2.250156 0,2.250156 -2.250157,2.250156 -1.416776,0 -2.833694,2.676227 -3.688819,4.658634 3.211586,1.347422 6.738532,2.091979 10.439432,2.091979 7.557701,0 14.390174,-3.104855 19.291403,-8.108694 l -1.289864,-2.579729 c 0,0 2.812802,-4.500455 0.562645,-6.750612 C 49.987351,40.531299 49.987351,38.281 49.987351,38.281 c 0,0 -4.500313,4.500456 -6.750612,2.250157 -2.250157,-2.250157 -2.250157,0 -4.500314,-4.500314 -2.250299,-4.500456 2.250157,-6.750613 2.250157,-6.750613 0,0 0,-4.500455 2.250157,-4.500455 2.250299,0 4.500456,-4.500314 9.000911,0 0,0 2.600621,-1.7337 6.28006,-2.157496 -1.154142,-2.702519 -2.736201,-5.178502 -4.661192,-7.342819 -0.404184,0.290631 -0.933148,0.499545 -1.618868,0.499545 -2.250299,0 2.250157,4.500456 0,4.500456 -2.250299,0 -2.250299,-2.250299 -4.500455,-2.250299 -2.250157,0 -2.250157,2.250299 -4.500456,4.500456 -2.250157,2.250157 0,0 -2.250157,-2.250157 -2.250157,-2.250299 4.500456,0 2.250157,-2.250299 -2.250157,-2.250157 2.250299,-2.250157 2.250299,-4.500314 0,-1.764965 2.768461,-2.145558 3.96268,-2.227702 -1.298675,-0.936416 -2.683759,-1.7602754 -3.96268,-2.2727534 2.250157,2.2501564 -2.250299,4.5004554 -4.500456,4.5004554 -2.113724,0 -0.256523,-3.9709232 -0.02331,-6.3177204 C 38.644332,6.5625003 36.199332,6.2155899 33.673466,6.2155899 z M 6.6710146,33.21804 c 0,7.942274 3.4288844,15.083569 8.8870754,20.024449 l -2.136462,-4.273066 c -2.250158,0 -3.375307,-5.062818 -3.375307,-7.313117 0,-1.805753 -0.7246606,-3.249247 0.152208,-4.91203 -3.1747771,-3.188563 -1.2773575,-1.459838 -1.2773575,-3.526236 0,-1.071144 -1.01984,-2.142431 -2.0885685,-2.970838 -0.1068729,0.975642 -0.1615884,1.966774 -0.1615884,2.970838 z"
   id="path4"
   inkscape:connector-curvature="0"
   style="fill:#000000;fill-opacity:1;stroke-width:0.2;stroke-linejoin:round" /><path
   sodipodi:type="arc"
   style="fill:#ffffff;fill-opacity:1;stroke:none"
   id="path2994"
   sodipodi:cx="57.952793"
   sodipodi:cy="56.302883"
   sodipodi:rx="18.786268"
   sodipodi:ry="19.013981"
   d="m 76.739061,56.302883 a 18.786268,19.013981 0 1 1 -37.572536,0 18.786268,19.013981 0 1 1 37.572536,0 z"
   transform="matrix(1.1646706,0,0,1.1646706,-12.864385,-11.491629)" />
<path
   style="fill:#000000;fill-opacity:1;stroke-width:0.2;stroke-linejoin:round"
   inkscape:connector-curvature="0"
   d="m 44.162928,37.945534 5.4812,-2.4404 1.749,3.9283 c 1.9077,-0.4238 3.8428,-0.4604 5.7052,-0.1481 l 1.5415,-4.0158 5.6015,2.1502 -1.5415,4.0158 c 1.5929,1.0141 3.0064,2.3361 4.1405,3.9275 l 3.9283,-1.749 2.4405,5.4813 -3.9283,1.749 c 0.4238,1.9077 0.4604,3.8427 0.1481,5.7052 l 4.0157,1.5415 -2.1502,5.6014 -4.0157,-1.5414 c -1.0141,1.593 -2.3361,3.0065 -3.9275,4.1406 l 1.7489,3.9283 -5.4812,2.4404 -1.749,-3.9283 c -1.9077,0.4238 -3.8427,0.4604 -5.7051,0.1481 l -1.5415,4.0157 -5.6015,-2.1502 1.5415,-4.0157 c -1.593,-1.0141 -3.0066,-2.3361 -4.1407,-3.9276 l -3.928297,1.749 -2.4404,-5.4813 3.928297,-1.749 c -0.4238,-1.9076 -0.4604,-3.8426 -0.1481,-5.7051 l -4.015697,-1.5414 2.1502,-5.6015 4.015697,1.5415 c 1.0141,-1.593 2.3361,-3.0066 3.9276,-4.1407 l -1.749,-3.9283 z m 6.808,7.9153 c -4.5409,2.0217 -6.583,7.3417 -4.5613,11.8825 2.0217,4.5409 7.3417,6.583 11.8825,4.5613 4.5409,-2.0217 6.583,-7.3417 4.5613,-11.8825 -2.0217,-4.5409 -7.3417,-6.583 -11.8825,-4.5613 z"
   id="path4-1" /><g
   transform="matrix(1.1159983,0,0,1.1159983,-20.782378,11.445486)"
   id="g3807"><path
     sodipodi:nodetypes="ccccccccccsssccccccc"
     id="path4-1-8"
     d="m 44.729911,22.189737 9.459171,9.208014 -22.701797,22.099305 -3.89589,0.810083 -4.030628,-2.566861 -2.364792,-3.651127 0.832138,-3.80011 z m 9.459044,9.210616 -9.465047,-9.207932 2.536129,-2.658857 c 1.423334,-1.492211 3.873307,-1.43844 5.350963,0 l 4.0131,3.906597 c 1.477656,1.43844 1.477657,3.77051 0,5.208949 z m -33.332303,24.590176 -0.945953,-0.920731 1.28975,-6.98268 6.384974,6.21552 z"
     inkscape:connector-curvature="0"
     style="fill:#ffffff;fill-opacity:1;stroke-width:0.2;stroke-linejoin:round" /><path
     style="fill:#000000;fill-opacity:1;stroke-width:0.2;stroke-linejoin:round"
     inkscape:connector-curvature="0"
     id="path4-8"
     d="M 42.7499,25.3335 50.6666,33.2501 31.6667,52.25 23.75,44.3334 42.7499,25.3335 z m 9.4205,6.3329 -7.8371,-7.8371 3.3588,-3.3587 c 1.2367,-1.2367 3.2417,-1.2367 4.4784,0 l 3.3587,3.3587 c 1.2367,1.2367 1.2367,3.2417 0,4.4784 l -3.3588,3.3587 z m -30.3995,23.3543 -0.7917,-0.7916 2.0781,-6.6303 5.3438,5.3438 -6.6302,2.0781 z" /></g></svg>